%TF.GenerationSoftware,KiCad,Pcbnew,9.0.0*%
%TF.CreationDate,2025-03-07T17:14:41+09:00*%
%TF.ProjectId,Underside,556e6465-7273-4696-9465-2e6b69636164,rev?*%
%TF.SameCoordinates,Original*%
%TF.FileFunction,Copper,L2,Bot*%
%TF.FilePolarity,Positive*%
%FSLAX46Y46*%
G04 Gerber Fmt 4.6, Leading zero omitted, Abs format (unit mm)*
G04 Created by KiCad (PCBNEW 9.0.0) date 2025-03-07 17:14:41*
%MOMM*%
%LPD*%
G01*
G04 APERTURE LIST*
G04 Aperture macros list*
%AMRoundRect*
0 Rectangle with rounded corners*
0 $1 Rounding radius*
0 $2 $3 $4 $5 $6 $7 $8 $9 X,Y pos of 4 corners*
0 Add a 4 corners polygon primitive as box body*
4,1,4,$2,$3,$4,$5,$6,$7,$8,$9,$2,$3,0*
0 Add four circle primitives for the rounded corners*
1,1,$1+$1,$2,$3*
1,1,$1+$1,$4,$5*
1,1,$1+$1,$6,$7*
1,1,$1+$1,$8,$9*
0 Add four rect primitives between the rounded corners*
20,1,$1+$1,$2,$3,$4,$5,0*
20,1,$1+$1,$4,$5,$6,$7,0*
20,1,$1+$1,$6,$7,$8,$9,0*
20,1,$1+$1,$8,$9,$2,$3,0*%
G04 Aperture macros list end*
%TA.AperFunction,ComponentPad*%
%ADD10C,1.600000*%
%TD*%
%TA.AperFunction,ComponentPad*%
%ADD11R,2.000000X2.000000*%
%TD*%
%TA.AperFunction,ComponentPad*%
%ADD12C,2.000000*%
%TD*%
%TA.AperFunction,ComponentPad*%
%ADD13RoundRect,0.250000X0.600000X0.725000X-0.600000X0.725000X-0.600000X-0.725000X0.600000X-0.725000X0*%
%TD*%
%TA.AperFunction,ComponentPad*%
%ADD14O,1.700000X1.950000*%
%TD*%
%TA.AperFunction,ComponentPad*%
%ADD15C,1.400000*%
%TD*%
%TA.AperFunction,ViaPad*%
%ADD16C,0.600000*%
%TD*%
%TA.AperFunction,Conductor*%
%ADD17C,0.250000*%
%TD*%
G04 APERTURE END LIST*
D10*
%TO.P,DPS310,1,VCC*%
%TO.N,+3.3V*%
X119180000Y-126770000D03*
%TO.P,DPS310,2,SDI*%
%TO.N,Net-(U1-SDI)*%
X116640000Y-126770000D03*
%TO.P,DPS310,3,GND*%
%TO.N,GND*%
X114100000Y-126770000D03*
%TO.P,DPS310,4,SDO*%
%TO.N,unconnected-(U1-SDO-Pad4)*%
X111560000Y-126770000D03*
%TO.P,DPS310,5,CSK*%
%TO.N,Net-(U1-CSK)*%
X109020000Y-126770000D03*
%TO.P,DPS310,6,CS*%
%TO.N,unconnected-(U1-CS-Pad6)*%
X106480000Y-126770000D03*
%TD*%
D11*
%TO.P,URM37,1,VCC*%
%TO.N,+3.3V*%
X113670000Y-137270000D03*
D12*
%TO.P,URM37,2,GND*%
%TO.N,GND*%
X116210000Y-137270000D03*
%TO.P,URM37,3,NRST*%
%TO.N,unconnected-(U2-NRST-Pad3)*%
X118750000Y-137270000D03*
%TO.P,URM37,4,ECHO*%
%TO.N,Net-(U2-ECHO)*%
X121290000Y-137270000D03*
%TO.P,URM37,5,SERVO*%
%TO.N,unconnected-(U2-SERVO-Pad5)*%
X123830000Y-137270000D03*
%TO.P,URM37,6,COMP/TRIG*%
%TO.N,Net-(U2-COMP{slash}TRIG)*%
X126370000Y-137270000D03*
%TO.P,URM37,7,DAC_OUT*%
%TO.N,unconnected-(U2-DAC_OUT-Pad7)*%
X128910000Y-137270000D03*
%TO.P,URM37,8,RXD*%
%TO.N,unconnected-(U2-RXD-Pad8)*%
X131450000Y-137270000D03*
%TO.P,URM37,9,TXD*%
%TO.N,unconnected-(U2-TXD-Pad9)*%
X133990000Y-137270000D03*
%TD*%
D13*
%TO.P,Under_URAT,1,Pin_1*%
%TO.N,GND*%
X127580000Y-74720000D03*
D14*
%TO.P,Under_URAT,2,Pin_2*%
%TO.N,+5V*%
X125080000Y-74720000D03*
%TO.P,Under_URAT,3,Pin_3*%
%TO.N,/PTXR*%
X122580000Y-74720000D03*
%TO.P,Under_URAT,4,Pin_4*%
%TO.N,/PRXT*%
X120080000Y-74720000D03*
%TD*%
D15*
%TO.P,J1,1,DAT2*%
%TO.N,unconnected-(J1-DAT2-Pad1)*%
X127630000Y-106340000D03*
%TO.P,J1,2,DAT3/CD*%
%TO.N,/CS*%
X127630000Y-108880000D03*
%TO.P,J1,3,CMD*%
%TO.N,Net-(J1-CMD)*%
X127630000Y-111420000D03*
%TO.P,J1,4,VDD*%
%TO.N,+3.3V*%
X127630000Y-113960000D03*
%TO.P,J1,5,CLK*%
%TO.N,Net-(J1-CLK)*%
X127630000Y-116500000D03*
%TO.P,J1,6,VSS*%
%TO.N,GND*%
X127630000Y-119040000D03*
%TO.P,J1,7,DAT0*%
%TO.N,Net-(J1-DAT0)*%
X127630000Y-121580000D03*
%TO.P,J1,8,DAT1*%
%TO.N,unconnected-(J1-DAT1-Pad8)*%
X127630000Y-124120000D03*
%TO.P,J1,9,DET_B*%
%TO.N,unconnected-(J1-DET_B-Pad9)*%
X127630000Y-126660000D03*
%TO.P,J1,10,DET_A*%
%TO.N,unconnected-(J1-DET_A-Pad10)*%
X127630000Y-129200000D03*
%TO.P,J1,11,SHIELD*%
%TO.N,unconnected-(J1-SHIELD-Pad11)*%
X140330000Y-126660000D03*
%TO.P,J1,13*%
%TO.N,N/C*%
X140330000Y-108880000D03*
%TD*%
D16*
%TO.N,/CS*%
X121830000Y-107770000D03*
%TO.N,Net-(J1-DAT0)*%
X123330000Y-103770000D03*
X126330000Y-102770000D03*
%TO.N,+3.3V*%
X113670000Y-134930000D03*
X120330000Y-114020000D03*
X116330000Y-132270000D03*
%TO.N,GND*%
X139790000Y-96520000D03*
X133330000Y-78020000D03*
%TO.N,/PRXT*%
X127080000Y-80270000D03*
X127080000Y-78020000D03*
%TO.N,/PTXR*%
X123330000Y-81520000D03*
%TO.N,+5V*%
X142330000Y-96520000D03*
%TO.N,Net-(U1-SDI)*%
X120830000Y-86270000D03*
X124080000Y-86270000D03*
%TO.N,Net-(U1-CSK)*%
X120830000Y-84770000D03*
X124080000Y-84770000D03*
%TD*%
D17*
%TO.N,/CS*%
X122940000Y-108880000D02*
X127630000Y-108880000D01*
X121830000Y-107770000D02*
X122940000Y-108880000D01*
%TO.N,Net-(J1-DAT0)*%
X123330000Y-103520000D02*
X124080000Y-102770000D01*
X123330000Y-103770000D02*
X123330000Y-103520000D01*
X124080000Y-102770000D02*
X126330000Y-102770000D01*
%TO.N,+3.3V*%
X120390000Y-113960000D02*
X127630000Y-113960000D01*
X113670000Y-134930000D02*
X116330000Y-132270000D01*
X120330000Y-114020000D02*
X120390000Y-113960000D01*
%TO.N,GND*%
X120600000Y-119040000D02*
X127630000Y-119040000D01*
X114100000Y-125500000D02*
X120580000Y-119020000D01*
X139790000Y-96520000D02*
X139790000Y-96480000D01*
X120580000Y-119020000D02*
X120600000Y-119040000D01*
X133330000Y-90020000D02*
X133330000Y-78020000D01*
X114100000Y-126770000D02*
X114100000Y-125500000D01*
X139790000Y-96480000D02*
X133330000Y-90020000D01*
%TO.N,/PRXT*%
X127080000Y-78020000D02*
X127080000Y-80270000D01*
%TO.N,/PTXR*%
X123330000Y-81520000D02*
X122580000Y-80770000D01*
X122580000Y-80770000D02*
X122580000Y-74720000D01*
%TO.N,+5V*%
X133270000Y-76270000D02*
X125830000Y-76270000D01*
X125080000Y-75520000D02*
X125080000Y-74720000D01*
X134830000Y-77830000D02*
X133270000Y-76270000D01*
X125830000Y-76270000D02*
X125080000Y-75520000D01*
X142330000Y-96520000D02*
X134830000Y-89020000D01*
X134830000Y-89020000D02*
X134830000Y-77830000D01*
%TO.N,Net-(U1-SDI)*%
X124080000Y-86270000D02*
X120830000Y-86270000D01*
%TO.N,Net-(U1-CSK)*%
X120830000Y-84770000D02*
X124080000Y-84770000D01*
%TD*%
%TA.AperFunction,Conductor*%
%TO.N,GND*%
G36*
X141865649Y-71008162D02*
G01*
X141932677Y-71027875D01*
X141978408Y-71080700D01*
X141988321Y-71149863D01*
X141968464Y-71199581D01*
X141969221Y-71200057D01*
X141782092Y-71497869D01*
X141630999Y-71811617D01*
X141515985Y-72140307D01*
X141515982Y-72140315D01*
X141438491Y-72479829D01*
X141438489Y-72479841D01*
X141399500Y-72825875D01*
X141399500Y-73174124D01*
X141438489Y-73520158D01*
X141438491Y-73520170D01*
X141515982Y-73859684D01*
X141515985Y-73859692D01*
X141630999Y-74188382D01*
X141782092Y-74502130D01*
X141967371Y-74796999D01*
X141967372Y-74797001D01*
X142184487Y-75069256D01*
X142430743Y-75315512D01*
X142702998Y-75532627D01*
X142703001Y-75532628D01*
X142703003Y-75532630D01*
X142997867Y-75717906D01*
X143311621Y-75869002D01*
X143558488Y-75955384D01*
X143640307Y-75984014D01*
X143640315Y-75984017D01*
X143640318Y-75984017D01*
X143640319Y-75984018D01*
X143979829Y-76061509D01*
X144325876Y-76100499D01*
X144325877Y-76100500D01*
X144325880Y-76100500D01*
X144674123Y-76100500D01*
X144674123Y-76100499D01*
X145020171Y-76061509D01*
X145359681Y-75984018D01*
X145688379Y-75869002D01*
X145892500Y-75770702D01*
X145961437Y-75759351D01*
X146025572Y-75787073D01*
X146064538Y-75845068D01*
X146070285Y-75880634D01*
X146948856Y-136762949D01*
X146930141Y-136830265D01*
X146878003Y-136876777D01*
X146808995Y-136887718D01*
X146745027Y-136859613D01*
X146737188Y-136852419D01*
X146569256Y-136684487D01*
X146297001Y-136467372D01*
X146296999Y-136467371D01*
X146002130Y-136282092D01*
X145688382Y-136130999D01*
X145359692Y-136015985D01*
X145359684Y-136015982D01*
X145105048Y-135957863D01*
X145020171Y-135938491D01*
X145020167Y-135938490D01*
X145020158Y-135938489D01*
X144674124Y-135899500D01*
X144674120Y-135899500D01*
X144325880Y-135899500D01*
X144325875Y-135899500D01*
X143979841Y-135938489D01*
X143979829Y-135938491D01*
X143640315Y-136015982D01*
X143640307Y-136015985D01*
X143311617Y-136130999D01*
X142997869Y-136282092D01*
X142703000Y-136467371D01*
X142702998Y-136467372D01*
X142430743Y-136684487D01*
X142184487Y-136930743D01*
X141967372Y-137202998D01*
X141967371Y-137203000D01*
X141782092Y-137497869D01*
X141630999Y-137811617D01*
X141515985Y-138140307D01*
X141515982Y-138140315D01*
X141438491Y-138479829D01*
X141438489Y-138479841D01*
X141399500Y-138825875D01*
X141399500Y-139174124D01*
X141438489Y-139520158D01*
X141438491Y-139520170D01*
X141515982Y-139859684D01*
X141515985Y-139859692D01*
X141630999Y-140188382D01*
X141782092Y-140502130D01*
X141782094Y-140502133D01*
X141967370Y-140796997D01*
X141968717Y-140798687D01*
X141968919Y-140799181D01*
X141969380Y-140799830D01*
X141969228Y-140799937D01*
X141995126Y-140863372D01*
X141982372Y-140932067D01*
X141934502Y-140982962D01*
X141871771Y-141000000D01*
X105628229Y-141000000D01*
X105561190Y-140980315D01*
X105515435Y-140927511D01*
X105505491Y-140858353D01*
X105530748Y-140799921D01*
X105530620Y-140799830D01*
X105531050Y-140799224D01*
X105531281Y-140798687D01*
X105532630Y-140796997D01*
X105717906Y-140502133D01*
X105869002Y-140188379D01*
X105984018Y-139859681D01*
X106061509Y-139520171D01*
X106100500Y-139174120D01*
X106100500Y-138825880D01*
X106061509Y-138479829D01*
X105984018Y-138140319D01*
X105869002Y-137811621D01*
X105717906Y-137497867D01*
X105532630Y-137203003D01*
X105532628Y-137203000D01*
X105532627Y-137202998D01*
X105315512Y-136930743D01*
X105069256Y-136684487D01*
X104797001Y-136467372D01*
X104796999Y-136467371D01*
X104680838Y-136394382D01*
X104502133Y-136282094D01*
X104502130Y-136282092D01*
X104377628Y-136222135D01*
X112169500Y-136222135D01*
X112169500Y-138317870D01*
X112169501Y-138317876D01*
X112175908Y-138377483D01*
X112226202Y-138512328D01*
X112226206Y-138512335D01*
X112312452Y-138627544D01*
X112312455Y-138627547D01*
X112427664Y-138713793D01*
X112427671Y-138713797D01*
X112562517Y-138764091D01*
X112562516Y-138764091D01*
X112569444Y-138764835D01*
X112622127Y-138770500D01*
X114717872Y-138770499D01*
X114777483Y-138764091D01*
X114912331Y-138713796D01*
X115027546Y-138627546D01*
X115113796Y-138512331D01*
X115113797Y-138512326D01*
X115118047Y-138504546D01*
X115121200Y-138506267D01*
X115152814Y-138464025D01*
X115218275Y-138439599D01*
X115286550Y-138454442D01*
X115300023Y-138462964D01*
X115423828Y-138552914D01*
X115634197Y-138660102D01*
X115858752Y-138733065D01*
X115858751Y-138733065D01*
X116091948Y-138770000D01*
X116328052Y-138770000D01*
X116561247Y-138733065D01*
X116785802Y-138660102D01*
X116996163Y-138552918D01*
X116996169Y-138552914D01*
X117079104Y-138492658D01*
X117079105Y-138492658D01*
X116339409Y-137752962D01*
X116402993Y-137735925D01*
X116517007Y-137670099D01*
X116610099Y-137577007D01*
X116675925Y-137462993D01*
X116692962Y-137399409D01*
X117432657Y-138139104D01*
X117452404Y-138137550D01*
X117520781Y-138151914D01*
X117562451Y-138188282D01*
X117605483Y-138247510D01*
X117772490Y-138414517D01*
X117963567Y-138553343D01*
X118062991Y-138604002D01*
X118174003Y-138660566D01*
X118174005Y-138660566D01*
X118174008Y-138660568D01*
X118294412Y-138699689D01*
X118398631Y-138733553D01*
X118631903Y-138770500D01*
X118631908Y-138770500D01*
X118868097Y-138770500D01*
X119101368Y-138733553D01*
X119102870Y-138733065D01*
X119325992Y-138660568D01*
X119536433Y-138553343D01*
X119727510Y-138414517D01*
X119894517Y-138247510D01*
X119919682Y-138212872D01*
X119975011Y-138170207D01*
X120044625Y-138164228D01*
X120106420Y-138196833D01*
X120120315Y-138212870D01*
X120145483Y-138247510D01*
X120312490Y-138414517D01*
X120503567Y-138553343D01*
X120602991Y-138604002D01*
X120714003Y-138660566D01*
X120714005Y-138660566D01*
X120714008Y-138660568D01*
X120834412Y-138699689D01*
X120938631Y-138733553D01*
X121171903Y-138770500D01*
X121171908Y-138770500D01*
X121408097Y-138770500D01*
X121641368Y-138733553D01*
X121642870Y-138733065D01*
X121865992Y-138660568D01*
X122076433Y-138553343D01*
X122267510Y-138414517D01*
X122434517Y-138247510D01*
X122459682Y-138212872D01*
X122515011Y-138170207D01*
X122584625Y-138164228D01*
X122646420Y-138196833D01*
X122660315Y-138212870D01*
X122685483Y-138247510D01*
X122852490Y-138414517D01*
X123043567Y-138553343D01*
X123142991Y-138604002D01*
X123254003Y-138660566D01*
X123254005Y-138660566D01*
X123254008Y-138660568D01*
X123374412Y-138699689D01*
X123478631Y-138733553D01*
X123711903Y-138770500D01*
X123711908Y-138770500D01*
X123948097Y-138770500D01*
X124181368Y-138733553D01*
X124182870Y-138733065D01*
X124405992Y-138660568D01*
X124616433Y-138553343D01*
X124807510Y-138414517D01*
X124974517Y-138247510D01*
X124999682Y-138212872D01*
X125055011Y-138170207D01*
X125124625Y-138164228D01*
X125186420Y-138196833D01*
X125200315Y-138212870D01*
X125225483Y-138247510D01*
X125392490Y-138414517D01*
X125583567Y-138553343D01*
X125682991Y-138604002D01*
X125794003Y-138660566D01*
X125794005Y-138660566D01*
X125794008Y-138660568D01*
X125914412Y-138699689D01*
X126018631Y-138733553D01*
X126251903Y-138770500D01*
X126251908Y-138770500D01*
X126488097Y-138770500D01*
X126721368Y-138733553D01*
X126722870Y-138733065D01*
X126945992Y-138660568D01*
X127156433Y-138553343D01*
X127347510Y-138414517D01*
X127514517Y-138247510D01*
X127539682Y-138212872D01*
X127595011Y-138170207D01*
X127664625Y-138164228D01*
X127726420Y-138196833D01*
X127740315Y-138212870D01*
X127765483Y-138247510D01*
X127932490Y-138414517D01*
X128123567Y-138553343D01*
X128222991Y-138604002D01*
X128334003Y-138660566D01*
X128334005Y-138660566D01*
X128334008Y-138660568D01*
X128454412Y-138699689D01*
X128558631Y-138733553D01*
X128791903Y-138770500D01*
X128791908Y-138770500D01*
X129028097Y-138770500D01*
X129261368Y-138733553D01*
X129262870Y-138733065D01*
X129485992Y-138660568D01*
X129696433Y-138553343D01*
X129887510Y-138414517D01*
X130054517Y-138247510D01*
X130079682Y-138212872D01*
X130135011Y-138170207D01*
X130204625Y-138164228D01*
X130266420Y-138196833D01*
X130280315Y-138212870D01*
X130305483Y-138247510D01*
X130472490Y-138414517D01*
X130663567Y-138553343D01*
X130762991Y-138604002D01*
X130874003Y-138660566D01*
X130874005Y-138660566D01*
X130874008Y-138660568D01*
X130994412Y-138699689D01*
X131098631Y-138733553D01*
X131331903Y-138770500D01*
X131331908Y-138770500D01*
X131568097Y-138770500D01*
X131801368Y-138733553D01*
X131802870Y-138733065D01*
X132025992Y-138660568D01*
X132236433Y-138553343D01*
X132427510Y-138414517D01*
X132594517Y-138247510D01*
X132619682Y-138212872D01*
X132675011Y-138170207D01*
X132744625Y-138164228D01*
X132806420Y-138196833D01*
X132820315Y-138212870D01*
X132845483Y-138247510D01*
X133012490Y-138414517D01*
X133203567Y-138553343D01*
X133302991Y-138604002D01*
X133414003Y-138660566D01*
X133414005Y-138660566D01*
X133414008Y-138660568D01*
X133534412Y-138699689D01*
X133638631Y-138733553D01*
X133871903Y-138770500D01*
X133871908Y-138770500D01*
X134108097Y-138770500D01*
X134341368Y-138733553D01*
X134342870Y-138733065D01*
X134565992Y-138660568D01*
X134776433Y-138553343D01*
X134967510Y-138414517D01*
X135134517Y-138247510D01*
X135273343Y-138056433D01*
X135380568Y-137845992D01*
X135453553Y-137621368D01*
X135460579Y-137577007D01*
X135490500Y-137388097D01*
X135490500Y-137151902D01*
X135453553Y-136918631D01*
X135380566Y-136694003D01*
X135273342Y-136483566D01*
X135261862Y-136467765D01*
X135134517Y-136292490D01*
X134967510Y-136125483D01*
X134776433Y-135986657D01*
X134565996Y-135879433D01*
X134341368Y-135806446D01*
X134108097Y-135769500D01*
X134108092Y-135769500D01*
X133871908Y-135769500D01*
X133871903Y-135769500D01*
X133638631Y-135806446D01*
X133414003Y-135879433D01*
X133203566Y-135986657D01*
X133136404Y-136035454D01*
X133012490Y-136125483D01*
X133012488Y-136125485D01*
X133012487Y-136125485D01*
X132845484Y-136292488D01*
X132820318Y-136327127D01*
X132764987Y-136369792D01*
X132695374Y-136375771D01*
X132633579Y-136343165D01*
X132619682Y-136327127D01*
X132617265Y-136323800D01*
X132594517Y-136292490D01*
X132427510Y-136125483D01*
X132236433Y-135986657D01*
X132025996Y-135879433D01*
X131801368Y-135806446D01*
X131568097Y-135769500D01*
X131568092Y-135769500D01*
X131331908Y-135769500D01*
X131331903Y-135769500D01*
X131098631Y-135806446D01*
X130874003Y-135879433D01*
X130663566Y-135986657D01*
X130596404Y-136035454D01*
X130472490Y-136125483D01*
X130472488Y-136125485D01*
X130472487Y-136125485D01*
X130305484Y-136292488D01*
X130280318Y-136327127D01*
X130224987Y-136369792D01*
X130155374Y-136375771D01*
X130093579Y-136343165D01*
X130079682Y-136327127D01*
X130077265Y-136323800D01*
X130054517Y-136292490D01*
X129887510Y-136125483D01*
X129696433Y-135986657D01*
X129485996Y-135879433D01*
X129261368Y-135806446D01*
X129028097Y-135769500D01*
X129028092Y-135769500D01*
X128791908Y-135769500D01*
X128791903Y-135769500D01*
X128558631Y-135806446D01*
X128334003Y-135879433D01*
X128123566Y-135986657D01*
X128056404Y-136035454D01*
X127932490Y-136125483D01*
X127932488Y-136125485D01*
X127932487Y-136125485D01*
X127765484Y-136292488D01*
X127740318Y-136327127D01*
X127684987Y-136369792D01*
X127615374Y-136375771D01*
X127553579Y-136343165D01*
X127539682Y-136327127D01*
X127537265Y-136323800D01*
X127514517Y-136292490D01*
X127347510Y-136125483D01*
X127156433Y-135986657D01*
X126945996Y-135879433D01*
X126721368Y-135806446D01*
X126488097Y-135769500D01*
X126488092Y-135769500D01*
X126251908Y-135769500D01*
X126251903Y-135769500D01*
X126018631Y-135806446D01*
X125794003Y-135879433D01*
X125583566Y-135986657D01*
X125516404Y-136035454D01*
X125392490Y-136125483D01*
X125392488Y-136125485D01*
X125392487Y-136125485D01*
X125225484Y-136292488D01*
X125200318Y-136327127D01*
X125144987Y-136369792D01*
X125075374Y-136375771D01*
X125013579Y-136343165D01*
X124999682Y-136327127D01*
X124997265Y-136323800D01*
X124974517Y-136292490D01*
X124807510Y-136125483D01*
X124616433Y-135986657D01*
X124405996Y-135879433D01*
X124181368Y-135806446D01*
X123948097Y-135769500D01*
X123948092Y-135769500D01*
X123711908Y-135769500D01*
X123711903Y-135769500D01*
X123478631Y-135806446D01*
X123254003Y-135879433D01*
X123043566Y-135986657D01*
X122976404Y-136035454D01*
X122852490Y-136125483D01*
X122852488Y-136125485D01*
X122852487Y-136125485D01*
X122685484Y-136292488D01*
X122660318Y-136327127D01*
X122604987Y-136369792D01*
X122535374Y-136375771D01*
X122473579Y-136343165D01*
X122459682Y-136327127D01*
X122457265Y-136323800D01*
X122434517Y-136292490D01*
X122267510Y-136125483D01*
X122076433Y-135986657D01*
X121865996Y-135879433D01*
X121641368Y-135806446D01*
X121408097Y-135769500D01*
X121408092Y-135769500D01*
X121171908Y-135769500D01*
X121171903Y-135769500D01*
X120938631Y-135806446D01*
X120714003Y-135879433D01*
X120503566Y-135986657D01*
X120436404Y-136035454D01*
X120312490Y-136125483D01*
X120312488Y-136125485D01*
X120312487Y-136125485D01*
X120145484Y-136292488D01*
X120120318Y-136327127D01*
X120064987Y-136369792D01*
X119995374Y-136375771D01*
X119933579Y-136343165D01*
X119919682Y-136327127D01*
X119917265Y-136323800D01*
X119894517Y-136292490D01*
X119727510Y-136125483D01*
X119536433Y-135986657D01*
X119325996Y-135879433D01*
X119101368Y-135806446D01*
X118868097Y-135769500D01*
X118868092Y-135769500D01*
X118631908Y-135769500D01*
X118631903Y-135769500D01*
X118398631Y-135806446D01*
X118174003Y-135879433D01*
X117963566Y-135986657D01*
X117896404Y-136035454D01*
X117772490Y-136125483D01*
X117772488Y-136125485D01*
X117772487Y-136125485D01*
X117605482Y-136292490D01*
X117562451Y-136351717D01*
X117507120Y-136394382D01*
X117452405Y-136402448D01*
X117432658Y-136400893D01*
X116692962Y-137140590D01*
X116675925Y-137077007D01*
X116610099Y-136962993D01*
X116517007Y-136869901D01*
X116402993Y-136804075D01*
X116339408Y-136787037D01*
X117079105Y-136047340D01*
X117079104Y-136047338D01*
X116996174Y-135987087D01*
X116785802Y-135879897D01*
X116561247Y-135806934D01*
X116561248Y-135806934D01*
X116328052Y-135770000D01*
X116091948Y-135770000D01*
X115858752Y-135806934D01*
X115634197Y-135879897D01*
X115423829Y-135987084D01*
X115300021Y-136077036D01*
X115234214Y-136100515D01*
X115166161Y-136084689D01*
X115118220Y-136035359D01*
X115118047Y-136035454D01*
X115117706Y-136034830D01*
X115117466Y-136034583D01*
X115116987Y-136033513D01*
X115113793Y-136027664D01*
X115027547Y-135912455D01*
X115027544Y-135912452D01*
X114912335Y-135826206D01*
X114912328Y-135826202D01*
X114777482Y-135775908D01*
X114777483Y-135775908D01*
X114717883Y-135769501D01*
X114717881Y-135769500D01*
X114717873Y-135769500D01*
X114717865Y-135769500D01*
X114261564Y-135769500D01*
X114194525Y-135749815D01*
X114148770Y-135697011D01*
X114138826Y-135627853D01*
X114167851Y-135564297D01*
X114176126Y-135556241D01*
X114175982Y-135556097D01*
X114291786Y-135440292D01*
X114291789Y-135440289D01*
X114379394Y-135309179D01*
X114439737Y-135163497D01*
X114461858Y-135052282D01*
X114494240Y-134990375D01*
X114495735Y-134988853D01*
X116388797Y-133095791D01*
X116450118Y-133062308D01*
X116452128Y-133061889D01*
X116563497Y-133039737D01*
X116709179Y-132979394D01*
X116840289Y-132891789D01*
X116951789Y-132780289D01*
X117039394Y-132649179D01*
X117099737Y-132503497D01*
X117130500Y-132348842D01*
X117130500Y-132191158D01*
X117130500Y-132191155D01*
X117130499Y-132191153D01*
X117099738Y-132036510D01*
X117099738Y-132036508D01*
X117099737Y-132036503D01*
X117099735Y-132036498D01*
X117039397Y-131890827D01*
X117039390Y-131890814D01*
X116951789Y-131759711D01*
X116951786Y-131759707D01*
X116840292Y-131648213D01*
X116840288Y-131648210D01*
X116709185Y-131560609D01*
X116709172Y-131560602D01*
X116563501Y-131500264D01*
X116563489Y-131500261D01*
X116408845Y-131469500D01*
X116408842Y-131469500D01*
X116251158Y-131469500D01*
X116251155Y-131469500D01*
X116096510Y-131500261D01*
X116096498Y-131500264D01*
X115950827Y-131560602D01*
X115950814Y-131560609D01*
X115819711Y-131648210D01*
X115819707Y-131648213D01*
X115708213Y-131759707D01*
X115708210Y-131759711D01*
X115620609Y-131890814D01*
X115620602Y-131890827D01*
X115560264Y-132036498D01*
X115560261Y-132036508D01*
X115538141Y-132147714D01*
X115505756Y-132209625D01*
X115504205Y-132211203D01*
X113611203Y-134104205D01*
X113549880Y-134137690D01*
X113547714Y-134138141D01*
X113436508Y-134160261D01*
X113436498Y-134160264D01*
X113290827Y-134220602D01*
X113290814Y-134220609D01*
X113159711Y-134308210D01*
X113159707Y-134308213D01*
X113048213Y-134419707D01*
X113048210Y-134419711D01*
X112960609Y-134550814D01*
X112960602Y-134550827D01*
X112900264Y-134696498D01*
X112900261Y-134696510D01*
X112869500Y-134851153D01*
X112869500Y-135008846D01*
X112900261Y-135163489D01*
X112900264Y-135163501D01*
X112960602Y-135309172D01*
X112960609Y-135309185D01*
X113048210Y-135440288D01*
X113048213Y-135440292D01*
X113164018Y-135556097D01*
X113162513Y-135557601D01*
X113196429Y-135607372D01*
X113198311Y-135677216D01*
X113162134Y-135736991D01*
X113099384Y-135767718D01*
X113078436Y-135769500D01*
X112622129Y-135769500D01*
X112622123Y-135769501D01*
X112562516Y-135775908D01*
X112427671Y-135826202D01*
X112427664Y-135826206D01*
X112312455Y-135912452D01*
X112312452Y-135912455D01*
X112226206Y-136027664D01*
X112226202Y-136027671D01*
X112175908Y-136162517D01*
X112169501Y-136222116D01*
X112169500Y-136222135D01*
X104377628Y-136222135D01*
X104188382Y-136130999D01*
X103859692Y-136015985D01*
X103859684Y-136015982D01*
X103605048Y-135957863D01*
X103520171Y-135938491D01*
X103520167Y-135938490D01*
X103520158Y-135938489D01*
X103174124Y-135899500D01*
X103174120Y-135899500D01*
X102825880Y-135899500D01*
X102825875Y-135899500D01*
X102479841Y-135938489D01*
X102479829Y-135938491D01*
X102140315Y-136015982D01*
X102140307Y-136015985D01*
X101811617Y-136130999D01*
X101497869Y-136282092D01*
X101200057Y-136469221D01*
X101199142Y-136467765D01*
X101139388Y-136488170D01*
X101071556Y-136471417D01*
X101023550Y-136420651D01*
X101010000Y-136364287D01*
X101010000Y-126667648D01*
X105179500Y-126667648D01*
X105179500Y-126872351D01*
X105211522Y-127074534D01*
X105274781Y-127269223D01*
X105338691Y-127394653D01*
X105367585Y-127451359D01*
X105367715Y-127451613D01*
X105488028Y-127617213D01*
X105632786Y-127761971D01*
X105787749Y-127874556D01*
X105798390Y-127882287D01*
X105914607Y-127941503D01*
X105980776Y-127975218D01*
X105980778Y-127975218D01*
X105980781Y-127975220D01*
X106055507Y-127999500D01*
X106175465Y-128038477D01*
X106235155Y-128047931D01*
X106377648Y-128070500D01*
X106377649Y-128070500D01*
X106582351Y-128070500D01*
X106582352Y-128070500D01*
X106784534Y-128038477D01*
X106979219Y-127975220D01*
X107161610Y-127882287D01*
X107258258Y-127812069D01*
X107327213Y-127761971D01*
X107327215Y-127761968D01*
X107327219Y-127761966D01*
X107471966Y-127617219D01*
X107471968Y-127617215D01*
X107471971Y-127617213D01*
X107592284Y-127451614D01*
X107592286Y-127451611D01*
X107592287Y-127451610D01*
X107639516Y-127358917D01*
X107687489Y-127308123D01*
X107755310Y-127291328D01*
X107821445Y-127313865D01*
X107860485Y-127358919D01*
X107907715Y-127451614D01*
X108028028Y-127617213D01*
X108172786Y-127761971D01*
X108327749Y-127874556D01*
X108338390Y-127882287D01*
X108454607Y-127941503D01*
X108520776Y-127975218D01*
X108520778Y-127975218D01*
X108520781Y-127975220D01*
X108595507Y-127999500D01*
X108715465Y-128038477D01*
X108775155Y-128047931D01*
X108917648Y-128070500D01*
X108917649Y-128070500D01*
X109122351Y-128070500D01*
X109122352Y-128070500D01*
X109324534Y-128038477D01*
X109519219Y-127975220D01*
X109701610Y-127882287D01*
X109798258Y-127812069D01*
X109867213Y-127761971D01*
X109867215Y-127761968D01*
X109867219Y-127761966D01*
X110011966Y-127617219D01*
X110011968Y-127617215D01*
X110011971Y-127617213D01*
X110132284Y-127451614D01*
X110132286Y-127451611D01*
X110132287Y-127451610D01*
X110179516Y-127358917D01*
X110227489Y-127308123D01*
X110295310Y-127291328D01*
X110361445Y-127313865D01*
X110400485Y-127358919D01*
X110447715Y-127451614D01*
X110568028Y-127617213D01*
X110712786Y-127761971D01*
X110867749Y-127874556D01*
X110878390Y-127882287D01*
X110994607Y-127941503D01*
X111060776Y-127975218D01*
X111060778Y-127975218D01*
X111060781Y-127975220D01*
X111135507Y-127999500D01*
X111255465Y-128038477D01*
X111315155Y-128047931D01*
X111457648Y-128070500D01*
X111457649Y-128070500D01*
X111662351Y-128070500D01*
X111662352Y-128070500D01*
X111864534Y-128038477D01*
X112059219Y-127975220D01*
X112241610Y-127882287D01*
X112338258Y-127812069D01*
X112407213Y-127761971D01*
X112407215Y-127761968D01*
X112407219Y-127761966D01*
X112551966Y-127617219D01*
X112551968Y-127617215D01*
X112551971Y-127617213D01*
X112672286Y-127451611D01*
X112672415Y-127451359D01*
X112719795Y-127358369D01*
X112767769Y-127307573D01*
X112835590Y-127290778D01*
X112901725Y-127313315D01*
X112940765Y-127358369D01*
X112988141Y-127451350D01*
X112988147Y-127451359D01*
X113020523Y-127495921D01*
X113020524Y-127495922D01*
X113617037Y-126899409D01*
X113634075Y-126962993D01*
X113699901Y-127077007D01*
X113792993Y-127170099D01*
X113907007Y-127235925D01*
X113970590Y-127252962D01*
X113374076Y-127849474D01*
X113418650Y-127881859D01*
X113600968Y-127974755D01*
X113795582Y-128037990D01*
X113997683Y-128070000D01*
X114202317Y-128070000D01*
X114404417Y-128037990D01*
X114599031Y-127974755D01*
X114781349Y-127881859D01*
X114825921Y-127849474D01*
X114229409Y-127252962D01*
X114292993Y-127235925D01*
X114407007Y-127170099D01*
X114500099Y-127077007D01*
X114565925Y-126962993D01*
X114582962Y-126899409D01*
X115179474Y-127495921D01*
X115211861Y-127451347D01*
X115211861Y-127451346D01*
X115259234Y-127358371D01*
X115307208Y-127307575D01*
X115375028Y-127290779D01*
X115441164Y-127313316D01*
X115480203Y-127358369D01*
X115527713Y-127451611D01*
X115648028Y-127617213D01*
X115792786Y-127761971D01*
X115947749Y-127874556D01*
X115958390Y-127882287D01*
X116074607Y-127941503D01*
X116140776Y-127975218D01*
X116140778Y-127975218D01*
X116140781Y-127975220D01*
X116215507Y-127999500D01*
X116335465Y-128038477D01*
X116395155Y-128047931D01*
X116537648Y-128070500D01*
X116537649Y-128070500D01*
X116742351Y-128070500D01*
X116742352Y-128070500D01*
X116944534Y-128038477D01*
X117139219Y-127975220D01*
X117321610Y-127882287D01*
X117418258Y-127812069D01*
X117487213Y-127761971D01*
X117487215Y-127761968D01*
X117487219Y-127761966D01*
X117631966Y-127617219D01*
X117631968Y-127617215D01*
X117631971Y-127617213D01*
X117752284Y-127451614D01*
X117752286Y-127451611D01*
X117752287Y-127451610D01*
X117799516Y-127358917D01*
X117847489Y-127308123D01*
X117915310Y-127291328D01*
X117981445Y-127313865D01*
X118020485Y-127358919D01*
X118067715Y-127451614D01*
X118188028Y-127617213D01*
X118332786Y-127761971D01*
X118487749Y-127874556D01*
X118498390Y-127882287D01*
X118614607Y-127941503D01*
X118680776Y-127975218D01*
X118680778Y-127975218D01*
X118680781Y-127975220D01*
X118755507Y-127999500D01*
X118875465Y-128038477D01*
X118935155Y-128047931D01*
X119077648Y-128070500D01*
X119077649Y-128070500D01*
X119282351Y-128070500D01*
X119282352Y-128070500D01*
X119484534Y-128038477D01*
X119679219Y-127975220D01*
X119861610Y-127882287D01*
X119958258Y-127812069D01*
X120027213Y-127761971D01*
X120027215Y-127761968D01*
X120027219Y-127761966D01*
X120171966Y-127617219D01*
X120171968Y-127617215D01*
X120171971Y-127617213D01*
X120224732Y-127544590D01*
X120292287Y-127451610D01*
X120385220Y-127269219D01*
X120448477Y-127074534D01*
X120480500Y-126872352D01*
X120480500Y-126667648D01*
X120448477Y-126465466D01*
X120447673Y-126462993D01*
X120385218Y-126270776D01*
X120292420Y-126088652D01*
X120292287Y-126088390D01*
X120260092Y-126044077D01*
X120171971Y-125922786D01*
X120027213Y-125778028D01*
X119861613Y-125657715D01*
X119861612Y-125657714D01*
X119861610Y-125657713D01*
X119804653Y-125628691D01*
X119679223Y-125564781D01*
X119484534Y-125501522D01*
X119309995Y-125473878D01*
X119282352Y-125469500D01*
X119077648Y-125469500D01*
X119053329Y-125473351D01*
X118875465Y-125501522D01*
X118680776Y-125564781D01*
X118498386Y-125657715D01*
X118332786Y-125778028D01*
X118188028Y-125922786D01*
X118067715Y-126088386D01*
X118020485Y-126181080D01*
X117972510Y-126231876D01*
X117904689Y-126248671D01*
X117838554Y-126226134D01*
X117799515Y-126181080D01*
X117752420Y-126088652D01*
X117752287Y-126088390D01*
X117720092Y-126044077D01*
X117631971Y-125922786D01*
X117487213Y-125778028D01*
X117321613Y-125657715D01*
X117321612Y-125657714D01*
X117321610Y-125657713D01*
X117264653Y-125628691D01*
X117139223Y-125564781D01*
X116944534Y-125501522D01*
X116769995Y-125473878D01*
X116742352Y-125469500D01*
X116537648Y-125469500D01*
X116513329Y-125473351D01*
X116335465Y-125501522D01*
X116140776Y-125564781D01*
X115958386Y-125657715D01*
X115792786Y-125778028D01*
X115648028Y-125922786D01*
X115527713Y-126088388D01*
X115480203Y-126181630D01*
X115432228Y-126232426D01*
X115364407Y-126249220D01*
X115298272Y-126226682D01*
X115259234Y-126181628D01*
X115211861Y-126088652D01*
X115179474Y-126044077D01*
X115179474Y-126044076D01*
X114582962Y-126640589D01*
X114565925Y-126577007D01*
X114500099Y-126462993D01*
X114407007Y-126369901D01*
X114292993Y-126304075D01*
X114229408Y-126287037D01*
X114825922Y-125690524D01*
X114825921Y-125690523D01*
X114781359Y-125658147D01*
X114781350Y-125658141D01*
X114599031Y-125565244D01*
X114404417Y-125502009D01*
X114202317Y-125470000D01*
X113997683Y-125470000D01*
X113795582Y-125502009D01*
X113600968Y-125565244D01*
X113418644Y-125658143D01*
X113374077Y-125690523D01*
X113374077Y-125690524D01*
X113970591Y-126287037D01*
X113907007Y-126304075D01*
X113792993Y-126369901D01*
X113699901Y-126462993D01*
X113634075Y-126577007D01*
X113617037Y-126640590D01*
X113020524Y-126044077D01*
X113020523Y-126044077D01*
X112988143Y-126088644D01*
X112940765Y-126181630D01*
X112892790Y-126232426D01*
X112824969Y-126249221D01*
X112758834Y-126226683D01*
X112719795Y-126181630D01*
X112672284Y-126088385D01*
X112551971Y-125922786D01*
X112407213Y-125778028D01*
X112241613Y-125657715D01*
X112241612Y-125657714D01*
X112241610Y-125657713D01*
X112184653Y-125628691D01*
X112059223Y-125564781D01*
X111864534Y-125501522D01*
X111689995Y-125473878D01*
X111662352Y-125469500D01*
X111457648Y-125469500D01*
X111433329Y-125473351D01*
X111255465Y-125501522D01*
X111060776Y-125564781D01*
X110878386Y-125657715D01*
X110712786Y-125778028D01*
X110568028Y-125922786D01*
X110447715Y-126088386D01*
X110400485Y-126181080D01*
X110352510Y-126231876D01*
X110284689Y-126248671D01*
X110218554Y-126226134D01*
X110179515Y-126181080D01*
X110132420Y-126088652D01*
X110132287Y-126088390D01*
X110100092Y-126044077D01*
X110011971Y-125922786D01*
X109867213Y-125778028D01*
X109701613Y-125657715D01*
X109701612Y-125657714D01*
X109701610Y-125657713D01*
X109644653Y-125628691D01*
X109519223Y-125564781D01*
X109324534Y-125501522D01*
X109149995Y-125473878D01*
X109122352Y-125469500D01*
X108917648Y-125469500D01*
X108893329Y-125473351D01*
X108715465Y-125501522D01*
X108520776Y-125564781D01*
X108338386Y-125657715D01*
X108172786Y-125778028D01*
X108028028Y-125922786D01*
X107907715Y-126088386D01*
X107860485Y-126181080D01*
X107812510Y-126231876D01*
X107744689Y-126248671D01*
X107678554Y-126226134D01*
X107639515Y-126181080D01*
X107592420Y-126088652D01*
X107592287Y-126088390D01*
X107560092Y-126044077D01*
X107471971Y-125922786D01*
X107327213Y-125778028D01*
X107161613Y-125657715D01*
X107161612Y-125657714D01*
X107161610Y-125657713D01*
X107104653Y-125628691D01*
X106979223Y-125564781D01*
X106784534Y-125501522D01*
X106609995Y-125473878D01*
X106582352Y-125469500D01*
X106377648Y-125469500D01*
X106353329Y-125473351D01*
X106175465Y-125501522D01*
X105980776Y-125564781D01*
X105798386Y-125657715D01*
X105632786Y-125778028D01*
X105488028Y-125922786D01*
X105367715Y-126088386D01*
X105274781Y-126270776D01*
X105211522Y-126465465D01*
X105179500Y-126667648D01*
X101010000Y-126667648D01*
X101010000Y-113941153D01*
X119529500Y-113941153D01*
X119529500Y-114098846D01*
X119560261Y-114253489D01*
X119560264Y-114253501D01*
X119620602Y-114399172D01*
X119620609Y-114399185D01*
X119708210Y-114530288D01*
X119708213Y-114530292D01*
X119819707Y-114641786D01*
X119819711Y-114641789D01*
X119950814Y-114729390D01*
X119950827Y-114729397D01*
X120096498Y-114789735D01*
X120096503Y-114789737D01*
X120251153Y-114820499D01*
X120251156Y-114820500D01*
X120251158Y-114820500D01*
X120408844Y-114820500D01*
X120408845Y-114820499D01*
X120563497Y-114789737D01*
X120709179Y-114729394D01*
X120840289Y-114641789D01*
X120845464Y-114636614D01*
X120860260Y-114621819D01*
X120921583Y-114588334D01*
X120947941Y-114585500D01*
X126537372Y-114585500D01*
X126604411Y-114605185D01*
X126637687Y-114636611D01*
X126714310Y-114742073D01*
X126847927Y-114875690D01*
X127000801Y-114986760D01*
X127080347Y-115027290D01*
X127169163Y-115072545D01*
X127169165Y-115072545D01*
X127169168Y-115072547D01*
X127258734Y-115101649D01*
X127290803Y-115112069D01*
X127348478Y-115151507D01*
X127375676Y-115215866D01*
X127363761Y-115284712D01*
X127316516Y-115336188D01*
X127290803Y-115347931D01*
X127169163Y-115387454D01*
X127000800Y-115473240D01*
X126913579Y-115536610D01*
X126847927Y-115584310D01*
X126847925Y-115584312D01*
X126847924Y-115584312D01*
X126714312Y-115717924D01*
X126714312Y-115717925D01*
X126714310Y-115717927D01*
X126666610Y-115783579D01*
X126603240Y-115870800D01*
X126517454Y-116039163D01*
X126459059Y-116218881D01*
X126429500Y-116405513D01*
X126429500Y-116594486D01*
X126459059Y-116781118D01*
X126517454Y-116960836D01*
X126603240Y-117129199D01*
X126714310Y-117282073D01*
X126847927Y-117415690D01*
X127000801Y-117526760D01*
X127169168Y-117612547D01*
X127291612Y-117652331D01*
X127349287Y-117691769D01*
X127376485Y-117756127D01*
X127364570Y-117824974D01*
X127317326Y-117876449D01*
X127291612Y-117888193D01*
X127169361Y-117927915D01*
X127001060Y-118013669D01*
X126975670Y-118032116D01*
X126975669Y-118032116D01*
X127583554Y-118640000D01*
X127577339Y-118640000D01*
X127475606Y-118667259D01*
X127384394Y-118719920D01*
X127309920Y-118794394D01*
X127257259Y-118885606D01*
X127230000Y-118987339D01*
X127230000Y-118993553D01*
X126622116Y-118385669D01*
X126622116Y-118385670D01*
X126603669Y-118411060D01*
X126517914Y-118579362D01*
X126459548Y-118758997D01*
X126430000Y-118945552D01*
X126430000Y-119134447D01*
X126459548Y-119321002D01*
X126517914Y-119500637D01*
X126603666Y-119668933D01*
X126622116Y-119694328D01*
X127230000Y-119086445D01*
X127230000Y-119092661D01*
X127257259Y-119194394D01*
X127309920Y-119285606D01*
X127384394Y-119360080D01*
X127475606Y-119412741D01*
X127577339Y-119440000D01*
X127583554Y-119440000D01*
X126975669Y-120047882D01*
X126975670Y-120047883D01*
X127001059Y-120066329D01*
X127169362Y-120152085D01*
X127291611Y-120191806D01*
X127349286Y-120231243D01*
X127376485Y-120295602D01*
X127364571Y-120364448D01*
X127317327Y-120415924D01*
X127291612Y-120427668D01*
X127169163Y-120467454D01*
X127000800Y-120553240D01*
X126913579Y-120616610D01*
X126847927Y-120664310D01*
X126847925Y-120664312D01*
X126847924Y-120664312D01*
X126714312Y-120797924D01*
X126714312Y-120797925D01*
X126714310Y-120797927D01*
X126666610Y-120863579D01*
X126603240Y-120950800D01*
X126517454Y-121119163D01*
X126459059Y-121298881D01*
X126429500Y-121485513D01*
X126429500Y-121674486D01*
X126459059Y-121861118D01*
X126517454Y-122040836D01*
X126603240Y-122209199D01*
X126714310Y-122362073D01*
X126847927Y-122495690D01*
X127000801Y-122606760D01*
X127080347Y-122647290D01*
X127169163Y-122692545D01*
X127169165Y-122692545D01*
X127169168Y-122692547D01*
X127258734Y-122721649D01*
X127290803Y-122732069D01*
X127348478Y-122771507D01*
X127375676Y-122835866D01*
X127363761Y-122904712D01*
X127316516Y-122956188D01*
X127290803Y-122967931D01*
X127169163Y-123007454D01*
X127000800Y-123093240D01*
X126913579Y-123156610D01*
X126847927Y-123204310D01*
X126847925Y-123204312D01*
X126847924Y-123204312D01*
X126714312Y-123337924D01*
X126714312Y-123337925D01*
X126714310Y-123337927D01*
X126666610Y-123403579D01*
X126603240Y-123490800D01*
X126517454Y-123659163D01*
X126459059Y-123838881D01*
X126429500Y-124025513D01*
X126429500Y-124214486D01*
X126459059Y-124401118D01*
X126517454Y-124580836D01*
X126603240Y-124749199D01*
X126714310Y-124902073D01*
X126847927Y-125035690D01*
X127000801Y-125146760D01*
X127080347Y-125187290D01*
X127169163Y-125232545D01*
X127169165Y-125232545D01*
X127169168Y-125232547D01*
X127258734Y-125261649D01*
X127290803Y-125272069D01*
X127348478Y-125311507D01*
X127375676Y-125375866D01*
X127363761Y-125444712D01*
X127316516Y-125496188D01*
X127290803Y-125507931D01*
X127169163Y-125547454D01*
X127000800Y-125633240D01*
X126921958Y-125690523D01*
X126847927Y-125744310D01*
X126847925Y-125744312D01*
X126847924Y-125744312D01*
X126714312Y-125877924D01*
X126714312Y-125877925D01*
X126714310Y-125877927D01*
X126681722Y-125922781D01*
X126603240Y-126030800D01*
X126517454Y-126199163D01*
X126459059Y-126378881D01*
X126429500Y-126565513D01*
X126429500Y-126754486D01*
X126459059Y-126941118D01*
X126517454Y-127120836D01*
X126593060Y-127269219D01*
X126603240Y-127289199D01*
X126714310Y-127442073D01*
X126847927Y-127575690D01*
X127000801Y-127686760D01*
X127055311Y-127714534D01*
X127169163Y-127772545D01*
X127169165Y-127772545D01*
X127169168Y-127772547D01*
X127258734Y-127801649D01*
X127290803Y-127812069D01*
X127348478Y-127851507D01*
X127375676Y-127915866D01*
X127363761Y-127984712D01*
X127316516Y-128036188D01*
X127290803Y-128047931D01*
X127169163Y-128087454D01*
X127000800Y-128173240D01*
X126913579Y-128236610D01*
X126847927Y-128284310D01*
X126847925Y-128284312D01*
X126847924Y-128284312D01*
X126714312Y-128417924D01*
X126714312Y-128417925D01*
X126714310Y-128417927D01*
X126666610Y-128483579D01*
X126603240Y-128570800D01*
X126517454Y-128739163D01*
X126459059Y-128918881D01*
X126429500Y-129105513D01*
X126429500Y-129294486D01*
X126459059Y-129481118D01*
X126517454Y-129660836D01*
X126603240Y-129829199D01*
X126714310Y-129982073D01*
X126847927Y-130115690D01*
X127000801Y-130226760D01*
X127080347Y-130267290D01*
X127169163Y-130312545D01*
X127169165Y-130312545D01*
X127169168Y-130312547D01*
X127265497Y-130343846D01*
X127348881Y-130370940D01*
X127535514Y-130400500D01*
X127535519Y-130400500D01*
X127724486Y-130400500D01*
X127911118Y-130370940D01*
X128090832Y-130312547D01*
X128259199Y-130226760D01*
X128412073Y-130115690D01*
X128545690Y-129982073D01*
X128656760Y-129829199D01*
X128742547Y-129660832D01*
X128800940Y-129481118D01*
X128830500Y-129294486D01*
X128830500Y-129105513D01*
X128800940Y-128918881D01*
X128742545Y-128739163D01*
X128656759Y-128570800D01*
X128545690Y-128417927D01*
X128412073Y-128284310D01*
X128259199Y-128173240D01*
X128090836Y-128087454D01*
X128016472Y-128063291D01*
X127969195Y-128047930D01*
X127911521Y-128008493D01*
X127884323Y-127944134D01*
X127896238Y-127875288D01*
X127943482Y-127823812D01*
X127969194Y-127812069D01*
X128090832Y-127772547D01*
X128259199Y-127686760D01*
X128412073Y-127575690D01*
X128545690Y-127442073D01*
X128656760Y-127289199D01*
X128742547Y-127120832D01*
X128800940Y-126941118D01*
X128830500Y-126754486D01*
X128830500Y-126565513D01*
X139129500Y-126565513D01*
X139129500Y-126754486D01*
X139159059Y-126941118D01*
X139217454Y-127120836D01*
X139293060Y-127269219D01*
X139303240Y-127289199D01*
X139414310Y-127442073D01*
X139547927Y-127575690D01*
X139700801Y-127686760D01*
X139755311Y-127714534D01*
X139869163Y-127772545D01*
X139869165Y-127772545D01*
X139869168Y-127772547D01*
X139965497Y-127803846D01*
X140048881Y-127830940D01*
X140235514Y-127860500D01*
X140235519Y-127860500D01*
X140424486Y-127860500D01*
X140611118Y-127830940D01*
X140790832Y-127772547D01*
X140959199Y-127686760D01*
X141112073Y-127575690D01*
X141245690Y-127442073D01*
X141356760Y-127289199D01*
X141442547Y-127120832D01*
X141500940Y-126941118D01*
X141530500Y-126754486D01*
X141530500Y-126565513D01*
X141500940Y-126378881D01*
X141458810Y-126249220D01*
X141442547Y-126199168D01*
X141442545Y-126199165D01*
X141442545Y-126199163D01*
X141356759Y-126030800D01*
X141245690Y-125877927D01*
X141112073Y-125744310D01*
X140959199Y-125633240D01*
X140790836Y-125547454D01*
X140611118Y-125489059D01*
X140424486Y-125459500D01*
X140424481Y-125459500D01*
X140235519Y-125459500D01*
X140235514Y-125459500D01*
X140048881Y-125489059D01*
X139869163Y-125547454D01*
X139700800Y-125633240D01*
X139621958Y-125690523D01*
X139547927Y-125744310D01*
X139547925Y-125744312D01*
X139547924Y-125744312D01*
X139414312Y-125877924D01*
X139414312Y-125877925D01*
X139414310Y-125877927D01*
X139381722Y-125922781D01*
X139303240Y-126030800D01*
X139217454Y-126199163D01*
X139159059Y-126378881D01*
X139129500Y-126565513D01*
X128830500Y-126565513D01*
X128800940Y-126378881D01*
X128758810Y-126249220D01*
X128742547Y-126199168D01*
X128742545Y-126199165D01*
X128742545Y-126199163D01*
X128656759Y-126030800D01*
X128545690Y-125877927D01*
X128412073Y-125744310D01*
X128259199Y-125633240D01*
X128090836Y-125547454D01*
X128016472Y-125523291D01*
X127969195Y-125507930D01*
X127911521Y-125468493D01*
X127884323Y-125404134D01*
X127896238Y-125335288D01*
X127943482Y-125283812D01*
X127969194Y-125272069D01*
X128090832Y-125232547D01*
X128259199Y-125146760D01*
X128412073Y-125035690D01*
X128545690Y-124902073D01*
X128656760Y-124749199D01*
X128742547Y-124580832D01*
X128800940Y-124401118D01*
X128830500Y-124214486D01*
X128830500Y-124025513D01*
X128800940Y-123838881D01*
X128742545Y-123659163D01*
X128656759Y-123490800D01*
X128545690Y-123337927D01*
X128412073Y-123204310D01*
X128259199Y-123093240D01*
X128090836Y-123007454D01*
X128016472Y-122983291D01*
X127969195Y-122967930D01*
X127911521Y-122928493D01*
X127884323Y-122864134D01*
X127896238Y-122795288D01*
X127943482Y-122743812D01*
X127969194Y-122732069D01*
X128090832Y-122692547D01*
X128259199Y-122606760D01*
X128412073Y-122495690D01*
X128545690Y-122362073D01*
X128656760Y-122209199D01*
X128742547Y-122040832D01*
X128800940Y-121861118D01*
X128830500Y-121674486D01*
X128830500Y-121485513D01*
X128800940Y-121298881D01*
X128742545Y-121119163D01*
X128656759Y-120950800D01*
X128545690Y-120797927D01*
X128412073Y-120664310D01*
X128259199Y-120553240D01*
X128090836Y-120467454D01*
X127968387Y-120427668D01*
X127910712Y-120388230D01*
X127883514Y-120323871D01*
X127895429Y-120255025D01*
X127942673Y-120203549D01*
X127968389Y-120191806D01*
X128090635Y-120152086D01*
X128258937Y-120066331D01*
X128284328Y-120047883D01*
X128284328Y-120047882D01*
X127676447Y-119440000D01*
X127682661Y-119440000D01*
X127784394Y-119412741D01*
X127875606Y-119360080D01*
X127950080Y-119285606D01*
X128002741Y-119194394D01*
X128030000Y-119092661D01*
X128030000Y-119086446D01*
X128637882Y-119694328D01*
X128637883Y-119694328D01*
X128656331Y-119668937D01*
X128742085Y-119500637D01*
X128800451Y-119321002D01*
X128830000Y-119134447D01*
X128830000Y-118945552D01*
X128800451Y-118758997D01*
X128742085Y-118579362D01*
X128656329Y-118411059D01*
X128637883Y-118385670D01*
X128637882Y-118385669D01*
X128030000Y-118993552D01*
X128030000Y-118987339D01*
X128002741Y-118885606D01*
X127950080Y-118794394D01*
X127875606Y-118719920D01*
X127784394Y-118667259D01*
X127682661Y-118640000D01*
X127676447Y-118640000D01*
X128284328Y-118032116D01*
X128258933Y-118013666D01*
X128090637Y-117927914D01*
X127968388Y-117888193D01*
X127910712Y-117848755D01*
X127883514Y-117784397D01*
X127895429Y-117715550D01*
X127942673Y-117664075D01*
X127968382Y-117652333D01*
X128090832Y-117612547D01*
X128259199Y-117526760D01*
X128412073Y-117415690D01*
X128545690Y-117282073D01*
X128656760Y-117129199D01*
X128742547Y-116960832D01*
X128800940Y-116781118D01*
X128830500Y-116594486D01*
X128830500Y-116405513D01*
X128800940Y-116218881D01*
X128742545Y-116039163D01*
X128656759Y-115870800D01*
X128545690Y-115717927D01*
X128412073Y-115584310D01*
X128259199Y-115473240D01*
X128090836Y-115387454D01*
X128016472Y-115363291D01*
X127969195Y-115347930D01*
X127911521Y-115308493D01*
X127884323Y-115244134D01*
X127896238Y-115175288D01*
X127943482Y-115123812D01*
X127969194Y-115112069D01*
X128090832Y-115072547D01*
X128259199Y-114986760D01*
X128412073Y-114875690D01*
X128545690Y-114742073D01*
X128656760Y-114589199D01*
X128742547Y-114420832D01*
X128800940Y-114241118D01*
X128830500Y-114054486D01*
X128830500Y-113865513D01*
X128800940Y-113678881D01*
X128773846Y-113595497D01*
X128742547Y-113499168D01*
X128742545Y-113499165D01*
X128742545Y-113499163D01*
X128691106Y-113398210D01*
X128656760Y-113330801D01*
X128545690Y-113177927D01*
X128412073Y-113044310D01*
X128259199Y-112933240D01*
X128090836Y-112847454D01*
X128016472Y-112823291D01*
X127969195Y-112807930D01*
X127911521Y-112768493D01*
X127884323Y-112704134D01*
X127896238Y-112635288D01*
X127943482Y-112583812D01*
X127969194Y-112572069D01*
X128090832Y-112532547D01*
X128259199Y-112446760D01*
X128412073Y-112335690D01*
X128545690Y-112202073D01*
X128656760Y-112049199D01*
X128742547Y-111880832D01*
X128800940Y-111701118D01*
X128830500Y-111514486D01*
X128830500Y-111325513D01*
X128800940Y-111138881D01*
X128742545Y-110959163D01*
X128656759Y-110790800D01*
X128545690Y-110637927D01*
X128412073Y-110504310D01*
X128259199Y-110393240D01*
X128090836Y-110307454D01*
X128016472Y-110283291D01*
X127969195Y-110267930D01*
X127911521Y-110228493D01*
X127884323Y-110164134D01*
X127896238Y-110095288D01*
X127943482Y-110043812D01*
X127969194Y-110032069D01*
X128090832Y-109992547D01*
X128259199Y-109906760D01*
X128412073Y-109795690D01*
X128545690Y-109662073D01*
X128656760Y-109509199D01*
X128742547Y-109340832D01*
X128800940Y-109161118D01*
X128830500Y-108974486D01*
X128830500Y-108785513D01*
X139129500Y-108785513D01*
X139129500Y-108974486D01*
X139159059Y-109161118D01*
X139217454Y-109340836D01*
X139280632Y-109464829D01*
X139303240Y-109509199D01*
X139414310Y-109662073D01*
X139547927Y-109795690D01*
X139700801Y-109906760D01*
X139780347Y-109947290D01*
X139869163Y-109992545D01*
X139869165Y-109992545D01*
X139869168Y-109992547D01*
X139965497Y-110023846D01*
X140048881Y-110050940D01*
X140235514Y-110080500D01*
X140235519Y-110080500D01*
X140424486Y-110080500D01*
X140611118Y-110050940D01*
X140790832Y-109992547D01*
X140959199Y-109906760D01*
X141112073Y-109795690D01*
X141245690Y-109662073D01*
X141356760Y-109509199D01*
X141442547Y-109340832D01*
X141500940Y-109161118D01*
X141530500Y-108974486D01*
X141530500Y-108785513D01*
X141500940Y-108598881D01*
X141442545Y-108419163D01*
X141371784Y-108280288D01*
X141356760Y-108250801D01*
X141245690Y-108097927D01*
X141112073Y-107964310D01*
X140959199Y-107853240D01*
X140950575Y-107848846D01*
X140790836Y-107767454D01*
X140611118Y-107709059D01*
X140424486Y-107679500D01*
X140424481Y-107679500D01*
X140235519Y-107679500D01*
X140235514Y-107679500D01*
X140048881Y-107709059D01*
X139869163Y-107767454D01*
X139700800Y-107853240D01*
X139613579Y-107916610D01*
X139547927Y-107964310D01*
X139547925Y-107964312D01*
X139547924Y-107964312D01*
X139414312Y-108097924D01*
X139414312Y-108097925D01*
X139414310Y-108097927D01*
X139377078Y-108149172D01*
X139303240Y-108250800D01*
X139217454Y-108419163D01*
X139159059Y-108598881D01*
X139129500Y-108785513D01*
X128830500Y-108785513D01*
X128800940Y-108598881D01*
X128742545Y-108419163D01*
X128671784Y-108280288D01*
X128656760Y-108250801D01*
X128545690Y-108097927D01*
X128412073Y-107964310D01*
X128259199Y-107853240D01*
X128250575Y-107848846D01*
X128090836Y-107767454D01*
X128016472Y-107743291D01*
X127969195Y-107727930D01*
X127911521Y-107688493D01*
X127884323Y-107624134D01*
X127896238Y-107555288D01*
X127943482Y-107503812D01*
X127969194Y-107492069D01*
X128090832Y-107452547D01*
X128259199Y-107366760D01*
X128412073Y-107255690D01*
X128545690Y-107122073D01*
X128656760Y-106969199D01*
X128742547Y-106800832D01*
X128800940Y-106621118D01*
X128830500Y-106434486D01*
X128830500Y-106245513D01*
X128800940Y-106058881D01*
X128742545Y-105879163D01*
X128656759Y-105710800D01*
X128545690Y-105557927D01*
X128412073Y-105424310D01*
X128259199Y-105313240D01*
X128090836Y-105227454D01*
X127911118Y-105169059D01*
X127724486Y-105139500D01*
X127724481Y-105139500D01*
X127535519Y-105139500D01*
X127535514Y-105139500D01*
X127348881Y-105169059D01*
X127169163Y-105227454D01*
X127000800Y-105313240D01*
X126913579Y-105376610D01*
X126847927Y-105424310D01*
X126847925Y-105424312D01*
X126847924Y-105424312D01*
X126714312Y-105557924D01*
X126714312Y-105557925D01*
X126714310Y-105557927D01*
X126666610Y-105623579D01*
X126603240Y-105710800D01*
X126517454Y-105879163D01*
X126459059Y-106058881D01*
X126429500Y-106245513D01*
X126429500Y-106434486D01*
X126459059Y-106621118D01*
X126517454Y-106800836D01*
X126603240Y-106969199D01*
X126714310Y-107122073D01*
X126847927Y-107255690D01*
X127000801Y-107366760D01*
X127080347Y-107407290D01*
X127169163Y-107452545D01*
X127169165Y-107452545D01*
X127169168Y-107452547D01*
X127258734Y-107481649D01*
X127290803Y-107492069D01*
X127348478Y-107531507D01*
X127375676Y-107595866D01*
X127363761Y-107664712D01*
X127316516Y-107716188D01*
X127290803Y-107727931D01*
X127169163Y-107767454D01*
X127000800Y-107853240D01*
X126913579Y-107916610D01*
X126847927Y-107964310D01*
X126847925Y-107964312D01*
X126847924Y-107964312D01*
X126714312Y-108097924D01*
X126714310Y-108097927D01*
X126637688Y-108203387D01*
X126582360Y-108246051D01*
X126537372Y-108254500D01*
X123250452Y-108254500D01*
X123183413Y-108234815D01*
X123162771Y-108218181D01*
X122655793Y-107711203D01*
X122622308Y-107649880D01*
X122621887Y-107647864D01*
X122599737Y-107536503D01*
X122564961Y-107452545D01*
X122539397Y-107390827D01*
X122539390Y-107390814D01*
X122451789Y-107259711D01*
X122451786Y-107259707D01*
X122340292Y-107148213D01*
X122340288Y-107148210D01*
X122209185Y-107060609D01*
X122209172Y-107060602D01*
X122063501Y-107000264D01*
X122063489Y-107000261D01*
X121908845Y-106969500D01*
X121908842Y-106969500D01*
X121751158Y-106969500D01*
X121751155Y-106969500D01*
X121596510Y-107000261D01*
X121596498Y-107000264D01*
X121450827Y-107060602D01*
X121450814Y-107060609D01*
X121319711Y-107148210D01*
X121319707Y-107148213D01*
X121208213Y-107259707D01*
X121208210Y-107259711D01*
X121120609Y-107390814D01*
X121120602Y-107390827D01*
X121060264Y-107536498D01*
X121060261Y-107536510D01*
X121029500Y-107691153D01*
X121029500Y-107848846D01*
X121060261Y-108003489D01*
X121060264Y-108003501D01*
X121120602Y-108149172D01*
X121120609Y-108149185D01*
X121208210Y-108280288D01*
X121208213Y-108280292D01*
X121319707Y-108391786D01*
X121319711Y-108391789D01*
X121450814Y-108479390D01*
X121450827Y-108479397D01*
X121538230Y-108515599D01*
X121596503Y-108539737D01*
X121707716Y-108561858D01*
X121769623Y-108594241D01*
X121771203Y-108595793D01*
X122454139Y-109278729D01*
X122454142Y-109278733D01*
X122541267Y-109365858D01*
X122592490Y-109400084D01*
X122643714Y-109434312D01*
X122643715Y-109434312D01*
X122643716Y-109434313D01*
X122717390Y-109464829D01*
X122717394Y-109464830D01*
X122724207Y-109467652D01*
X122757548Y-109481463D01*
X122817971Y-109493481D01*
X122878393Y-109505500D01*
X122878394Y-109505500D01*
X126537372Y-109505500D01*
X126604411Y-109525185D01*
X126637687Y-109556611D01*
X126714310Y-109662073D01*
X126847927Y-109795690D01*
X127000801Y-109906760D01*
X127080347Y-109947290D01*
X127169163Y-109992545D01*
X127169165Y-109992545D01*
X127169168Y-109992547D01*
X127258734Y-110021649D01*
X127290803Y-110032069D01*
X127348478Y-110071507D01*
X127375676Y-110135866D01*
X127363761Y-110204712D01*
X127316516Y-110256188D01*
X127290803Y-110267931D01*
X127169163Y-110307454D01*
X127000800Y-110393240D01*
X126913579Y-110456610D01*
X126847927Y-110504310D01*
X126847925Y-110504312D01*
X126847924Y-110504312D01*
X126714312Y-110637924D01*
X126714312Y-110637925D01*
X126714310Y-110637927D01*
X126666610Y-110703579D01*
X126603240Y-110790800D01*
X126517454Y-110959163D01*
X126459059Y-111138881D01*
X126429500Y-111325513D01*
X126429500Y-111514486D01*
X126459059Y-111701118D01*
X126517454Y-111880836D01*
X126603240Y-112049199D01*
X126714310Y-112202073D01*
X126847927Y-112335690D01*
X127000801Y-112446760D01*
X127080347Y-112487290D01*
X127169163Y-112532545D01*
X127169165Y-112532545D01*
X127169168Y-112532547D01*
X127258734Y-112561649D01*
X127290803Y-112572069D01*
X127348478Y-112611507D01*
X127375676Y-112675866D01*
X127363761Y-112744712D01*
X127316516Y-112796188D01*
X127290803Y-112807931D01*
X127169163Y-112847454D01*
X127000800Y-112933240D01*
X126913579Y-112996610D01*
X126847927Y-113044310D01*
X126847925Y-113044312D01*
X126847924Y-113044312D01*
X126714312Y-113177924D01*
X126714310Y-113177927D01*
X126637688Y-113283387D01*
X126582360Y-113326051D01*
X126537372Y-113334500D01*
X120782554Y-113334500D01*
X120715515Y-113314815D01*
X120713664Y-113313603D01*
X120709179Y-113310606D01*
X120709176Y-113310604D01*
X120709175Y-113310604D01*
X120563501Y-113250264D01*
X120563489Y-113250261D01*
X120408845Y-113219500D01*
X120408842Y-113219500D01*
X120251158Y-113219500D01*
X120251155Y-113219500D01*
X120096510Y-113250261D01*
X120096498Y-113250264D01*
X119950827Y-113310602D01*
X119950814Y-113310609D01*
X119819711Y-113398210D01*
X119819707Y-113398213D01*
X119708213Y-113509707D01*
X119708210Y-113509711D01*
X119620609Y-113640814D01*
X119620602Y-113640827D01*
X119560264Y-113786498D01*
X119560261Y-113786510D01*
X119529500Y-113941153D01*
X101010000Y-113941153D01*
X101010000Y-103691153D01*
X122529500Y-103691153D01*
X122529500Y-103848846D01*
X122560261Y-104003489D01*
X122560264Y-104003501D01*
X122620602Y-104149172D01*
X122620609Y-104149185D01*
X122708210Y-104280288D01*
X122708213Y-104280292D01*
X122819707Y-104391786D01*
X122819711Y-104391789D01*
X122950814Y-104479390D01*
X122950827Y-104479397D01*
X123096498Y-104539735D01*
X123096503Y-104539737D01*
X123251153Y-104570499D01*
X123251156Y-104570500D01*
X123251158Y-104570500D01*
X123408844Y-104570500D01*
X123408845Y-104570499D01*
X123563497Y-104539737D01*
X123709179Y-104479394D01*
X123840289Y-104391789D01*
X123951789Y-104280289D01*
X124039394Y-104149179D01*
X124099737Y-104003497D01*
X124130500Y-103848842D01*
X124130500Y-103691158D01*
X124128985Y-103683541D01*
X124129692Y-103675632D01*
X124126918Y-103668193D01*
X124132762Y-103641328D01*
X124135212Y-103613949D01*
X124140460Y-103605940D01*
X124141770Y-103599920D01*
X124162914Y-103571674D01*
X124302772Y-103431816D01*
X124364095Y-103398334D01*
X124390452Y-103395500D01*
X125787650Y-103395500D01*
X125854689Y-103415185D01*
X125856541Y-103416398D01*
X125950821Y-103479394D01*
X125950823Y-103479395D01*
X125950827Y-103479397D01*
X126088683Y-103536498D01*
X126096503Y-103539737D01*
X126251153Y-103570499D01*
X126251156Y-103570500D01*
X126251158Y-103570500D01*
X126408844Y-103570500D01*
X126408845Y-103570499D01*
X126563497Y-103539737D01*
X126709179Y-103479394D01*
X126840289Y-103391789D01*
X126951789Y-103280289D01*
X127039394Y-103149179D01*
X127039822Y-103148147D01*
X127053067Y-103116166D01*
X127099737Y-103003497D01*
X127130500Y-102848842D01*
X127130500Y-102691158D01*
X127130500Y-102691155D01*
X127130499Y-102691153D01*
X127099738Y-102536510D01*
X127099737Y-102536503D01*
X127099735Y-102536498D01*
X127039397Y-102390827D01*
X127039390Y-102390814D01*
X126951789Y-102259711D01*
X126951786Y-102259707D01*
X126840292Y-102148213D01*
X126840288Y-102148210D01*
X126709185Y-102060609D01*
X126709172Y-102060602D01*
X126563501Y-102000264D01*
X126563489Y-102000261D01*
X126408845Y-101969500D01*
X126408842Y-101969500D01*
X126251158Y-101969500D01*
X126251155Y-101969500D01*
X126096510Y-102000261D01*
X126096498Y-102000264D01*
X125950827Y-102060602D01*
X125950815Y-102060609D01*
X125856541Y-102123602D01*
X125789864Y-102144480D01*
X125787650Y-102144500D01*
X124018389Y-102144500D01*
X123957971Y-102156518D01*
X123914743Y-102165116D01*
X123897546Y-102168537D01*
X123783716Y-102215687D01*
X123783707Y-102215692D01*
X123681268Y-102284140D01*
X123637705Y-102327703D01*
X123594142Y-102371267D01*
X122931965Y-103033443D01*
X122931934Y-103033474D01*
X122931270Y-103034139D01*
X122931267Y-103034142D01*
X122844142Y-103121267D01*
X122837939Y-103130549D01*
X122830141Y-103138603D01*
X122826608Y-103140606D01*
X122823808Y-103143695D01*
X122824017Y-103143904D01*
X122819773Y-103148147D01*
X122819735Y-103148190D01*
X122819712Y-103148208D01*
X122708213Y-103259707D01*
X122708210Y-103259711D01*
X122620609Y-103390814D01*
X122620602Y-103390827D01*
X122560264Y-103536498D01*
X122560261Y-103536510D01*
X122529500Y-103691153D01*
X101010000Y-103691153D01*
X101010000Y-84691153D01*
X120029500Y-84691153D01*
X120029500Y-84848846D01*
X120060261Y-85003489D01*
X120060264Y-85003501D01*
X120120602Y-85149172D01*
X120120609Y-85149185D01*
X120208210Y-85280288D01*
X120208213Y-85280292D01*
X120319707Y-85391786D01*
X120319710Y-85391788D01*
X120319711Y-85391789D01*
X120345219Y-85408833D01*
X120357289Y-85416898D01*
X120402093Y-85470511D01*
X120410800Y-85539836D01*
X120380645Y-85602863D01*
X120357289Y-85623102D01*
X120319707Y-85648213D01*
X120208213Y-85759707D01*
X120208210Y-85759711D01*
X120120609Y-85890814D01*
X120120602Y-85890827D01*
X120060264Y-86036498D01*
X120060261Y-86036510D01*
X120029500Y-86191153D01*
X120029500Y-86348846D01*
X120060261Y-86503489D01*
X120060264Y-86503501D01*
X120120602Y-86649172D01*
X120120609Y-86649185D01*
X120208210Y-86780288D01*
X120208213Y-86780292D01*
X120319707Y-86891786D01*
X120319711Y-86891789D01*
X120450814Y-86979390D01*
X120450827Y-86979397D01*
X120596498Y-87039735D01*
X120596503Y-87039737D01*
X120751153Y-87070499D01*
X120751156Y-87070500D01*
X120751158Y-87070500D01*
X120908844Y-87070500D01*
X120908845Y-87070499D01*
X121063497Y-87039737D01*
X121209179Y-86979394D01*
X121303459Y-86916398D01*
X121370136Y-86895520D01*
X121372350Y-86895500D01*
X123537650Y-86895500D01*
X123604689Y-86915185D01*
X123606541Y-86916398D01*
X123700821Y-86979394D01*
X123700823Y-86979395D01*
X123700827Y-86979397D01*
X123846498Y-87039735D01*
X123846503Y-87039737D01*
X124001153Y-87070499D01*
X124001156Y-87070500D01*
X124001158Y-87070500D01*
X124158844Y-87070500D01*
X124158845Y-87070499D01*
X124313497Y-87039737D01*
X124459179Y-86979394D01*
X124590289Y-86891789D01*
X124701789Y-86780289D01*
X124789394Y-86649179D01*
X124849737Y-86503497D01*
X124880500Y-86348842D01*
X124880500Y-86191158D01*
X124880500Y-86191155D01*
X124880499Y-86191153D01*
X124849738Y-86036510D01*
X124849737Y-86036503D01*
X124849735Y-86036498D01*
X124789397Y-85890827D01*
X124789390Y-85890814D01*
X124701789Y-85759711D01*
X124701786Y-85759707D01*
X124590292Y-85648213D01*
X124590284Y-85648207D01*
X124552712Y-85623102D01*
X124507906Y-85569490D01*
X124499199Y-85500165D01*
X124529353Y-85437138D01*
X124552712Y-85416898D01*
X124579279Y-85399145D01*
X124590289Y-85391789D01*
X124701789Y-85280289D01*
X124789394Y-85149179D01*
X124849737Y-85003497D01*
X124880500Y-84848842D01*
X124880500Y-84691158D01*
X124880500Y-84691155D01*
X124880499Y-84691153D01*
X124849738Y-84536510D01*
X124849737Y-84536503D01*
X124849735Y-84536498D01*
X124789397Y-84390827D01*
X124789390Y-84390814D01*
X124701789Y-84259711D01*
X124701786Y-84259707D01*
X124590292Y-84148213D01*
X124590288Y-84148210D01*
X124459185Y-84060609D01*
X124459172Y-84060602D01*
X124313501Y-84000264D01*
X124313489Y-84000261D01*
X124158845Y-83969500D01*
X124158842Y-83969500D01*
X124001158Y-83969500D01*
X124001155Y-83969500D01*
X123846510Y-84000261D01*
X123846498Y-84000264D01*
X123700827Y-84060602D01*
X123700815Y-84060609D01*
X123606541Y-84123602D01*
X123539864Y-84144480D01*
X123537650Y-84144500D01*
X121372350Y-84144500D01*
X121305311Y-84124815D01*
X121303459Y-84123602D01*
X121209184Y-84060609D01*
X121209172Y-84060602D01*
X121063501Y-84000264D01*
X121063489Y-84000261D01*
X120908845Y-83969500D01*
X120908842Y-83969500D01*
X120751158Y-83969500D01*
X120751155Y-83969500D01*
X120596510Y-84000261D01*
X120596498Y-84000264D01*
X120450827Y-84060602D01*
X120450814Y-84060609D01*
X120319711Y-84148210D01*
X120319707Y-84148213D01*
X120208213Y-84259707D01*
X120208210Y-84259711D01*
X120120609Y-84390814D01*
X120120602Y-84390827D01*
X120060264Y-84536498D01*
X120060261Y-84536510D01*
X120029500Y-84691153D01*
X101010000Y-84691153D01*
X101010000Y-75635712D01*
X101029685Y-75568673D01*
X101082489Y-75522918D01*
X101151647Y-75512974D01*
X101199215Y-75532118D01*
X101200057Y-75530779D01*
X101203000Y-75532628D01*
X101203003Y-75532630D01*
X101497867Y-75717906D01*
X101811621Y-75869002D01*
X102058488Y-75955384D01*
X102140307Y-75984014D01*
X102140315Y-75984017D01*
X102140318Y-75984017D01*
X102140319Y-75984018D01*
X102479829Y-76061509D01*
X102825876Y-76100499D01*
X102825877Y-76100500D01*
X102825880Y-76100500D01*
X103174123Y-76100500D01*
X103174123Y-76100499D01*
X103520171Y-76061509D01*
X103859681Y-75984018D01*
X104188379Y-75869002D01*
X104502133Y-75717906D01*
X104796997Y-75532630D01*
X104809176Y-75522918D01*
X105069256Y-75315512D01*
X105069258Y-75315509D01*
X105069263Y-75315506D01*
X105315506Y-75069263D01*
X105394666Y-74970000D01*
X105532627Y-74797001D01*
X105532628Y-74796999D01*
X105532630Y-74796997D01*
X105717906Y-74502133D01*
X105724369Y-74488713D01*
X118729500Y-74488713D01*
X118729500Y-74951286D01*
X118748184Y-75069256D01*
X118762754Y-75161243D01*
X118812879Y-75315512D01*
X118828444Y-75363414D01*
X118924951Y-75552820D01*
X119049890Y-75724786D01*
X119200213Y-75875109D01*
X119372179Y-76000048D01*
X119372181Y-76000049D01*
X119372184Y-76000051D01*
X119561588Y-76096557D01*
X119763757Y-76162246D01*
X119973713Y-76195500D01*
X119973714Y-76195500D01*
X120186286Y-76195500D01*
X120186287Y-76195500D01*
X120396243Y-76162246D01*
X120598412Y-76096557D01*
X120787816Y-76000051D01*
X120952181Y-75880634D01*
X120959786Y-75875109D01*
X120959788Y-75875106D01*
X120959792Y-75875104D01*
X121110104Y-75724792D01*
X121229683Y-75560204D01*
X121285011Y-75517540D01*
X121354624Y-75511561D01*
X121416420Y-75544166D01*
X121430313Y-75560199D01*
X121509025Y-75668537D01*
X121549896Y-75724792D01*
X121700213Y-75875109D01*
X121872181Y-76000050D01*
X121886792Y-76007494D01*
X121937589Y-76055467D01*
X121954500Y-76117980D01*
X121954500Y-80831606D01*
X121962037Y-80869501D01*
X121962036Y-80869501D01*
X121976762Y-80943532D01*
X121978536Y-80952449D01*
X121978537Y-80952454D01*
X122025685Y-81066281D01*
X122025688Y-81066286D01*
X122051778Y-81105331D01*
X122094142Y-81168733D01*
X122181267Y-81255858D01*
X122181270Y-81255860D01*
X122188915Y-81263505D01*
X122504205Y-81578795D01*
X122537690Y-81640118D01*
X122538141Y-81642285D01*
X122560261Y-81753489D01*
X122560264Y-81753501D01*
X122620602Y-81899172D01*
X122620609Y-81899185D01*
X122708210Y-82030288D01*
X122708213Y-82030292D01*
X122819707Y-82141786D01*
X122819711Y-82141789D01*
X122950814Y-82229390D01*
X122950827Y-82229397D01*
X123096498Y-82289735D01*
X123096503Y-82289737D01*
X123251153Y-82320499D01*
X123251156Y-82320500D01*
X123251158Y-82320500D01*
X123408844Y-82320500D01*
X123408845Y-82320499D01*
X123563497Y-82289737D01*
X123709179Y-82229394D01*
X123840289Y-82141789D01*
X123951789Y-82030289D01*
X124039394Y-81899179D01*
X124099737Y-81753497D01*
X124130500Y-81598842D01*
X124130500Y-81441158D01*
X124130500Y-81441155D01*
X124130499Y-81441153D01*
X124099738Y-81286510D01*
X124099737Y-81286503D01*
X124090211Y-81263505D01*
X124039397Y-81140827D01*
X124039390Y-81140814D01*
X123951789Y-81009711D01*
X123951786Y-81009707D01*
X123840292Y-80898213D01*
X123840288Y-80898210D01*
X123709185Y-80810609D01*
X123709172Y-80810602D01*
X123563501Y-80750264D01*
X123563489Y-80750261D01*
X123452285Y-80728141D01*
X123435528Y-80719376D01*
X123417049Y-80715356D01*
X123392010Y-80696611D01*
X123390374Y-80695756D01*
X123388795Y-80694205D01*
X123241819Y-80547229D01*
X123208334Y-80485906D01*
X123205500Y-80459548D01*
X123205500Y-77941153D01*
X126279500Y-77941153D01*
X126279500Y-78098846D01*
X126310261Y-78253489D01*
X126310264Y-78253501D01*
X126370602Y-78399172D01*
X126370609Y-78399184D01*
X126433602Y-78493459D01*
X126454480Y-78560136D01*
X126454500Y-78562350D01*
X126454500Y-79727650D01*
X126434815Y-79794689D01*
X126433602Y-79796541D01*
X126370609Y-79890815D01*
X126370602Y-79890828D01*
X126310264Y-80036498D01*
X126310261Y-80036510D01*
X126279500Y-80191153D01*
X126279500Y-80348846D01*
X126310261Y-80503489D01*
X126310264Y-80503501D01*
X126370602Y-80649172D01*
X126370609Y-80649185D01*
X126458210Y-80780288D01*
X126458213Y-80780292D01*
X126569707Y-80891786D01*
X126569711Y-80891789D01*
X126700814Y-80979390D01*
X126700827Y-80979397D01*
X126774013Y-81009711D01*
X126846503Y-81039737D01*
X126979948Y-81066281D01*
X127001153Y-81070499D01*
X127001156Y-81070500D01*
X127001158Y-81070500D01*
X127158844Y-81070500D01*
X127158845Y-81070499D01*
X127313497Y-81039737D01*
X127459179Y-80979394D01*
X127590289Y-80891789D01*
X127701789Y-80780289D01*
X127789394Y-80649179D01*
X127849737Y-80503497D01*
X127880500Y-80348842D01*
X127880500Y-80191158D01*
X127880500Y-80191155D01*
X127880499Y-80191153D01*
X127849738Y-80036510D01*
X127849737Y-80036503D01*
X127789394Y-79890821D01*
X127726397Y-79796539D01*
X127705520Y-79729863D01*
X127705500Y-79727650D01*
X127705500Y-78562350D01*
X127725185Y-78495311D01*
X127726398Y-78493459D01*
X127726809Y-78492843D01*
X127789394Y-78399179D01*
X127849737Y-78253497D01*
X127880500Y-78098842D01*
X127880500Y-77941158D01*
X127880500Y-77941155D01*
X127880499Y-77941153D01*
X127849738Y-77786510D01*
X127849737Y-77786503D01*
X127842234Y-77768389D01*
X127789397Y-77640827D01*
X127789390Y-77640814D01*
X127701789Y-77509711D01*
X127701786Y-77509707D01*
X127590292Y-77398213D01*
X127590288Y-77398210D01*
X127459185Y-77310609D01*
X127459172Y-77310602D01*
X127313501Y-77250264D01*
X127313489Y-77250261D01*
X127158845Y-77219500D01*
X127158842Y-77219500D01*
X127001158Y-77219500D01*
X127001155Y-77219500D01*
X126846510Y-77250261D01*
X126846498Y-77250264D01*
X126700827Y-77310602D01*
X126700814Y-77310609D01*
X126569711Y-77398210D01*
X126569707Y-77398213D01*
X126458213Y-77509707D01*
X126458210Y-77509711D01*
X126370609Y-77640814D01*
X126370602Y-77640827D01*
X126310264Y-77786498D01*
X126310261Y-77786510D01*
X126279500Y-77941153D01*
X123205500Y-77941153D01*
X123205500Y-76117980D01*
X123225185Y-76050941D01*
X123273208Y-76007494D01*
X123287818Y-76000050D01*
X123459786Y-75875109D01*
X123459788Y-75875106D01*
X123459792Y-75875104D01*
X123610104Y-75724792D01*
X123729683Y-75560204D01*
X123785011Y-75517540D01*
X123854624Y-75511561D01*
X123916420Y-75544166D01*
X123930313Y-75560199D01*
X124009025Y-75668537D01*
X124049896Y-75724792D01*
X124200213Y-75875109D01*
X124372179Y-76000048D01*
X124372181Y-76000049D01*
X124372184Y-76000051D01*
X124386792Y-76007494D01*
X124561583Y-76096555D01*
X124561585Y-76096555D01*
X124561588Y-76096557D01*
X124627521Y-76117980D01*
X124763750Y-76162244D01*
X124763751Y-76162244D01*
X124763757Y-76162246D01*
X124811771Y-76169850D01*
X124874903Y-76199778D01*
X124880052Y-76204642D01*
X125341016Y-76665606D01*
X125341045Y-76665637D01*
X125431263Y-76755855D01*
X125431267Y-76755858D01*
X125533707Y-76824307D01*
X125533713Y-76824310D01*
X125533714Y-76824311D01*
X125647548Y-76871463D01*
X125707971Y-76883481D01*
X125768393Y-76895500D01*
X125768394Y-76895500D01*
X132959548Y-76895500D01*
X133026587Y-76915185D01*
X133047229Y-76931819D01*
X134168181Y-78052771D01*
X134201666Y-78114094D01*
X134204500Y-78140452D01*
X134204500Y-89081611D01*
X134228535Y-89202444D01*
X134228540Y-89202461D01*
X134275685Y-89316280D01*
X134275687Y-89316283D01*
X134275688Y-89316286D01*
X134309915Y-89367509D01*
X134344142Y-89418733D01*
X134431267Y-89505858D01*
X134431269Y-89505859D01*
X134441232Y-89515822D01*
X141504205Y-96578796D01*
X141537690Y-96640119D01*
X141538141Y-96642286D01*
X141560261Y-96753489D01*
X141560264Y-96753501D01*
X141620602Y-96899172D01*
X141620609Y-96899185D01*
X141708210Y-97030288D01*
X141708213Y-97030292D01*
X141819707Y-97141786D01*
X141819711Y-97141789D01*
X141950814Y-97229390D01*
X141950827Y-97229397D01*
X142096498Y-97289735D01*
X142096503Y-97289737D01*
X142251153Y-97320499D01*
X142251156Y-97320500D01*
X142251158Y-97320500D01*
X142408844Y-97320500D01*
X142408845Y-97320499D01*
X142563497Y-97289737D01*
X142709179Y-97229394D01*
X142840289Y-97141789D01*
X142951789Y-97030289D01*
X143039394Y-96899179D01*
X143099737Y-96753497D01*
X143130500Y-96598842D01*
X143130500Y-96441158D01*
X143130500Y-96441155D01*
X143130499Y-96441153D01*
X143099738Y-96286510D01*
X143099737Y-96286503D01*
X143099735Y-96286498D01*
X143039397Y-96140827D01*
X143039390Y-96140814D01*
X142951789Y-96009711D01*
X142951786Y-96009707D01*
X142840292Y-95898213D01*
X142840288Y-95898210D01*
X142709185Y-95810609D01*
X142709172Y-95810602D01*
X142563501Y-95750264D01*
X142563489Y-95750261D01*
X142452286Y-95728141D01*
X142390375Y-95695756D01*
X142388796Y-95694205D01*
X135491819Y-88797228D01*
X135458334Y-88735905D01*
X135455500Y-88709547D01*
X135455500Y-77768393D01*
X135455499Y-77768389D01*
X135431464Y-77647555D01*
X135431463Y-77647548D01*
X135413976Y-77605331D01*
X135384312Y-77533714D01*
X135338858Y-77465689D01*
X135315858Y-77431267D01*
X135315855Y-77431263D01*
X135225637Y-77341045D01*
X135225606Y-77341016D01*
X133763150Y-75878560D01*
X133755860Y-75871270D01*
X133755858Y-75871267D01*
X133668733Y-75784142D01*
X133617509Y-75749915D01*
X133566286Y-75715688D01*
X133566283Y-75715686D01*
X133566280Y-75715685D01*
X133492603Y-75685168D01*
X133492601Y-75685167D01*
X133485792Y-75682347D01*
X133452452Y-75668537D01*
X133392029Y-75656518D01*
X133387306Y-75655578D01*
X133387304Y-75655578D01*
X133331610Y-75644500D01*
X133331607Y-75644500D01*
X133331606Y-75644500D01*
X129052038Y-75644500D01*
X128984999Y-75624815D01*
X128939244Y-75572011D01*
X128928680Y-75507895D01*
X128929999Y-75494980D01*
X128930000Y-75494973D01*
X128930000Y-74970000D01*
X127984146Y-74970000D01*
X128022630Y-74903343D01*
X128055000Y-74782535D01*
X128055000Y-74657465D01*
X128022630Y-74536657D01*
X127984146Y-74470000D01*
X128929999Y-74470000D01*
X128929999Y-73945028D01*
X128929998Y-73945013D01*
X128919505Y-73842302D01*
X128864358Y-73675880D01*
X128864356Y-73675875D01*
X128772315Y-73526654D01*
X128648345Y-73402684D01*
X128499124Y-73310643D01*
X128499119Y-73310641D01*
X128332697Y-73255494D01*
X128332690Y-73255493D01*
X128229986Y-73245000D01*
X127830000Y-73245000D01*
X127830000Y-74315854D01*
X127763343Y-74277370D01*
X127642535Y-74245000D01*
X127517465Y-74245000D01*
X127396657Y-74277370D01*
X127330000Y-74315854D01*
X127330000Y-73245000D01*
X126930028Y-73245000D01*
X126930012Y-73245001D01*
X126827302Y-73255494D01*
X126660880Y-73310641D01*
X126660875Y-73310643D01*
X126511654Y-73402684D01*
X126387683Y-73526655D01*
X126387680Y-73526659D01*
X126292183Y-73681484D01*
X126240235Y-73728209D01*
X126171273Y-73739430D01*
X126107191Y-73711587D01*
X126098964Y-73704068D01*
X125959786Y-73564890D01*
X125787820Y-73439951D01*
X125598414Y-73343444D01*
X125598413Y-73343443D01*
X125598412Y-73343443D01*
X125396243Y-73277754D01*
X125396241Y-73277753D01*
X125396240Y-73277753D01*
X125234957Y-73252208D01*
X125186287Y-73244500D01*
X124973713Y-73244500D01*
X124925042Y-73252208D01*
X124763760Y-73277753D01*
X124561585Y-73343444D01*
X124372179Y-73439951D01*
X124200213Y-73564890D01*
X124049894Y-73715209D01*
X124049890Y-73715214D01*
X123930318Y-73879793D01*
X123874989Y-73922459D01*
X123805375Y-73928438D01*
X123743580Y-73895833D01*
X123729682Y-73879793D01*
X123610109Y-73715214D01*
X123610105Y-73715209D01*
X123459786Y-73564890D01*
X123287820Y-73439951D01*
X123098414Y-73343444D01*
X123098413Y-73343443D01*
X123098412Y-73343443D01*
X122896243Y-73277754D01*
X122896241Y-73277753D01*
X122896240Y-73277753D01*
X122734957Y-73252208D01*
X122686287Y-73244500D01*
X122473713Y-73244500D01*
X122425042Y-73252208D01*
X122263760Y-73277753D01*
X122061585Y-73343444D01*
X121872179Y-73439951D01*
X121700213Y-73564890D01*
X121549894Y-73715209D01*
X121549890Y-73715214D01*
X121430318Y-73879793D01*
X121374989Y-73922459D01*
X121305375Y-73928438D01*
X121243580Y-73895833D01*
X121229682Y-73879793D01*
X121110109Y-73715214D01*
X121110105Y-73715209D01*
X120959786Y-73564890D01*
X120787820Y-73439951D01*
X120598414Y-73343444D01*
X120598413Y-73343443D01*
X120598412Y-73343443D01*
X120396243Y-73277754D01*
X120396241Y-73277753D01*
X120396240Y-73277753D01*
X120234957Y-73252208D01*
X120186287Y-73244500D01*
X119973713Y-73244500D01*
X119925042Y-73252208D01*
X119763760Y-73277753D01*
X119561585Y-73343444D01*
X119372179Y-73439951D01*
X119200213Y-73564890D01*
X119049890Y-73715213D01*
X118924951Y-73887179D01*
X118828444Y-74076585D01*
X118762753Y-74278760D01*
X118729500Y-74488713D01*
X105724369Y-74488713D01*
X105753442Y-74428343D01*
X105826146Y-74277370D01*
X105869002Y-74188379D01*
X105984018Y-73859681D01*
X106061509Y-73520171D01*
X106100500Y-73174120D01*
X106100500Y-72825880D01*
X106061509Y-72479829D01*
X105984018Y-72140319D01*
X105869002Y-71811621D01*
X105717906Y-71497867D01*
X105662497Y-71409684D01*
X105532635Y-71203010D01*
X105532632Y-71203006D01*
X105532630Y-71203003D01*
X105524937Y-71193357D01*
X105498532Y-71128673D01*
X105511290Y-71059978D01*
X105559161Y-71009085D01*
X105621938Y-70992050D01*
X141865649Y-71008162D01*
G37*
%TD.AperFunction*%
%TD*%
M02*
