%TF.GenerationSoftware,KiCad,Pcbnew,9.0.0*%
%TF.CreationDate,2025-03-07T17:14:41+09:00*%
%TF.ProjectId,Underside,556e6465-7273-4696-9465-2e6b69636164,rev?*%
%TF.SameCoordinates,Original*%
%TF.FileFunction,Copper,L1,Top*%
%TF.FilePolarity,Positive*%
%FSLAX46Y46*%
G04 Gerber Fmt 4.6, Leading zero omitted, Abs format (unit mm)*
G04 Created by KiCad (PCBNEW 9.0.0) date 2025-03-07 17:14:41*
%MOMM*%
%LPD*%
G01*
G04 APERTURE LIST*
G04 Aperture macros list*
%AMRoundRect*
0 Rectangle with rounded corners*
0 $1 Rounding radius*
0 $2 $3 $4 $5 $6 $7 $8 $9 X,Y pos of 4 corners*
0 Add a 4 corners polygon primitive as box body*
4,1,4,$2,$3,$4,$5,$6,$7,$8,$9,$2,$3,0*
0 Add four circle primitives for the rounded corners*
1,1,$1+$1,$2,$3*
1,1,$1+$1,$4,$5*
1,1,$1+$1,$6,$7*
1,1,$1+$1,$8,$9*
0 Add four rect primitives between the rounded corners*
20,1,$1+$1,$2,$3,$4,$5,0*
20,1,$1+$1,$4,$5,$6,$7,0*
20,1,$1+$1,$6,$7,$8,$9,0*
20,1,$1+$1,$8,$9,$2,$3,0*%
G04 Aperture macros list end*
%TA.AperFunction,ComponentPad*%
%ADD10C,1.600000*%
%TD*%
%TA.AperFunction,ComponentPad*%
%ADD11R,2.000000X2.000000*%
%TD*%
%TA.AperFunction,ComponentPad*%
%ADD12C,2.000000*%
%TD*%
%TA.AperFunction,ComponentPad*%
%ADD13RoundRect,0.250000X0.600000X0.725000X-0.600000X0.725000X-0.600000X-0.725000X0.600000X-0.725000X0*%
%TD*%
%TA.AperFunction,ComponentPad*%
%ADD14O,1.700000X1.950000*%
%TD*%
%TA.AperFunction,ComponentPad*%
%ADD15C,1.400000*%
%TD*%
%TA.AperFunction,SMDPad,CuDef*%
%ADD16O,1.998980X2.748280*%
%TD*%
%TA.AperFunction,SMDPad,CuDef*%
%ADD17O,2.032000X1.016000*%
%TD*%
%TA.AperFunction,SMDPad,CuDef*%
%ADD18C,1.143000*%
%TD*%
%TA.AperFunction,ViaPad*%
%ADD19C,0.600000*%
%TD*%
%TA.AperFunction,Conductor*%
%ADD20C,0.250000*%
%TD*%
%TA.AperFunction,Conductor*%
%ADD21C,0.200000*%
%TD*%
G04 APERTURE END LIST*
D10*
%TO.P,DPS310,1,VCC*%
%TO.N,+3.3V*%
X119180000Y-126770000D03*
%TO.P,DPS310,2,SDI*%
%TO.N,Net-(U1-SDI)*%
X116640000Y-126770000D03*
%TO.P,DPS310,3,GND*%
%TO.N,GND*%
X114100000Y-126770000D03*
%TO.P,DPS310,4,SDO*%
%TO.N,unconnected-(U1-SDO-Pad4)*%
X111560000Y-126770000D03*
%TO.P,DPS310,5,CSK*%
%TO.N,Net-(U1-CSK)*%
X109020000Y-126770000D03*
%TO.P,DPS310,6,CS*%
%TO.N,unconnected-(U1-CS-Pad6)*%
X106480000Y-126770000D03*
%TD*%
D11*
%TO.P,URM37,1,VCC*%
%TO.N,+3.3V*%
X113670000Y-137270000D03*
D12*
%TO.P,URM37,2,GND*%
%TO.N,GND*%
X116210000Y-137270000D03*
%TO.P,URM37,3,NRST*%
%TO.N,unconnected-(U2-NRST-Pad3)*%
X118750000Y-137270000D03*
%TO.P,URM37,4,ECHO*%
%TO.N,Net-(U2-ECHO)*%
X121290000Y-137270000D03*
%TO.P,URM37,5,SERVO*%
%TO.N,unconnected-(U2-SERVO-Pad5)*%
X123830000Y-137270000D03*
%TO.P,URM37,6,COMP/TRIG*%
%TO.N,Net-(U2-COMP{slash}TRIG)*%
X126370000Y-137270000D03*
%TO.P,URM37,7,DAC_OUT*%
%TO.N,unconnected-(U2-DAC_OUT-Pad7)*%
X128910000Y-137270000D03*
%TO.P,URM37,8,RXD*%
%TO.N,unconnected-(U2-RXD-Pad8)*%
X131450000Y-137270000D03*
%TO.P,URM37,9,TXD*%
%TO.N,unconnected-(U2-TXD-Pad9)*%
X133990000Y-137270000D03*
%TD*%
D13*
%TO.P,Under_URAT,1,Pin_1*%
%TO.N,GND*%
X127580000Y-74720000D03*
D14*
%TO.P,Under_URAT,2,Pin_2*%
%TO.N,+5V*%
X125080000Y-74720000D03*
%TO.P,Under_URAT,3,Pin_3*%
%TO.N,/PTXR*%
X122580000Y-74720000D03*
%TO.P,Under_URAT,4,Pin_4*%
%TO.N,/PRXT*%
X120080000Y-74720000D03*
%TD*%
D15*
%TO.P,J1,1,DAT2*%
%TO.N,unconnected-(J1-DAT2-Pad1)*%
X127630000Y-106340000D03*
%TO.P,J1,2,DAT3/CD*%
%TO.N,/CS*%
X127630000Y-108880000D03*
%TO.P,J1,3,CMD*%
%TO.N,Net-(J1-CMD)*%
X127630000Y-111420000D03*
%TO.P,J1,4,VDD*%
%TO.N,+3.3V*%
X127630000Y-113960000D03*
%TO.P,J1,5,CLK*%
%TO.N,Net-(J1-CLK)*%
X127630000Y-116500000D03*
%TO.P,J1,6,VSS*%
%TO.N,GND*%
X127630000Y-119040000D03*
%TO.P,J1,7,DAT0*%
%TO.N,Net-(J1-DAT0)*%
X127630000Y-121580000D03*
%TO.P,J1,8,DAT1*%
%TO.N,unconnected-(J1-DAT1-Pad8)*%
X127630000Y-124120000D03*
%TO.P,J1,9,DET_B*%
%TO.N,unconnected-(J1-DET_B-Pad9)*%
X127630000Y-126660000D03*
%TO.P,J1,10,DET_A*%
%TO.N,unconnected-(J1-DET_A-Pad10)*%
X127630000Y-129200000D03*
%TO.P,J1,11,SHIELD*%
%TO.N,unconnected-(J1-SHIELD-Pad11)*%
X140330000Y-126660000D03*
%TO.P,J1,13*%
%TO.N,N/C*%
X140330000Y-108880000D03*
%TD*%
D16*
%TO.P,U3,1,PA02_A0_D0*%
%TO.N,Net-(U2-ECHO)*%
X142330000Y-82605440D03*
%TO.P,U3,2,PA4_A1_D1*%
%TO.N,Net-(U2-COMP{slash}TRIG)*%
X139790000Y-82605440D03*
%TO.P,U3,3,PA10_A2_D2*%
%TO.N,/CS*%
X137250000Y-82605440D03*
%TO.P,U3,4,PA11_A3_D3*%
%TO.N,unconnected-(U3-PA11_A3_D3-Pad4)*%
X134710000Y-82605440D03*
%TO.P,U3,5,PA8_A4_D4_SDA*%
%TO.N,Net-(U1-SDI)*%
X132170000Y-82605440D03*
%TO.P,U3,6,PA9_A5_D5_SCL*%
%TO.N,Net-(U1-CSK)*%
X129630000Y-82605440D03*
%TO.P,U3,7,PB08_A6_D6_TX*%
%TO.N,/PRXT*%
X127090000Y-82605440D03*
%TO.P,U3,8,PB09_A7_D7_RX*%
%TO.N,/PTXR*%
X127090000Y-98770000D03*
%TO.P,U3,9,PA7_A8_D8_SCK*%
%TO.N,Net-(J1-CLK)*%
X129630000Y-98770000D03*
%TO.P,U3,10,PA5_A9_D9_MISO*%
%TO.N,Net-(J1-DAT0)*%
X132170000Y-98770000D03*
%TO.P,U3,11,PA6_A10_D10_MOSI*%
%TO.N,Net-(J1-CMD)*%
X134710000Y-98770000D03*
%TO.P,U3,12,3V3*%
%TO.N,+3.3V*%
X137250000Y-98770000D03*
%TO.P,U3,13,GND*%
%TO.N,GND*%
X139790000Y-98770000D03*
%TO.P,U3,14,5V*%
%TO.N,+5V*%
X142330000Y-98770000D03*
D17*
%TO.P,U3,15*%
%TO.N,N/C*%
X126012180Y-89472320D03*
%TO.P,U3,16*%
X126012180Y-92022320D03*
D18*
%TO.P,U3,17*%
X143016367Y-89471123D03*
%TO.P,U3,18*%
X143016367Y-92011123D03*
%TO.P,U3,19*%
X140476367Y-89471123D03*
%TO.P,U3,20*%
X140476367Y-92011123D03*
%TD*%
D19*
%TO.N,/CS*%
X121830000Y-107770000D03*
%TO.N,Net-(J1-DAT0)*%
X123330000Y-103770000D03*
X126330000Y-102770000D03*
%TO.N,+3.3V*%
X113670000Y-134930000D03*
X120330000Y-114020000D03*
X116330000Y-132270000D03*
%TO.N,GND*%
X139790000Y-96520000D03*
X133330000Y-78020000D03*
%TO.N,/PRXT*%
X127080000Y-80270000D03*
X127080000Y-78020000D03*
%TO.N,/PTXR*%
X123330000Y-81520000D03*
%TO.N,+5V*%
X142330000Y-96520000D03*
%TO.N,Net-(U1-SDI)*%
X120830000Y-86270000D03*
X124080000Y-86270000D03*
%TO.N,Net-(U1-CSK)*%
X120830000Y-84770000D03*
X124080000Y-84770000D03*
%TD*%
D20*
%TO.N,/CS*%
X124830000Y-79020000D02*
X135580000Y-79020000D01*
X137250000Y-80690000D02*
X137250000Y-82605440D01*
X121830000Y-82020000D02*
X124830000Y-79020000D01*
X135580000Y-79020000D02*
X137250000Y-80690000D01*
X121830000Y-107770000D02*
X121830000Y-82020000D01*
%TO.N,Net-(J1-DAT0)*%
X125140000Y-121580000D02*
X127630000Y-121580000D01*
X123330000Y-119770000D02*
X125140000Y-121580000D01*
X130580000Y-102770000D02*
X132170000Y-101180000D01*
X123330000Y-103770000D02*
X123330000Y-119770000D01*
X132170000Y-101180000D02*
X132170000Y-98770000D01*
X126330000Y-102770000D02*
X130580000Y-102770000D01*
%TO.N,+3.3V*%
X113670000Y-134930000D02*
X113670000Y-137270000D01*
X119180000Y-115170000D02*
X120330000Y-114020000D01*
X137250000Y-105350000D02*
X128640000Y-113960000D01*
X119180000Y-129420000D02*
X119180000Y-126770000D01*
X116330000Y-132270000D02*
X119180000Y-129420000D01*
X137250000Y-98770000D02*
X137250000Y-105350000D01*
X119180000Y-126770000D02*
X119180000Y-115170000D01*
X128640000Y-113960000D02*
X127630000Y-113960000D01*
%TO.N,GND*%
X139790000Y-107810000D02*
X128560000Y-119040000D01*
X139790000Y-98770000D02*
X139790000Y-107810000D01*
X114100000Y-132540000D02*
X116210000Y-134650000D01*
X133330000Y-78020000D02*
X132580000Y-77270000D01*
X128560000Y-119040000D02*
X127630000Y-119040000D01*
X128830000Y-77270000D02*
X127580000Y-76020000D01*
X116210000Y-134650000D02*
X116210000Y-137270000D01*
X127580000Y-76020000D02*
X127580000Y-74720000D01*
X114100000Y-126770000D02*
X114100000Y-132540000D01*
X139790000Y-96520000D02*
X139790000Y-98770000D01*
X132580000Y-77270000D02*
X128830000Y-77270000D01*
%TO.N,Net-(J1-CLK)*%
X125830000Y-101520000D02*
X124830000Y-102520000D01*
X129630000Y-100720000D02*
X128830000Y-101520000D01*
X126310000Y-116500000D02*
X127630000Y-116500000D01*
X124830000Y-102520000D02*
X124830000Y-115020000D01*
X124830000Y-115020000D02*
X126310000Y-116500000D01*
X129630000Y-98770000D02*
X129630000Y-100720000D01*
X128830000Y-101520000D02*
X125830000Y-101520000D01*
%TO.N,Net-(J1-CMD)*%
X127000000Y-104000000D02*
X126000000Y-105000000D01*
X132350000Y-104000000D02*
X127000000Y-104000000D01*
X126000000Y-110690000D02*
X126730000Y-111420000D01*
X134710000Y-98770000D02*
X134710000Y-101640000D01*
X126000000Y-105000000D02*
X126000000Y-110690000D01*
X134710000Y-101640000D02*
X132350000Y-104000000D01*
X126730000Y-111420000D02*
X127630000Y-111420000D01*
%TO.N,/PRXT*%
X120830000Y-77270000D02*
X120080000Y-76520000D01*
X126330000Y-77270000D02*
X120830000Y-77270000D01*
X127090000Y-80280000D02*
X127090000Y-82605440D01*
X127080000Y-78020000D02*
X126330000Y-77270000D01*
X127080000Y-80270000D02*
X127090000Y-80280000D01*
X120080000Y-76520000D02*
X120080000Y-74720000D01*
D21*
X120080000Y-74720000D02*
X120080000Y-75270000D01*
D20*
%TO.N,/PTXR*%
X123330000Y-81520000D02*
X123330000Y-100020000D01*
X126830000Y-100520000D02*
X127090000Y-100260000D01*
X123330000Y-100020000D02*
X123830000Y-100520000D01*
X127090000Y-100260000D02*
X127090000Y-98770000D01*
X123830000Y-100520000D02*
X126830000Y-100520000D01*
%TO.N,+5V*%
X142330000Y-96520000D02*
X142330000Y-98770000D01*
%TO.N,Net-(U1-SDI)*%
X131080000Y-86270000D02*
X132170000Y-85180000D01*
X124080000Y-86270000D02*
X131080000Y-86270000D01*
X120080000Y-86270000D02*
X116705000Y-89645000D01*
X120830000Y-86270000D02*
X120080000Y-86270000D01*
X132170000Y-85180000D02*
X132170000Y-82605440D01*
D21*
X116640000Y-89710000D02*
X116705000Y-89645000D01*
X116640000Y-126770000D02*
X116640000Y-89710000D01*
D20*
%TO.N,Net-(U1-CSK)*%
X129080000Y-84770000D02*
X129630000Y-84220000D01*
X109020000Y-126770000D02*
X109020000Y-90080000D01*
X124080000Y-84770000D02*
X129080000Y-84770000D01*
X109020000Y-90080000D02*
X114330000Y-84770000D01*
X129630000Y-84220000D02*
X129630000Y-82605440D01*
X114330000Y-84770000D02*
X120830000Y-84770000D01*
%TO.N,Net-(U2-COMP{slash}TRIG)*%
X126370000Y-135480000D02*
X126370000Y-137270000D01*
X139790000Y-82605440D02*
X139790000Y-80310000D01*
X142580000Y-134770000D02*
X127080000Y-134770000D01*
X146000000Y-131350000D02*
X142580000Y-134770000D01*
X141080000Y-79020000D02*
X144830000Y-79020000D01*
X127080000Y-134770000D02*
X126370000Y-135480000D01*
X144830000Y-79020000D02*
X146000000Y-80190000D01*
X146000000Y-80190000D02*
X146000000Y-131350000D01*
X139790000Y-80310000D02*
X141080000Y-79020000D01*
%TO.N,Net-(U2-ECHO)*%
X144580000Y-130270000D02*
X143080000Y-131770000D01*
X144580000Y-81020000D02*
X144580000Y-130270000D01*
X144080000Y-80520000D02*
X144580000Y-81020000D01*
X143080000Y-131770000D02*
X124830000Y-131770000D01*
X124830000Y-131770000D02*
X121290000Y-135310000D01*
X121290000Y-135310000D02*
X121290000Y-137270000D01*
X142330000Y-81020000D02*
X142830000Y-80520000D01*
X142330000Y-82605440D02*
X142330000Y-81020000D01*
X142830000Y-80520000D02*
X144080000Y-80520000D01*
%TD*%
%TA.AperFunction,Conductor*%
%TO.N,GND*%
G36*
X141865649Y-71008162D02*
G01*
X141932677Y-71027875D01*
X141978408Y-71080700D01*
X141988321Y-71149863D01*
X141968464Y-71199581D01*
X141969221Y-71200057D01*
X141782092Y-71497869D01*
X141630999Y-71811617D01*
X141515985Y-72140307D01*
X141515982Y-72140315D01*
X141438491Y-72479829D01*
X141438489Y-72479841D01*
X141399500Y-72825875D01*
X141399500Y-73174124D01*
X141438489Y-73520158D01*
X141438491Y-73520170D01*
X141515982Y-73859684D01*
X141515985Y-73859692D01*
X141630999Y-74188382D01*
X141782092Y-74502130D01*
X141967371Y-74796999D01*
X141967372Y-74797001D01*
X142184487Y-75069256D01*
X142430743Y-75315512D01*
X142702998Y-75532627D01*
X142703001Y-75532628D01*
X142703003Y-75532630D01*
X142997867Y-75717906D01*
X143311621Y-75869002D01*
X143558488Y-75955384D01*
X143640307Y-75984014D01*
X143640315Y-75984017D01*
X143640318Y-75984017D01*
X143640319Y-75984018D01*
X143979829Y-76061509D01*
X144325876Y-76100499D01*
X144325877Y-76100500D01*
X144325880Y-76100500D01*
X144674123Y-76100500D01*
X144674123Y-76100499D01*
X145020171Y-76061509D01*
X145359681Y-75984018D01*
X145688379Y-75869002D01*
X145892500Y-75770702D01*
X145961437Y-75759351D01*
X146025572Y-75787073D01*
X146064538Y-75845068D01*
X146070285Y-75880634D01*
X146117050Y-79121322D01*
X146098335Y-79188638D01*
X146046197Y-79235150D01*
X145977189Y-79246091D01*
X145913221Y-79217986D01*
X145905382Y-79210792D01*
X145323150Y-78628560D01*
X145315860Y-78621270D01*
X145315858Y-78621267D01*
X145228733Y-78534142D01*
X145177509Y-78499915D01*
X145126286Y-78465688D01*
X145126283Y-78465686D01*
X145126280Y-78465685D01*
X145053658Y-78435605D01*
X145053657Y-78435604D01*
X145045792Y-78432347D01*
X145012452Y-78418537D01*
X144915130Y-78399179D01*
X144911532Y-78398463D01*
X144911531Y-78398463D01*
X144904160Y-78396997D01*
X144891607Y-78394500D01*
X144891606Y-78394500D01*
X141141606Y-78394500D01*
X141018393Y-78394500D01*
X140994868Y-78399179D01*
X140994867Y-78399178D01*
X140897555Y-78418535D01*
X140897545Y-78418538D01*
X140783716Y-78465687D01*
X140687038Y-78530285D01*
X140687034Y-78530289D01*
X140684150Y-78532216D01*
X140681261Y-78534146D01*
X140681260Y-78534147D01*
X139569909Y-79645500D01*
X139391269Y-79824140D01*
X139391267Y-79824142D01*
X139347704Y-79867704D01*
X139304142Y-79911266D01*
X139273919Y-79956498D01*
X139270328Y-79961873D01*
X139235688Y-80013714D01*
X139208126Y-80080256D01*
X139205941Y-80085528D01*
X139205935Y-80085542D01*
X139188539Y-80127541D01*
X139188535Y-80127555D01*
X139164500Y-80248389D01*
X139164500Y-80790032D01*
X139144815Y-80857071D01*
X139096796Y-80900516D01*
X139003832Y-80947884D01*
X138812828Y-81086656D01*
X138812823Y-81086660D01*
X138645874Y-81253609D01*
X138645869Y-81253615D01*
X138620318Y-81288784D01*
X138564988Y-81331450D01*
X138495375Y-81337429D01*
X138433580Y-81304823D01*
X138419682Y-81288784D01*
X138394130Y-81253615D01*
X138394128Y-81253612D01*
X138227178Y-81086662D01*
X138227176Y-81086660D01*
X138227171Y-81086656D01*
X138036167Y-80947884D01*
X137943204Y-80900516D01*
X137932141Y-80890067D01*
X137918297Y-80883745D01*
X137907254Y-80866562D01*
X137892409Y-80852541D01*
X137888168Y-80836862D01*
X137880523Y-80824967D01*
X137875500Y-80790032D01*
X137875500Y-80757741D01*
X137875501Y-80757720D01*
X137875501Y-80628391D01*
X137851464Y-80507553D01*
X137851462Y-80507547D01*
X137845220Y-80492476D01*
X137845208Y-80492449D01*
X137827248Y-80449090D01*
X137804637Y-80394500D01*
X137804312Y-80393715D01*
X137735858Y-80291267D01*
X137735855Y-80291263D01*
X136075822Y-78631232D01*
X136065859Y-78621269D01*
X136065858Y-78621267D01*
X135978733Y-78534142D01*
X135927509Y-78499915D01*
X135876286Y-78465688D01*
X135876283Y-78465686D01*
X135876280Y-78465685D01*
X135803658Y-78435605D01*
X135803657Y-78435604D01*
X135795792Y-78432347D01*
X135762452Y-78418537D01*
X135665130Y-78399179D01*
X135661532Y-78398463D01*
X135661531Y-78398463D01*
X135654160Y-78396997D01*
X135641607Y-78394500D01*
X135641606Y-78394500D01*
X127972784Y-78394500D01*
X127905745Y-78374815D01*
X127859990Y-78322011D01*
X127850046Y-78252853D01*
X127851167Y-78246308D01*
X127880500Y-78098844D01*
X127880500Y-77941155D01*
X127880499Y-77941153D01*
X127866637Y-77871463D01*
X127849737Y-77786503D01*
X127837042Y-77755855D01*
X127789397Y-77640827D01*
X127789390Y-77640814D01*
X127701789Y-77509711D01*
X127701786Y-77509707D01*
X127590292Y-77398213D01*
X127590288Y-77398210D01*
X127459185Y-77310609D01*
X127459172Y-77310602D01*
X127313501Y-77250264D01*
X127313489Y-77250261D01*
X127202285Y-77228141D01*
X127140374Y-77195756D01*
X127138795Y-77194205D01*
X126823150Y-76878560D01*
X126815860Y-76871270D01*
X126815858Y-76871267D01*
X126728733Y-76784142D01*
X126677509Y-76749915D01*
X126626286Y-76715688D01*
X126626283Y-76715686D01*
X126626280Y-76715685D01*
X126552603Y-76685168D01*
X126552601Y-76685167D01*
X126545792Y-76682347D01*
X126512452Y-76668537D01*
X126452029Y-76656518D01*
X126447306Y-76655578D01*
X126447304Y-76655578D01*
X126391610Y-76644500D01*
X126391607Y-76644500D01*
X126391606Y-76644500D01*
X121140452Y-76644500D01*
X121073413Y-76624815D01*
X121052771Y-76608181D01*
X120741819Y-76297229D01*
X120727115Y-76270301D01*
X120710523Y-76244483D01*
X120709631Y-76238282D01*
X120708334Y-76235906D01*
X120705500Y-76209548D01*
X120705500Y-76117980D01*
X120725185Y-76050941D01*
X120773208Y-76007494D01*
X120787818Y-76000050D01*
X120959786Y-75875109D01*
X120959788Y-75875106D01*
X120959792Y-75875104D01*
X121110104Y-75724792D01*
X121229683Y-75560204D01*
X121285011Y-75517540D01*
X121354624Y-75511561D01*
X121416420Y-75544166D01*
X121430313Y-75560199D01*
X121533661Y-75702446D01*
X121549896Y-75724792D01*
X121700213Y-75875109D01*
X121872179Y-76000048D01*
X121872181Y-76000049D01*
X121872184Y-76000051D01*
X122061588Y-76096557D01*
X122263757Y-76162246D01*
X122473713Y-76195500D01*
X122473714Y-76195500D01*
X122686286Y-76195500D01*
X122686287Y-76195500D01*
X122896243Y-76162246D01*
X123098412Y-76096557D01*
X123287816Y-76000051D01*
X123309889Y-75984014D01*
X123459786Y-75875109D01*
X123459788Y-75875106D01*
X123459792Y-75875104D01*
X123610104Y-75724792D01*
X123729683Y-75560204D01*
X123785011Y-75517540D01*
X123854624Y-75511561D01*
X123916420Y-75544166D01*
X123930313Y-75560199D01*
X124033661Y-75702446D01*
X124049896Y-75724792D01*
X124200213Y-75875109D01*
X124372179Y-76000048D01*
X124372181Y-76000049D01*
X124372184Y-76000051D01*
X124561588Y-76096557D01*
X124763757Y-76162246D01*
X124973713Y-76195500D01*
X124973714Y-76195500D01*
X125186286Y-76195500D01*
X125186287Y-76195500D01*
X125396243Y-76162246D01*
X125598412Y-76096557D01*
X125787816Y-76000051D01*
X125845141Y-75958402D01*
X125959784Y-75875110D01*
X125959784Y-75875109D01*
X125959792Y-75875104D01*
X126098967Y-75735928D01*
X126160286Y-75702446D01*
X126229978Y-75707430D01*
X126285912Y-75749301D01*
X126292184Y-75758515D01*
X126387684Y-75913345D01*
X126511654Y-76037315D01*
X126660875Y-76129356D01*
X126660880Y-76129358D01*
X126827302Y-76184505D01*
X126827309Y-76184506D01*
X126930019Y-76194999D01*
X127329999Y-76194999D01*
X127330000Y-76194998D01*
X127330000Y-75124145D01*
X127396657Y-75162630D01*
X127517465Y-75195000D01*
X127642535Y-75195000D01*
X127763343Y-75162630D01*
X127830000Y-75124145D01*
X127830000Y-76194999D01*
X128229972Y-76194999D01*
X128229986Y-76194998D01*
X128332697Y-76184505D01*
X128499119Y-76129358D01*
X128499124Y-76129356D01*
X128648345Y-76037315D01*
X128772315Y-75913345D01*
X128864356Y-75764124D01*
X128864358Y-75764119D01*
X128919505Y-75597697D01*
X128919506Y-75597690D01*
X128929999Y-75494986D01*
X128930000Y-75494973D01*
X128930000Y-74970000D01*
X127984146Y-74970000D01*
X128022630Y-74903343D01*
X128055000Y-74782535D01*
X128055000Y-74657465D01*
X128022630Y-74536657D01*
X127984146Y-74470000D01*
X128929999Y-74470000D01*
X128929999Y-73945028D01*
X128929998Y-73945013D01*
X128919505Y-73842302D01*
X128864358Y-73675880D01*
X128864356Y-73675875D01*
X128772315Y-73526654D01*
X128648345Y-73402684D01*
X128499124Y-73310643D01*
X128499119Y-73310641D01*
X128332697Y-73255494D01*
X128332690Y-73255493D01*
X128229986Y-73245000D01*
X127830000Y-73245000D01*
X127830000Y-74315854D01*
X127763343Y-74277370D01*
X127642535Y-74245000D01*
X127517465Y-74245000D01*
X127396657Y-74277370D01*
X127330000Y-74315854D01*
X127330000Y-73245000D01*
X126930028Y-73245000D01*
X126930012Y-73245001D01*
X126827302Y-73255494D01*
X126660880Y-73310641D01*
X126660875Y-73310643D01*
X126511654Y-73402684D01*
X126387683Y-73526655D01*
X126387680Y-73526659D01*
X126292183Y-73681484D01*
X126240235Y-73728209D01*
X126171273Y-73739430D01*
X126107191Y-73711587D01*
X126098964Y-73704068D01*
X125959786Y-73564890D01*
X125787820Y-73439951D01*
X125598414Y-73343444D01*
X125598413Y-73343443D01*
X125598412Y-73343443D01*
X125396243Y-73277754D01*
X125396241Y-73277753D01*
X125396240Y-73277753D01*
X125234957Y-73252208D01*
X125186287Y-73244500D01*
X124973713Y-73244500D01*
X124925042Y-73252208D01*
X124763760Y-73277753D01*
X124561585Y-73343444D01*
X124372179Y-73439951D01*
X124200213Y-73564890D01*
X124049894Y-73715209D01*
X124049890Y-73715214D01*
X123930318Y-73879793D01*
X123874989Y-73922459D01*
X123805375Y-73928438D01*
X123743580Y-73895833D01*
X123729682Y-73879793D01*
X123610109Y-73715214D01*
X123610105Y-73715209D01*
X123459786Y-73564890D01*
X123287820Y-73439951D01*
X123098414Y-73343444D01*
X123098413Y-73343443D01*
X123098412Y-73343443D01*
X122896243Y-73277754D01*
X122896241Y-73277753D01*
X122896240Y-73277753D01*
X122734957Y-73252208D01*
X122686287Y-73244500D01*
X122473713Y-73244500D01*
X122425042Y-73252208D01*
X122263760Y-73277753D01*
X122061585Y-73343444D01*
X121872179Y-73439951D01*
X121700213Y-73564890D01*
X121549894Y-73715209D01*
X121549890Y-73715214D01*
X121430318Y-73879793D01*
X121374989Y-73922459D01*
X121305375Y-73928438D01*
X121243580Y-73895833D01*
X121229682Y-73879793D01*
X121110109Y-73715214D01*
X121110105Y-73715209D01*
X120959786Y-73564890D01*
X120787820Y-73439951D01*
X120598414Y-73343444D01*
X120598413Y-73343443D01*
X120598412Y-73343443D01*
X120396243Y-73277754D01*
X120396241Y-73277753D01*
X120396240Y-73277753D01*
X120234957Y-73252208D01*
X120186287Y-73244500D01*
X119973713Y-73244500D01*
X119925042Y-73252208D01*
X119763760Y-73277753D01*
X119561585Y-73343444D01*
X119372179Y-73439951D01*
X119200213Y-73564890D01*
X119049890Y-73715213D01*
X118924951Y-73887179D01*
X118828444Y-74076585D01*
X118762753Y-74278760D01*
X118729500Y-74488713D01*
X118729500Y-74951286D01*
X118748184Y-75069256D01*
X118762754Y-75161243D01*
X118812879Y-75315512D01*
X118828444Y-75363414D01*
X118924951Y-75552820D01*
X119049890Y-75724786D01*
X119200213Y-75875109D01*
X119372181Y-76000050D01*
X119386792Y-76007494D01*
X119437589Y-76055467D01*
X119454500Y-76117980D01*
X119454500Y-76581611D01*
X119478535Y-76702444D01*
X119478540Y-76702461D01*
X119525685Y-76816280D01*
X119525687Y-76816283D01*
X119525688Y-76816286D01*
X119559915Y-76867509D01*
X119594142Y-76918733D01*
X119681267Y-77005858D01*
X119681270Y-77005860D01*
X119688554Y-77013144D01*
X120341016Y-77665606D01*
X120341045Y-77665637D01*
X120431263Y-77755855D01*
X120431267Y-77755858D01*
X120533707Y-77824307D01*
X120533713Y-77824310D01*
X120533714Y-77824311D01*
X120647548Y-77871463D01*
X120707971Y-77883481D01*
X120768393Y-77895500D01*
X120768394Y-77895500D01*
X126019548Y-77895500D01*
X126048988Y-77904144D01*
X126078975Y-77910668D01*
X126083990Y-77914422D01*
X126086587Y-77915185D01*
X126107229Y-77931819D01*
X126254205Y-78078795D01*
X126287690Y-78140118D01*
X126288141Y-78142284D01*
X126308833Y-78246308D01*
X126302606Y-78315900D01*
X126259743Y-78371077D01*
X126193853Y-78394322D01*
X126187216Y-78394500D01*
X124897741Y-78394500D01*
X124897721Y-78394499D01*
X124891607Y-78394499D01*
X124768394Y-78394499D01*
X124667597Y-78414548D01*
X124667592Y-78414548D01*
X124647549Y-78418536D01*
X124608602Y-78434669D01*
X124608601Y-78434669D01*
X124533721Y-78465684D01*
X124533708Y-78465691D01*
X124431267Y-78534141D01*
X124431263Y-78534144D01*
X121431269Y-81534140D01*
X121344144Y-81621264D01*
X121344138Y-81621272D01*
X121309914Y-81672489D01*
X121309915Y-81672490D01*
X121275691Y-81723708D01*
X121275684Y-81723721D01*
X121263352Y-81753496D01*
X121228538Y-81837544D01*
X121228535Y-81837556D01*
X121204500Y-81958389D01*
X121204500Y-83877215D01*
X121184815Y-83944254D01*
X121132011Y-83990009D01*
X121062853Y-83999953D01*
X121056309Y-83998832D01*
X120908846Y-83969500D01*
X120908842Y-83969500D01*
X120751158Y-83969500D01*
X120751155Y-83969500D01*
X120596510Y-84000261D01*
X120596498Y-84000264D01*
X120450827Y-84060602D01*
X120450815Y-84060609D01*
X120356541Y-84123602D01*
X120289864Y-84144480D01*
X120287650Y-84144500D01*
X114268389Y-84144500D01*
X114207971Y-84156518D01*
X114170259Y-84164019D01*
X114147550Y-84168536D01*
X114147548Y-84168537D01*
X114114207Y-84182347D01*
X114033719Y-84215684D01*
X114033705Y-84215692D01*
X113931272Y-84284138D01*
X113931264Y-84284144D01*
X108623953Y-89591455D01*
X108623945Y-89591463D01*
X108621270Y-89594139D01*
X108621267Y-89594142D01*
X108534142Y-89681267D01*
X108506825Y-89722150D01*
X108502161Y-89729130D01*
X108465688Y-89783714D01*
X108465686Y-89783716D01*
X108447572Y-89827450D01*
X108418538Y-89897544D01*
X108418535Y-89897556D01*
X108394500Y-90018389D01*
X108394500Y-125553885D01*
X108374815Y-125620924D01*
X108341428Y-125653606D01*
X108342331Y-125654849D01*
X108172786Y-125778028D01*
X108028028Y-125922786D01*
X107907715Y-126088386D01*
X107860485Y-126181080D01*
X107812510Y-126231876D01*
X107744689Y-126248671D01*
X107678554Y-126226134D01*
X107639515Y-126181080D01*
X107592420Y-126088652D01*
X107592287Y-126088390D01*
X107560092Y-126044077D01*
X107471971Y-125922786D01*
X107327213Y-125778028D01*
X107161613Y-125657715D01*
X107161612Y-125657714D01*
X107161610Y-125657713D01*
X107089408Y-125620924D01*
X106979223Y-125564781D01*
X106784534Y-125501522D01*
X106609995Y-125473878D01*
X106582352Y-125469500D01*
X106377648Y-125469500D01*
X106353329Y-125473351D01*
X106175465Y-125501522D01*
X105980776Y-125564781D01*
X105798386Y-125657715D01*
X105632786Y-125778028D01*
X105488028Y-125922786D01*
X105367715Y-126088386D01*
X105274781Y-126270776D01*
X105211522Y-126465465D01*
X105179500Y-126667648D01*
X105179500Y-126872351D01*
X105211522Y-127074534D01*
X105274781Y-127269223D01*
X105338691Y-127394653D01*
X105367585Y-127451359D01*
X105367715Y-127451613D01*
X105488028Y-127617213D01*
X105632786Y-127761971D01*
X105787749Y-127874556D01*
X105798390Y-127882287D01*
X105914607Y-127941503D01*
X105980776Y-127975218D01*
X105980778Y-127975218D01*
X105980781Y-127975220D01*
X106055507Y-127999500D01*
X106175465Y-128038477D01*
X106235155Y-128047931D01*
X106377648Y-128070500D01*
X106377649Y-128070500D01*
X106582351Y-128070500D01*
X106582352Y-128070500D01*
X106784534Y-128038477D01*
X106979219Y-127975220D01*
X107161610Y-127882287D01*
X107258258Y-127812069D01*
X107327213Y-127761971D01*
X107327215Y-127761968D01*
X107327219Y-127761966D01*
X107471966Y-127617219D01*
X107471968Y-127617215D01*
X107471971Y-127617213D01*
X107592284Y-127451614D01*
X107592286Y-127451611D01*
X107592287Y-127451610D01*
X107639516Y-127358917D01*
X107687489Y-127308123D01*
X107755310Y-127291328D01*
X107821445Y-127313865D01*
X107860485Y-127358919D01*
X107907715Y-127451614D01*
X108028028Y-127617213D01*
X108172786Y-127761971D01*
X108327749Y-127874556D01*
X108338390Y-127882287D01*
X108454607Y-127941503D01*
X108520776Y-127975218D01*
X108520778Y-127975218D01*
X108520781Y-127975220D01*
X108595507Y-127999500D01*
X108715465Y-128038477D01*
X108775155Y-128047931D01*
X108917648Y-128070500D01*
X108917649Y-128070500D01*
X109122351Y-128070500D01*
X109122352Y-128070500D01*
X109324534Y-128038477D01*
X109519219Y-127975220D01*
X109701610Y-127882287D01*
X109798258Y-127812069D01*
X109867213Y-127761971D01*
X109867215Y-127761968D01*
X109867219Y-127761966D01*
X110011966Y-127617219D01*
X110011968Y-127617215D01*
X110011971Y-127617213D01*
X110132284Y-127451614D01*
X110132286Y-127451611D01*
X110132287Y-127451610D01*
X110179516Y-127358917D01*
X110227489Y-127308123D01*
X110295310Y-127291328D01*
X110361445Y-127313865D01*
X110400485Y-127358919D01*
X110447715Y-127451614D01*
X110568028Y-127617213D01*
X110712786Y-127761971D01*
X110867749Y-127874556D01*
X110878390Y-127882287D01*
X110994607Y-127941503D01*
X111060776Y-127975218D01*
X111060778Y-127975218D01*
X111060781Y-127975220D01*
X111135507Y-127999500D01*
X111255465Y-128038477D01*
X111315155Y-128047931D01*
X111457648Y-128070500D01*
X111457649Y-128070500D01*
X111662351Y-128070500D01*
X111662352Y-128070500D01*
X111864534Y-128038477D01*
X112059219Y-127975220D01*
X112241610Y-127882287D01*
X112338258Y-127812069D01*
X112407213Y-127761971D01*
X112407215Y-127761968D01*
X112407219Y-127761966D01*
X112551966Y-127617219D01*
X112551968Y-127617215D01*
X112551971Y-127617213D01*
X112672286Y-127451611D01*
X112672415Y-127451359D01*
X112719795Y-127358369D01*
X112767769Y-127307573D01*
X112835590Y-127290778D01*
X112901725Y-127313315D01*
X112940765Y-127358369D01*
X112988141Y-127451350D01*
X112988147Y-127451359D01*
X113020523Y-127495921D01*
X113020524Y-127495922D01*
X113617037Y-126899409D01*
X113634075Y-126962993D01*
X113699901Y-127077007D01*
X113792993Y-127170099D01*
X113907007Y-127235925D01*
X113970590Y-127252962D01*
X113374076Y-127849474D01*
X113418650Y-127881859D01*
X113600968Y-127974755D01*
X113795582Y-128037990D01*
X113997683Y-128070000D01*
X114202317Y-128070000D01*
X114404417Y-128037990D01*
X114599031Y-127974755D01*
X114781349Y-127881859D01*
X114825921Y-127849474D01*
X114229409Y-127252962D01*
X114292993Y-127235925D01*
X114407007Y-127170099D01*
X114500099Y-127077007D01*
X114565925Y-126962993D01*
X114582962Y-126899409D01*
X115179474Y-127495921D01*
X115211861Y-127451347D01*
X115211861Y-127451346D01*
X115259234Y-127358371D01*
X115307208Y-127307575D01*
X115375028Y-127290779D01*
X115441164Y-127313316D01*
X115480203Y-127358369D01*
X115527713Y-127451611D01*
X115648028Y-127617213D01*
X115792786Y-127761971D01*
X115947749Y-127874556D01*
X115958390Y-127882287D01*
X116074607Y-127941503D01*
X116140776Y-127975218D01*
X116140778Y-127975218D01*
X116140781Y-127975220D01*
X116215507Y-127999500D01*
X116335465Y-128038477D01*
X116395155Y-128047931D01*
X116537648Y-128070500D01*
X116537649Y-128070500D01*
X116742351Y-128070500D01*
X116742352Y-128070500D01*
X116944534Y-128038477D01*
X117139219Y-127975220D01*
X117321610Y-127882287D01*
X117418258Y-127812069D01*
X117487213Y-127761971D01*
X117487215Y-127761968D01*
X117487219Y-127761966D01*
X117631966Y-127617219D01*
X117631968Y-127617215D01*
X117631971Y-127617213D01*
X117752284Y-127451614D01*
X117752286Y-127451611D01*
X117752287Y-127451610D01*
X117799516Y-127358917D01*
X117847489Y-127308123D01*
X117915310Y-127291328D01*
X117981445Y-127313865D01*
X118020485Y-127358919D01*
X118067715Y-127451614D01*
X118188028Y-127617213D01*
X118188034Y-127617219D01*
X118332781Y-127761966D01*
X118498390Y-127882287D01*
X118498394Y-127882289D01*
X118502332Y-127885150D01*
X118501111Y-127886829D01*
X118542155Y-127932177D01*
X118554500Y-127986114D01*
X118554500Y-129109547D01*
X118534815Y-129176586D01*
X118518181Y-129197228D01*
X116271203Y-131444205D01*
X116209880Y-131477690D01*
X116207714Y-131478141D01*
X116096508Y-131500261D01*
X116096498Y-131500264D01*
X115950827Y-131560602D01*
X115950814Y-131560609D01*
X115819711Y-131648210D01*
X115819707Y-131648213D01*
X115708213Y-131759707D01*
X115708210Y-131759711D01*
X115620609Y-131890814D01*
X115620602Y-131890827D01*
X115560264Y-132036498D01*
X115560261Y-132036510D01*
X115529500Y-132191153D01*
X115529500Y-132348846D01*
X115560261Y-132503489D01*
X115560264Y-132503501D01*
X115620602Y-132649172D01*
X115620609Y-132649185D01*
X115708210Y-132780288D01*
X115708213Y-132780292D01*
X115819707Y-132891786D01*
X115819711Y-132891789D01*
X115950814Y-132979390D01*
X115950827Y-132979397D01*
X116096498Y-133039735D01*
X116096503Y-133039737D01*
X116251153Y-133070499D01*
X116251156Y-133070500D01*
X116251158Y-133070500D01*
X116408844Y-133070500D01*
X116408845Y-133070499D01*
X116563497Y-133039737D01*
X116709179Y-132979394D01*
X116840289Y-132891789D01*
X116951789Y-132780289D01*
X117039394Y-132649179D01*
X117099737Y-132503497D01*
X117121858Y-132392282D01*
X117154240Y-132330375D01*
X117155734Y-132328854D01*
X119665858Y-129818733D01*
X119734312Y-129716285D01*
X119781463Y-129602451D01*
X119805501Y-129481606D01*
X119805501Y-129358393D01*
X119805501Y-129353283D01*
X119805500Y-129353257D01*
X119805500Y-127986114D01*
X119825185Y-127919075D01*
X119858575Y-127886398D01*
X119857668Y-127885150D01*
X119861605Y-127882289D01*
X119861610Y-127882287D01*
X120027219Y-127761966D01*
X120171966Y-127617219D01*
X120171968Y-127617215D01*
X120171971Y-127617213D01*
X120224732Y-127544590D01*
X120292287Y-127451610D01*
X120385220Y-127269219D01*
X120448477Y-127074534D01*
X120480500Y-126872352D01*
X120480500Y-126667648D01*
X120448477Y-126465466D01*
X120447673Y-126462993D01*
X120385218Y-126270776D01*
X120292420Y-126088652D01*
X120292287Y-126088390D01*
X120260092Y-126044077D01*
X120171971Y-125922786D01*
X120027213Y-125778028D01*
X119857669Y-125654849D01*
X119858884Y-125653176D01*
X119817831Y-125607792D01*
X119805500Y-125553885D01*
X119805500Y-115480451D01*
X119825185Y-115413412D01*
X119841815Y-115392774D01*
X120388797Y-114845791D01*
X120450118Y-114812308D01*
X120452128Y-114811889D01*
X120563497Y-114789737D01*
X120709179Y-114729394D01*
X120840289Y-114641789D01*
X120951789Y-114530289D01*
X121039394Y-114399179D01*
X121099737Y-114253497D01*
X121130500Y-114098842D01*
X121130500Y-113941158D01*
X121130500Y-113941155D01*
X121130499Y-113941153D01*
X121099738Y-113786510D01*
X121099738Y-113786508D01*
X121099737Y-113786503D01*
X121099735Y-113786498D01*
X121039397Y-113640827D01*
X121039390Y-113640814D01*
X120951789Y-113509711D01*
X120951786Y-113509707D01*
X120840292Y-113398213D01*
X120840288Y-113398210D01*
X120709185Y-113310609D01*
X120709172Y-113310602D01*
X120563501Y-113250264D01*
X120563489Y-113250261D01*
X120408845Y-113219500D01*
X120408842Y-113219500D01*
X120251158Y-113219500D01*
X120251155Y-113219500D01*
X120096510Y-113250261D01*
X120096498Y-113250264D01*
X119950827Y-113310602D01*
X119950814Y-113310609D01*
X119819711Y-113398210D01*
X119819707Y-113398213D01*
X119708213Y-113509707D01*
X119708210Y-113509711D01*
X119620609Y-113640814D01*
X119620602Y-113640827D01*
X119560264Y-113786498D01*
X119560261Y-113786508D01*
X119538141Y-113897714D01*
X119505756Y-113959625D01*
X119504205Y-113961203D01*
X119113752Y-114351657D01*
X118781269Y-114684140D01*
X118781267Y-114684142D01*
X118755861Y-114709548D01*
X118694141Y-114771267D01*
X118681799Y-114789737D01*
X118681800Y-114789738D01*
X118625686Y-114873717D01*
X118625685Y-114873718D01*
X118592347Y-114954207D01*
X118586823Y-114967543D01*
X118578537Y-114987545D01*
X118578535Y-114987553D01*
X118554500Y-115108389D01*
X118554500Y-125553885D01*
X118534815Y-125620924D01*
X118501428Y-125653606D01*
X118502331Y-125654849D01*
X118332786Y-125778028D01*
X118188028Y-125922786D01*
X118067715Y-126088386D01*
X118020485Y-126181080D01*
X117972510Y-126231876D01*
X117904689Y-126248671D01*
X117838554Y-126226134D01*
X117799515Y-126181080D01*
X117752420Y-126088652D01*
X117752287Y-126088390D01*
X117720092Y-126044077D01*
X117631971Y-125922786D01*
X117487213Y-125778028D01*
X117321610Y-125657712D01*
X117308200Y-125650879D01*
X117257406Y-125602903D01*
X117240500Y-125540397D01*
X117240500Y-90045451D01*
X117260185Y-89978412D01*
X117276814Y-89957775D01*
X120261595Y-86972993D01*
X120322916Y-86939510D01*
X120392608Y-86944494D01*
X120418166Y-86957575D01*
X120450812Y-86979389D01*
X120450827Y-86979397D01*
X120596498Y-87039735D01*
X120596503Y-87039737D01*
X120751153Y-87070499D01*
X120751156Y-87070500D01*
X120751158Y-87070500D01*
X120908844Y-87070500D01*
X121056308Y-87041167D01*
X121125900Y-87047394D01*
X121181077Y-87090257D01*
X121204322Y-87156146D01*
X121204500Y-87162784D01*
X121204500Y-107227650D01*
X121184815Y-107294689D01*
X121183626Y-107296503D01*
X121165809Y-107323170D01*
X121120609Y-107390815D01*
X121120602Y-107390828D01*
X121060264Y-107536498D01*
X121060261Y-107536510D01*
X121029500Y-107691153D01*
X121029500Y-107848846D01*
X121060261Y-108003489D01*
X121060264Y-108003501D01*
X121120602Y-108149172D01*
X121120609Y-108149185D01*
X121208210Y-108280288D01*
X121208213Y-108280292D01*
X121319707Y-108391786D01*
X121319711Y-108391789D01*
X121450814Y-108479390D01*
X121450827Y-108479397D01*
X121596498Y-108539735D01*
X121596503Y-108539737D01*
X121751153Y-108570499D01*
X121751156Y-108570500D01*
X121751158Y-108570500D01*
X121908844Y-108570500D01*
X121908845Y-108570499D01*
X122063497Y-108539737D01*
X122209179Y-108479394D01*
X122340289Y-108391789D01*
X122451789Y-108280289D01*
X122477398Y-108241963D01*
X122531010Y-108197158D01*
X122600335Y-108188451D01*
X122663363Y-108218605D01*
X122700082Y-108278048D01*
X122704500Y-108310854D01*
X122704500Y-119831611D01*
X122728535Y-119952444D01*
X122728540Y-119952461D01*
X122775685Y-120066280D01*
X122775687Y-120066283D01*
X122775688Y-120066286D01*
X122809915Y-120117509D01*
X122844142Y-120168733D01*
X122931267Y-120255858D01*
X122931269Y-120255859D01*
X122941232Y-120265822D01*
X124741263Y-122065855D01*
X124741267Y-122065858D01*
X124843710Y-122134309D01*
X124843711Y-122134309D01*
X124843715Y-122134312D01*
X124910397Y-122161932D01*
X124957548Y-122181463D01*
X124977597Y-122185451D01*
X125042624Y-122198385D01*
X125078392Y-122205501D01*
X125078394Y-122205501D01*
X125207721Y-122205501D01*
X125207741Y-122205500D01*
X126537372Y-122205500D01*
X126604411Y-122225185D01*
X126637687Y-122256611D01*
X126714310Y-122362073D01*
X126847927Y-122495690D01*
X127000801Y-122606760D01*
X127080347Y-122647290D01*
X127169163Y-122692545D01*
X127169165Y-122692545D01*
X127169168Y-122692547D01*
X127258734Y-122721649D01*
X127290803Y-122732069D01*
X127348478Y-122771507D01*
X127375676Y-122835866D01*
X127363761Y-122904712D01*
X127316516Y-122956188D01*
X127290803Y-122967931D01*
X127169163Y-123007454D01*
X127000800Y-123093240D01*
X126913579Y-123156610D01*
X126847927Y-123204310D01*
X126847925Y-123204312D01*
X126847924Y-123204312D01*
X126714312Y-123337924D01*
X126714312Y-123337925D01*
X126714310Y-123337927D01*
X126666610Y-123403579D01*
X126603240Y-123490800D01*
X126517454Y-123659163D01*
X126459059Y-123838881D01*
X126429500Y-124025513D01*
X126429500Y-124214486D01*
X126459059Y-124401118D01*
X126517454Y-124580836D01*
X126603240Y-124749199D01*
X126714310Y-124902073D01*
X126847927Y-125035690D01*
X127000801Y-125146760D01*
X127080347Y-125187290D01*
X127169163Y-125232545D01*
X127169165Y-125232545D01*
X127169168Y-125232547D01*
X127258734Y-125261649D01*
X127290803Y-125272069D01*
X127348478Y-125311507D01*
X127375676Y-125375866D01*
X127363761Y-125444712D01*
X127316516Y-125496188D01*
X127290803Y-125507931D01*
X127169163Y-125547454D01*
X127000800Y-125633240D01*
X126921958Y-125690523D01*
X126847927Y-125744310D01*
X126847925Y-125744312D01*
X126847924Y-125744312D01*
X126714312Y-125877924D01*
X126714312Y-125877925D01*
X126714310Y-125877927D01*
X126681722Y-125922781D01*
X126603240Y-126030800D01*
X126517454Y-126199163D01*
X126459059Y-126378881D01*
X126429500Y-126565513D01*
X126429500Y-126754486D01*
X126459059Y-126941118D01*
X126517454Y-127120836D01*
X126593060Y-127269219D01*
X126603240Y-127289199D01*
X126714310Y-127442073D01*
X126847927Y-127575690D01*
X127000801Y-127686760D01*
X127055311Y-127714534D01*
X127169163Y-127772545D01*
X127169165Y-127772545D01*
X127169168Y-127772547D01*
X127258734Y-127801649D01*
X127290803Y-127812069D01*
X127348478Y-127851507D01*
X127375676Y-127915866D01*
X127363761Y-127984712D01*
X127316516Y-128036188D01*
X127290803Y-128047931D01*
X127169163Y-128087454D01*
X127000800Y-128173240D01*
X126913579Y-128236610D01*
X126847927Y-128284310D01*
X126847925Y-128284312D01*
X126847924Y-128284312D01*
X126714312Y-128417924D01*
X126714312Y-128417925D01*
X126714310Y-128417927D01*
X126666610Y-128483579D01*
X126603240Y-128570800D01*
X126517454Y-128739163D01*
X126459059Y-128918881D01*
X126429500Y-129105513D01*
X126429500Y-129294486D01*
X126459059Y-129481118D01*
X126517454Y-129660836D01*
X126597907Y-129818732D01*
X126603240Y-129829199D01*
X126714310Y-129982073D01*
X126847927Y-130115690D01*
X127000801Y-130226760D01*
X127080347Y-130267290D01*
X127169163Y-130312545D01*
X127169165Y-130312545D01*
X127169168Y-130312547D01*
X127265497Y-130343846D01*
X127348881Y-130370940D01*
X127535514Y-130400500D01*
X127535519Y-130400500D01*
X127724486Y-130400500D01*
X127911118Y-130370940D01*
X128090832Y-130312547D01*
X128259199Y-130226760D01*
X128412073Y-130115690D01*
X128545690Y-129982073D01*
X128656760Y-129829199D01*
X128742547Y-129660832D01*
X128800940Y-129481118D01*
X128830500Y-129294486D01*
X128830500Y-129105513D01*
X128800940Y-128918881D01*
X128742545Y-128739163D01*
X128656759Y-128570800D01*
X128545690Y-128417927D01*
X128412073Y-128284310D01*
X128259199Y-128173240D01*
X128090836Y-128087454D01*
X128016472Y-128063291D01*
X127969195Y-128047930D01*
X127911521Y-128008493D01*
X127884323Y-127944134D01*
X127896238Y-127875288D01*
X127943482Y-127823812D01*
X127969194Y-127812069D01*
X128090832Y-127772547D01*
X128259199Y-127686760D01*
X128412073Y-127575690D01*
X128545690Y-127442073D01*
X128656760Y-127289199D01*
X128742547Y-127120832D01*
X128800940Y-126941118D01*
X128830500Y-126754486D01*
X128830500Y-126565513D01*
X139129500Y-126565513D01*
X139129500Y-126754486D01*
X139159059Y-126941118D01*
X139217454Y-127120836D01*
X139293060Y-127269219D01*
X139303240Y-127289199D01*
X139414310Y-127442073D01*
X139547927Y-127575690D01*
X139700801Y-127686760D01*
X139755311Y-127714534D01*
X139869163Y-127772545D01*
X139869165Y-127772545D01*
X139869168Y-127772547D01*
X139965497Y-127803846D01*
X140048881Y-127830940D01*
X140235514Y-127860500D01*
X140235519Y-127860500D01*
X140424486Y-127860500D01*
X140611118Y-127830940D01*
X140790832Y-127772547D01*
X140959199Y-127686760D01*
X141112073Y-127575690D01*
X141245690Y-127442073D01*
X141356760Y-127289199D01*
X141442547Y-127120832D01*
X141500940Y-126941118D01*
X141530500Y-126754486D01*
X141530500Y-126565513D01*
X141500940Y-126378881D01*
X141458810Y-126249220D01*
X141442547Y-126199168D01*
X141442545Y-126199165D01*
X141442545Y-126199163D01*
X141356759Y-126030800D01*
X141245690Y-125877927D01*
X141112073Y-125744310D01*
X140959199Y-125633240D01*
X140951119Y-125629123D01*
X140790836Y-125547454D01*
X140611118Y-125489059D01*
X140424486Y-125459500D01*
X140424481Y-125459500D01*
X140235519Y-125459500D01*
X140235514Y-125459500D01*
X140048881Y-125489059D01*
X139869163Y-125547454D01*
X139700800Y-125633240D01*
X139621958Y-125690523D01*
X139547927Y-125744310D01*
X139547925Y-125744312D01*
X139547924Y-125744312D01*
X139414312Y-125877924D01*
X139414312Y-125877925D01*
X139414310Y-125877927D01*
X139381722Y-125922781D01*
X139303240Y-126030800D01*
X139217454Y-126199163D01*
X139159059Y-126378881D01*
X139129500Y-126565513D01*
X128830500Y-126565513D01*
X128800940Y-126378881D01*
X128758810Y-126249220D01*
X128742547Y-126199168D01*
X128742545Y-126199165D01*
X128742545Y-126199163D01*
X128656759Y-126030800D01*
X128545690Y-125877927D01*
X128412073Y-125744310D01*
X128259199Y-125633240D01*
X128251119Y-125629123D01*
X128090836Y-125547454D01*
X128016472Y-125523291D01*
X127969195Y-125507930D01*
X127911521Y-125468493D01*
X127884323Y-125404134D01*
X127896238Y-125335288D01*
X127943482Y-125283812D01*
X127969194Y-125272069D01*
X128090832Y-125232547D01*
X128259199Y-125146760D01*
X128412073Y-125035690D01*
X128545690Y-124902073D01*
X128656760Y-124749199D01*
X128742547Y-124580832D01*
X128800940Y-124401118D01*
X128830500Y-124214486D01*
X128830500Y-124025513D01*
X128800940Y-123838881D01*
X128742545Y-123659163D01*
X128656759Y-123490800D01*
X128545690Y-123337927D01*
X128412073Y-123204310D01*
X128259199Y-123093240D01*
X128090836Y-123007454D01*
X128016472Y-122983291D01*
X127969195Y-122967930D01*
X127911521Y-122928493D01*
X127884323Y-122864134D01*
X127896238Y-122795288D01*
X127943482Y-122743812D01*
X127969194Y-122732069D01*
X128090832Y-122692547D01*
X128259199Y-122606760D01*
X128412073Y-122495690D01*
X128545690Y-122362073D01*
X128656760Y-122209199D01*
X128742547Y-122040832D01*
X128800940Y-121861118D01*
X128830500Y-121674486D01*
X128830500Y-121485513D01*
X128800940Y-121298881D01*
X128742545Y-121119163D01*
X128697290Y-121030347D01*
X128656760Y-120950801D01*
X128545690Y-120797927D01*
X128412073Y-120664310D01*
X128259199Y-120553240D01*
X128090836Y-120467454D01*
X127968387Y-120427668D01*
X127910712Y-120388230D01*
X127883514Y-120323871D01*
X127895429Y-120255025D01*
X127942673Y-120203549D01*
X127968389Y-120191806D01*
X128090635Y-120152086D01*
X128258937Y-120066331D01*
X128284328Y-120047883D01*
X128284328Y-120047882D01*
X127676447Y-119440000D01*
X127682661Y-119440000D01*
X127784394Y-119412741D01*
X127875606Y-119360080D01*
X127950080Y-119285606D01*
X128002741Y-119194394D01*
X128030000Y-119092661D01*
X128030000Y-119086446D01*
X128637882Y-119694328D01*
X128637883Y-119694328D01*
X128656331Y-119668937D01*
X128742085Y-119500637D01*
X128800451Y-119321002D01*
X128830000Y-119134447D01*
X128830000Y-118945552D01*
X128800451Y-118758997D01*
X128742085Y-118579362D01*
X128656329Y-118411059D01*
X128637883Y-118385670D01*
X128637882Y-118385669D01*
X128030000Y-118993552D01*
X128030000Y-118987339D01*
X128002741Y-118885606D01*
X127950080Y-118794394D01*
X127875606Y-118719920D01*
X127784394Y-118667259D01*
X127682661Y-118640000D01*
X127676447Y-118640000D01*
X128284328Y-118032116D01*
X128258933Y-118013666D01*
X128090637Y-117927914D01*
X127968388Y-117888193D01*
X127910712Y-117848755D01*
X127883514Y-117784397D01*
X127895429Y-117715550D01*
X127942673Y-117664075D01*
X127968382Y-117652333D01*
X128090832Y-117612547D01*
X128259199Y-117526760D01*
X128412073Y-117415690D01*
X128545690Y-117282073D01*
X128656760Y-117129199D01*
X128742547Y-116960832D01*
X128800940Y-116781118D01*
X128830500Y-116594486D01*
X128830500Y-116405513D01*
X128800940Y-116218881D01*
X128742545Y-116039163D01*
X128697290Y-115950347D01*
X128656760Y-115870801D01*
X128545690Y-115717927D01*
X128412073Y-115584310D01*
X128259199Y-115473240D01*
X128090836Y-115387454D01*
X128008929Y-115360841D01*
X127969195Y-115347930D01*
X127911521Y-115308493D01*
X127884323Y-115244134D01*
X127896238Y-115175288D01*
X127943482Y-115123812D01*
X127969194Y-115112069D01*
X128090832Y-115072547D01*
X128259199Y-114986760D01*
X128412073Y-114875690D01*
X128545690Y-114742073D01*
X128623799Y-114634564D01*
X128646243Y-114617257D01*
X128666642Y-114597575D01*
X128676091Y-114594241D01*
X128679128Y-114591900D01*
X128699925Y-114585834D01*
X128701604Y-114585500D01*
X128701607Y-114585500D01*
X128786887Y-114568537D01*
X128786888Y-114568537D01*
X128798850Y-114566157D01*
X128822452Y-114561463D01*
X128863404Y-114544500D01*
X128936286Y-114514312D01*
X129009055Y-114465688D01*
X129038733Y-114445858D01*
X129125858Y-114358733D01*
X129125859Y-114358731D01*
X129132925Y-114351665D01*
X129132928Y-114351661D01*
X134699076Y-108785513D01*
X139129500Y-108785513D01*
X139129500Y-108974486D01*
X139159059Y-109161118D01*
X139217454Y-109340836D01*
X139303240Y-109509199D01*
X139414310Y-109662073D01*
X139547927Y-109795690D01*
X139700801Y-109906760D01*
X139780347Y-109947290D01*
X139869163Y-109992545D01*
X139869165Y-109992545D01*
X139869168Y-109992547D01*
X139965497Y-110023846D01*
X140048881Y-110050940D01*
X140235514Y-110080500D01*
X140235519Y-110080500D01*
X140424486Y-110080500D01*
X140611118Y-110050940D01*
X140790832Y-109992547D01*
X140959199Y-109906760D01*
X141112073Y-109795690D01*
X141245690Y-109662073D01*
X141356760Y-109509199D01*
X141442547Y-109340832D01*
X141500940Y-109161118D01*
X141530500Y-108974486D01*
X141530500Y-108785513D01*
X141500940Y-108598881D01*
X141442545Y-108419163D01*
X141356759Y-108250800D01*
X141245690Y-108097927D01*
X141112073Y-107964310D01*
X140959199Y-107853240D01*
X140950575Y-107848846D01*
X140790836Y-107767454D01*
X140611118Y-107709059D01*
X140424486Y-107679500D01*
X140424481Y-107679500D01*
X140235519Y-107679500D01*
X140235514Y-107679500D01*
X140048881Y-107709059D01*
X139869163Y-107767454D01*
X139700800Y-107853240D01*
X139653818Y-107887375D01*
X139547927Y-107964310D01*
X139547925Y-107964312D01*
X139547924Y-107964312D01*
X139414312Y-108097924D01*
X139414312Y-108097925D01*
X139414310Y-108097927D01*
X139377078Y-108149172D01*
X139303240Y-108250800D01*
X139217454Y-108419163D01*
X139159059Y-108598881D01*
X139129500Y-108785513D01*
X134699076Y-108785513D01*
X137648729Y-105835860D01*
X137648733Y-105835858D01*
X137735858Y-105748733D01*
X137804311Y-105646286D01*
X137804312Y-105646285D01*
X137804313Y-105646282D01*
X137804315Y-105646279D01*
X137814672Y-105621272D01*
X137851463Y-105532451D01*
X137875500Y-105411607D01*
X137875500Y-105288393D01*
X137875500Y-100585406D01*
X137895185Y-100518367D01*
X137943206Y-100474921D01*
X138036166Y-100427556D01*
X138227178Y-100288778D01*
X138394128Y-100121828D01*
X138419990Y-100086230D01*
X138475316Y-100043565D01*
X138544930Y-100037584D01*
X138606726Y-100070188D01*
X138620626Y-100086229D01*
X138646254Y-100121503D01*
X138813145Y-100288394D01*
X139004095Y-100427128D01*
X139214391Y-100534280D01*
X139438864Y-100607216D01*
X139438870Y-100607218D01*
X139540000Y-100623235D01*
X139540000Y-96916763D01*
X139438872Y-96932781D01*
X139214393Y-97005719D01*
X139004095Y-97112871D01*
X138813146Y-97251605D01*
X138813145Y-97251605D01*
X138646252Y-97418498D01*
X138620626Y-97453770D01*
X138565296Y-97496435D01*
X138495682Y-97502413D01*
X138433888Y-97469806D01*
X138419991Y-97453768D01*
X138394133Y-97418178D01*
X138394129Y-97418173D01*
X138227176Y-97251220D01*
X138227171Y-97251216D01*
X138036169Y-97112446D01*
X138036168Y-97112445D01*
X138036166Y-97112444D01*
X137970471Y-97078970D01*
X137825800Y-97005256D01*
X137601248Y-96932295D01*
X137368052Y-96895360D01*
X137131948Y-96895360D01*
X137020152Y-96913067D01*
X136898751Y-96932295D01*
X136674199Y-97005256D01*
X136463830Y-97112446D01*
X136272828Y-97251216D01*
X136272823Y-97251220D01*
X136105874Y-97418169D01*
X136105869Y-97418175D01*
X136080318Y-97453344D01*
X136024988Y-97496010D01*
X135955375Y-97501989D01*
X135893580Y-97469383D01*
X135879682Y-97453344D01*
X135854365Y-97418498D01*
X135854128Y-97418172D01*
X135687178Y-97251222D01*
X135687176Y-97251220D01*
X135687171Y-97251216D01*
X135496169Y-97112446D01*
X135496168Y-97112445D01*
X135496166Y-97112444D01*
X135430471Y-97078970D01*
X135285800Y-97005256D01*
X135061248Y-96932295D01*
X134828052Y-96895360D01*
X134591948Y-96895360D01*
X134480152Y-96913067D01*
X134358751Y-96932295D01*
X134134199Y-97005256D01*
X133923830Y-97112446D01*
X133732828Y-97251216D01*
X133732823Y-97251220D01*
X133565874Y-97418169D01*
X133565869Y-97418175D01*
X133540318Y-97453344D01*
X133484988Y-97496010D01*
X133415375Y-97501989D01*
X133353580Y-97469383D01*
X133339682Y-97453344D01*
X133314365Y-97418498D01*
X133314128Y-97418172D01*
X133147178Y-97251222D01*
X133147176Y-97251220D01*
X133147171Y-97251216D01*
X132956169Y-97112446D01*
X132956168Y-97112445D01*
X132956166Y-97112444D01*
X132890471Y-97078970D01*
X132745800Y-97005256D01*
X132521248Y-96932295D01*
X132288052Y-96895360D01*
X132051948Y-96895360D01*
X131940152Y-96913067D01*
X131818751Y-96932295D01*
X131594199Y-97005256D01*
X131383830Y-97112446D01*
X131192828Y-97251216D01*
X131192823Y-97251220D01*
X131025874Y-97418169D01*
X131025869Y-97418175D01*
X131000318Y-97453344D01*
X130944988Y-97496010D01*
X130875375Y-97501989D01*
X130813580Y-97469383D01*
X130799682Y-97453344D01*
X130774365Y-97418498D01*
X130774128Y-97418172D01*
X130607178Y-97251222D01*
X130607176Y-97251220D01*
X130607171Y-97251216D01*
X130416169Y-97112446D01*
X130416168Y-97112445D01*
X130416166Y-97112444D01*
X130350471Y-97078970D01*
X130205800Y-97005256D01*
X129981248Y-96932295D01*
X129748052Y-96895360D01*
X129511948Y-96895360D01*
X129400152Y-96913067D01*
X129278751Y-96932295D01*
X129054199Y-97005256D01*
X128843830Y-97112446D01*
X128652828Y-97251216D01*
X128652823Y-97251220D01*
X128485874Y-97418169D01*
X128485869Y-97418175D01*
X128460318Y-97453344D01*
X128404988Y-97496010D01*
X128335375Y-97501989D01*
X128273580Y-97469383D01*
X128259682Y-97453344D01*
X128234365Y-97418498D01*
X128234128Y-97418172D01*
X128067178Y-97251222D01*
X128067176Y-97251220D01*
X128067171Y-97251216D01*
X127876169Y-97112446D01*
X127876168Y-97112445D01*
X127876166Y-97112444D01*
X127810471Y-97078970D01*
X127665800Y-97005256D01*
X127441248Y-96932295D01*
X127208052Y-96895360D01*
X126971948Y-96895360D01*
X126860152Y-96913067D01*
X126738751Y-96932295D01*
X126514199Y-97005256D01*
X126303830Y-97112446D01*
X126112828Y-97251216D01*
X126112823Y-97251220D01*
X125945870Y-97418173D01*
X125945866Y-97418178D01*
X125807096Y-97609180D01*
X125699906Y-97819549D01*
X125626945Y-98044101D01*
X125626945Y-98044102D01*
X125590010Y-98277298D01*
X125590010Y-99262702D01*
X125626945Y-99495898D01*
X125683451Y-99669807D01*
X125699910Y-99720460D01*
X125700986Y-99723058D01*
X125701100Y-99724123D01*
X125701411Y-99725079D01*
X125701210Y-99725144D01*
X125708449Y-99792528D01*
X125677168Y-99855004D01*
X125617076Y-99890651D01*
X125586421Y-99894500D01*
X124140452Y-99894500D01*
X124111011Y-99885855D01*
X124081025Y-99879332D01*
X124076009Y-99875577D01*
X124073413Y-99874815D01*
X124052771Y-99858181D01*
X123991819Y-99797229D01*
X123958334Y-99735906D01*
X123955500Y-99709548D01*
X123955500Y-91922986D01*
X124495680Y-91922986D01*
X124495680Y-92121653D01*
X124534434Y-92316481D01*
X124534436Y-92316489D01*
X124610457Y-92500021D01*
X124610462Y-92500030D01*
X124720826Y-92665200D01*
X124720829Y-92665204D01*
X124861295Y-92805670D01*
X124861299Y-92805673D01*
X125026469Y-92916037D01*
X125026475Y-92916040D01*
X125026476Y-92916041D01*
X125210011Y-92992064D01*
X125404846Y-93030819D01*
X125404850Y-93030820D01*
X125404851Y-93030820D01*
X126619510Y-93030820D01*
X126619511Y-93030819D01*
X126814349Y-92992064D01*
X126997884Y-92916041D01*
X127163061Y-92805673D01*
X127303533Y-92665201D01*
X127413901Y-92500024D01*
X127489924Y-92316489D01*
X127528680Y-92121649D01*
X127528680Y-91926749D01*
X139404367Y-91926749D01*
X139404367Y-92095496D01*
X139430763Y-92262151D01*
X139482903Y-92422625D01*
X139482904Y-92422628D01*
X139559510Y-92572974D01*
X139658691Y-92709484D01*
X139778006Y-92828799D01*
X139914516Y-92927980D01*
X139988256Y-92965552D01*
X140064861Y-93004585D01*
X140064864Y-93004586D01*
X140145101Y-93030656D01*
X140225340Y-93056727D01*
X140302526Y-93068952D01*
X140391994Y-93083123D01*
X140391999Y-93083123D01*
X140560740Y-93083123D01*
X140641532Y-93070326D01*
X140727394Y-93056727D01*
X140887872Y-93004585D01*
X141038218Y-92927980D01*
X141174728Y-92828799D01*
X141294043Y-92709484D01*
X141393224Y-92572974D01*
X141469829Y-92422628D01*
X141521971Y-92262150D01*
X141535570Y-92176288D01*
X141548367Y-92095496D01*
X141548367Y-91926749D01*
X141533010Y-91829798D01*
X141521971Y-91760096D01*
X141469829Y-91599618D01*
X141469829Y-91599617D01*
X141393223Y-91449271D01*
X141342484Y-91379435D01*
X141294043Y-91312762D01*
X141174728Y-91193447D01*
X141038218Y-91094266D01*
X140887872Y-91017660D01*
X140887869Y-91017659D01*
X140727395Y-90965519D01*
X140560740Y-90939123D01*
X140560735Y-90939123D01*
X140391999Y-90939123D01*
X140391994Y-90939123D01*
X140225338Y-90965519D01*
X140064864Y-91017659D01*
X140064861Y-91017660D01*
X139914515Y-91094266D01*
X139778004Y-91193448D01*
X139658692Y-91312760D01*
X139559510Y-91449271D01*
X139482904Y-91599617D01*
X139482903Y-91599620D01*
X139430763Y-91760094D01*
X139404367Y-91926749D01*
X127528680Y-91926749D01*
X127528680Y-91922991D01*
X127489924Y-91728151D01*
X127413901Y-91544616D01*
X127413900Y-91544615D01*
X127413897Y-91544609D01*
X127303533Y-91379439D01*
X127303530Y-91379435D01*
X127163064Y-91238969D01*
X127163060Y-91238966D01*
X126997890Y-91128602D01*
X126997881Y-91128597D01*
X126814349Y-91052576D01*
X126814341Y-91052574D01*
X126619513Y-91013820D01*
X126619509Y-91013820D01*
X125404851Y-91013820D01*
X125404846Y-91013820D01*
X125210018Y-91052574D01*
X125210010Y-91052576D01*
X125026478Y-91128597D01*
X125026469Y-91128602D01*
X124861299Y-91238966D01*
X124861295Y-91238969D01*
X124720829Y-91379435D01*
X124720826Y-91379439D01*
X124610462Y-91544609D01*
X124610457Y-91544618D01*
X124534436Y-91728150D01*
X124534434Y-91728158D01*
X124495680Y-91922986D01*
X123955500Y-91922986D01*
X123955500Y-89372986D01*
X124495680Y-89372986D01*
X124495680Y-89571653D01*
X124534434Y-89766481D01*
X124534436Y-89766489D01*
X124610457Y-89950021D01*
X124610462Y-89950030D01*
X124720826Y-90115200D01*
X124720829Y-90115204D01*
X124861295Y-90255670D01*
X124861299Y-90255673D01*
X125026469Y-90366037D01*
X125026475Y-90366040D01*
X125026476Y-90366041D01*
X125210011Y-90442064D01*
X125404846Y-90480819D01*
X125404850Y-90480820D01*
X125404851Y-90480820D01*
X126619510Y-90480820D01*
X126619511Y-90480819D01*
X126814349Y-90442064D01*
X126997884Y-90366041D01*
X127163061Y-90255673D01*
X127303533Y-90115201D01*
X127413901Y-89950024D01*
X127489924Y-89766489D01*
X127528680Y-89571649D01*
X127528680Y-89386749D01*
X139404367Y-89386749D01*
X139404367Y-89555496D01*
X139430762Y-89722147D01*
X139482903Y-89882625D01*
X139482904Y-89882628D01*
X139552081Y-90018394D01*
X139559510Y-90032974D01*
X139658691Y-90169484D01*
X139778006Y-90288799D01*
X139914516Y-90387980D01*
X139919368Y-90390452D01*
X140064861Y-90464585D01*
X140064864Y-90464586D01*
X140145101Y-90490656D01*
X140225340Y-90516727D01*
X140302526Y-90528952D01*
X140391994Y-90543123D01*
X140391999Y-90543123D01*
X140560740Y-90543123D01*
X140641532Y-90530326D01*
X140727394Y-90516727D01*
X140887872Y-90464585D01*
X141038218Y-90387980D01*
X141174728Y-90288799D01*
X141294043Y-90169484D01*
X141393224Y-90032974D01*
X141469829Y-89882628D01*
X141521971Y-89722150D01*
X141521970Y-89722150D01*
X141521972Y-89722147D01*
X141548367Y-89555496D01*
X141548367Y-89386749D01*
X141533010Y-89289798D01*
X141521971Y-89220096D01*
X141469829Y-89059618D01*
X141469829Y-89059617D01*
X141393223Y-88909271D01*
X141294043Y-88772762D01*
X141174728Y-88653447D01*
X141038218Y-88554266D01*
X140887872Y-88477660D01*
X140887869Y-88477659D01*
X140727395Y-88425519D01*
X140560740Y-88399123D01*
X140560735Y-88399123D01*
X140391999Y-88399123D01*
X140391994Y-88399123D01*
X140225338Y-88425519D01*
X140064864Y-88477659D01*
X140064861Y-88477660D01*
X139914515Y-88554266D01*
X139778004Y-88653448D01*
X139658692Y-88772760D01*
X139559510Y-88909271D01*
X139482904Y-89059617D01*
X139482903Y-89059620D01*
X139430763Y-89220094D01*
X139404367Y-89386749D01*
X127528680Y-89386749D01*
X127528680Y-89372991D01*
X127489924Y-89178151D01*
X127413901Y-88994616D01*
X127413900Y-88994615D01*
X127413897Y-88994609D01*
X127303533Y-88829439D01*
X127303530Y-88829435D01*
X127163064Y-88688969D01*
X127163060Y-88688966D01*
X126997890Y-88578602D01*
X126997881Y-88578597D01*
X126814349Y-88502576D01*
X126814341Y-88502574D01*
X126619513Y-88463820D01*
X126619509Y-88463820D01*
X125404851Y-88463820D01*
X125404846Y-88463820D01*
X125210018Y-88502574D01*
X125210010Y-88502576D01*
X125026478Y-88578597D01*
X125026469Y-88578602D01*
X124861299Y-88688966D01*
X124861295Y-88688969D01*
X124720829Y-88829435D01*
X124720826Y-88829439D01*
X124610462Y-88994609D01*
X124610457Y-88994618D01*
X124534436Y-89178150D01*
X124534434Y-89178158D01*
X124495680Y-89372986D01*
X123955500Y-89372986D01*
X123955500Y-87194500D01*
X123975185Y-87127461D01*
X124027989Y-87081706D01*
X124079500Y-87070500D01*
X124158844Y-87070500D01*
X124158845Y-87070499D01*
X124313497Y-87039737D01*
X124459179Y-86979394D01*
X124553459Y-86916398D01*
X124620136Y-86895520D01*
X124622350Y-86895500D01*
X131141607Y-86895500D01*
X131202029Y-86883481D01*
X131262452Y-86871463D01*
X131295792Y-86857652D01*
X131376286Y-86824312D01*
X131442169Y-86780289D01*
X131478733Y-86755858D01*
X131565858Y-86668733D01*
X131565859Y-86668731D01*
X131572925Y-86661665D01*
X131572928Y-86661661D01*
X132568729Y-85665860D01*
X132568733Y-85665858D01*
X132655858Y-85578733D01*
X132708290Y-85500263D01*
X132724312Y-85476285D01*
X132751932Y-85409603D01*
X132771463Y-85362452D01*
X132780467Y-85317183D01*
X132792666Y-85255857D01*
X132792666Y-85255852D01*
X132795500Y-85241607D01*
X132795500Y-85118393D01*
X132795500Y-84420846D01*
X132815185Y-84353807D01*
X132863206Y-84310361D01*
X132956166Y-84262996D01*
X133147178Y-84124218D01*
X133314128Y-83957268D01*
X133339681Y-83922096D01*
X133395010Y-83879431D01*
X133464623Y-83873450D01*
X133526419Y-83906055D01*
X133540319Y-83922097D01*
X133565868Y-83957264D01*
X133732823Y-84124219D01*
X133732828Y-84124223D01*
X133812831Y-84182348D01*
X133923834Y-84262996D01*
X134045225Y-84324848D01*
X134134199Y-84370183D01*
X134134201Y-84370183D01*
X134134204Y-84370185D01*
X134358752Y-84443145D01*
X134591948Y-84480080D01*
X134591949Y-84480080D01*
X134828051Y-84480080D01*
X134828052Y-84480080D01*
X135061248Y-84443145D01*
X135285796Y-84370185D01*
X135496166Y-84262996D01*
X135687178Y-84124218D01*
X135854128Y-83957268D01*
X135879681Y-83922096D01*
X135935010Y-83879431D01*
X136004623Y-83873450D01*
X136066419Y-83906055D01*
X136080319Y-83922097D01*
X136105868Y-83957264D01*
X136272823Y-84124219D01*
X136272828Y-84124223D01*
X136352831Y-84182348D01*
X136463834Y-84262996D01*
X136585225Y-84324848D01*
X136674199Y-84370183D01*
X136674201Y-84370183D01*
X136674204Y-84370185D01*
X136898752Y-84443145D01*
X137131948Y-84480080D01*
X137131949Y-84480080D01*
X137368051Y-84480080D01*
X137368052Y-84480080D01*
X137601248Y-84443145D01*
X137825796Y-84370185D01*
X138036166Y-84262996D01*
X138227178Y-84124218D01*
X138394128Y-83957268D01*
X138419681Y-83922096D01*
X138475010Y-83879431D01*
X138544623Y-83873450D01*
X138606419Y-83906055D01*
X138620319Y-83922097D01*
X138645868Y-83957264D01*
X138812823Y-84124219D01*
X138812828Y-84124223D01*
X138892831Y-84182348D01*
X139003834Y-84262996D01*
X139125225Y-84324848D01*
X139214199Y-84370183D01*
X139214201Y-84370183D01*
X139214204Y-84370185D01*
X139438752Y-84443145D01*
X139671948Y-84480080D01*
X139671949Y-84480080D01*
X139908051Y-84480080D01*
X139908052Y-84480080D01*
X140141248Y-84443145D01*
X140365796Y-84370185D01*
X140576166Y-84262996D01*
X140767178Y-84124218D01*
X140934128Y-83957268D01*
X140959681Y-83922096D01*
X141015010Y-83879431D01*
X141084623Y-83873450D01*
X141146419Y-83906055D01*
X141160319Y-83922097D01*
X141185868Y-83957264D01*
X141352823Y-84124219D01*
X141352828Y-84124223D01*
X141432831Y-84182348D01*
X141543834Y-84262996D01*
X141665225Y-84324848D01*
X141754199Y-84370183D01*
X141754201Y-84370183D01*
X141754204Y-84370185D01*
X141978752Y-84443145D01*
X142211948Y-84480080D01*
X142211949Y-84480080D01*
X142448051Y-84480080D01*
X142448052Y-84480080D01*
X142681248Y-84443145D01*
X142905796Y-84370185D01*
X143116166Y-84262996D01*
X143307178Y-84124218D01*
X143474128Y-83957268D01*
X143612906Y-83766256D01*
X143720015Y-83556042D01*
X143767990Y-83505247D01*
X143835811Y-83488452D01*
X143901946Y-83510989D01*
X143945397Y-83565705D01*
X143954500Y-83612338D01*
X143954500Y-88593857D01*
X143934815Y-88660896D01*
X143882011Y-88706651D01*
X143812853Y-88716595D01*
X143749297Y-88687570D01*
X143742819Y-88681538D01*
X143714729Y-88653448D01*
X143611706Y-88578597D01*
X143578218Y-88554266D01*
X143427872Y-88477660D01*
X143427869Y-88477659D01*
X143267395Y-88425519D01*
X143100740Y-88399123D01*
X143100735Y-88399123D01*
X142931999Y-88399123D01*
X142931994Y-88399123D01*
X142765338Y-88425519D01*
X142604864Y-88477659D01*
X142604861Y-88477660D01*
X142454515Y-88554266D01*
X142318004Y-88653448D01*
X142198692Y-88772760D01*
X142099510Y-88909271D01*
X142022904Y-89059617D01*
X142022903Y-89059620D01*
X141970763Y-89220094D01*
X141944367Y-89386749D01*
X141944367Y-89555496D01*
X141970762Y-89722147D01*
X142022903Y-89882625D01*
X142022904Y-89882628D01*
X142092081Y-90018394D01*
X142099510Y-90032974D01*
X142198691Y-90169484D01*
X142318006Y-90288799D01*
X142454516Y-90387980D01*
X142459368Y-90390452D01*
X142604861Y-90464585D01*
X142604864Y-90464586D01*
X142685101Y-90490656D01*
X142765340Y-90516727D01*
X142842526Y-90528952D01*
X142931994Y-90543123D01*
X142931999Y-90543123D01*
X143100740Y-90543123D01*
X143181532Y-90530326D01*
X143267394Y-90516727D01*
X143427872Y-90464585D01*
X143578218Y-90387980D01*
X143714728Y-90288799D01*
X143742819Y-90260708D01*
X143804142Y-90227223D01*
X143873834Y-90232207D01*
X143929767Y-90274079D01*
X143954184Y-90339543D01*
X143954500Y-90348389D01*
X143954500Y-91133857D01*
X143934815Y-91200896D01*
X143882011Y-91246651D01*
X143812853Y-91256595D01*
X143749297Y-91227570D01*
X143742819Y-91221538D01*
X143714729Y-91193448D01*
X143578218Y-91094266D01*
X143427872Y-91017660D01*
X143427869Y-91017659D01*
X143267395Y-90965519D01*
X143100740Y-90939123D01*
X143100735Y-90939123D01*
X142931999Y-90939123D01*
X142931994Y-90939123D01*
X142765338Y-90965519D01*
X142604864Y-91017659D01*
X142604861Y-91017660D01*
X142454515Y-91094266D01*
X142318004Y-91193448D01*
X142198692Y-91312760D01*
X142099510Y-91449271D01*
X142022904Y-91599617D01*
X142022903Y-91599620D01*
X141970763Y-91760094D01*
X141944367Y-91926749D01*
X141944367Y-92095496D01*
X141970763Y-92262151D01*
X142022903Y-92422625D01*
X142022904Y-92422628D01*
X142099510Y-92572974D01*
X142198691Y-92709484D01*
X142318006Y-92828799D01*
X142454516Y-92927980D01*
X142528256Y-92965552D01*
X142604861Y-93004585D01*
X142604864Y-93004586D01*
X142685101Y-93030656D01*
X142765340Y-93056727D01*
X142842526Y-93068952D01*
X142931994Y-93083123D01*
X142931999Y-93083123D01*
X143100740Y-93083123D01*
X143181532Y-93070326D01*
X143267394Y-93056727D01*
X143427872Y-93004585D01*
X143578218Y-92927980D01*
X143714728Y-92828799D01*
X143742819Y-92800708D01*
X143804142Y-92767223D01*
X143873834Y-92772207D01*
X143929767Y-92814079D01*
X143954184Y-92879543D01*
X143954500Y-92888389D01*
X143954500Y-97763101D01*
X143934815Y-97830140D01*
X143882011Y-97875895D01*
X143812853Y-97885839D01*
X143749297Y-97856814D01*
X143720015Y-97819396D01*
X143683134Y-97747014D01*
X143612906Y-97609184D01*
X143595176Y-97584781D01*
X143474133Y-97418178D01*
X143474129Y-97418173D01*
X143307176Y-97251220D01*
X143307171Y-97251216D01*
X143116167Y-97112444D01*
X143076918Y-97092445D01*
X143026122Y-97044470D01*
X143009328Y-96976649D01*
X143030114Y-96913067D01*
X143039391Y-96899183D01*
X143039394Y-96899179D01*
X143099737Y-96753497D01*
X143130500Y-96598842D01*
X143130500Y-96441158D01*
X143130500Y-96441155D01*
X143130499Y-96441153D01*
X143099738Y-96286510D01*
X143099737Y-96286503D01*
X143099735Y-96286498D01*
X143039397Y-96140827D01*
X143039390Y-96140814D01*
X142951789Y-96009711D01*
X142951786Y-96009707D01*
X142840292Y-95898213D01*
X142840288Y-95898210D01*
X142709185Y-95810609D01*
X142709172Y-95810602D01*
X142563501Y-95750264D01*
X142563489Y-95750261D01*
X142408845Y-95719500D01*
X142408842Y-95719500D01*
X142251158Y-95719500D01*
X142251155Y-95719500D01*
X142096510Y-95750261D01*
X142096498Y-95750264D01*
X141950827Y-95810602D01*
X141950814Y-95810609D01*
X141819711Y-95898210D01*
X141819707Y-95898213D01*
X141708213Y-96009707D01*
X141708210Y-96009711D01*
X141620609Y-96140814D01*
X141620602Y-96140827D01*
X141560264Y-96286498D01*
X141560261Y-96286510D01*
X141529500Y-96441153D01*
X141529500Y-96598846D01*
X141560261Y-96753489D01*
X141560264Y-96753501D01*
X141620602Y-96899172D01*
X141620609Y-96899185D01*
X141629887Y-96913070D01*
X141650765Y-96979748D01*
X141632280Y-97047128D01*
X141583082Y-97092444D01*
X141543836Y-97112441D01*
X141543834Y-97112443D01*
X141352828Y-97251216D01*
X141352823Y-97251220D01*
X141185874Y-97418169D01*
X141185874Y-97418170D01*
X141185872Y-97418172D01*
X141160010Y-97453768D01*
X141160009Y-97453770D01*
X141104679Y-97496435D01*
X141035065Y-97502414D01*
X140973270Y-97469808D01*
X140959373Y-97453770D01*
X140933744Y-97418495D01*
X140766854Y-97251605D01*
X140575904Y-97112871D01*
X140365606Y-97005719D01*
X140141127Y-96932781D01*
X140040000Y-96916763D01*
X140040000Y-100623234D01*
X140141129Y-100607218D01*
X140141135Y-100607216D01*
X140365608Y-100534280D01*
X140575904Y-100427128D01*
X140766853Y-100288394D01*
X140766854Y-100288394D01*
X140933750Y-100121498D01*
X140959372Y-100086232D01*
X141014701Y-100043566D01*
X141084314Y-100037585D01*
X141146110Y-100070190D01*
X141160010Y-100086232D01*
X141185868Y-100121824D01*
X141352823Y-100288779D01*
X141352828Y-100288783D01*
X141452008Y-100360841D01*
X141543834Y-100427556D01*
X141672363Y-100493045D01*
X141754199Y-100534743D01*
X141754201Y-100534743D01*
X141754204Y-100534745D01*
X141978752Y-100607705D01*
X142211948Y-100644640D01*
X142211949Y-100644640D01*
X142448051Y-100644640D01*
X142448052Y-100644640D01*
X142681248Y-100607705D01*
X142905796Y-100534745D01*
X143116166Y-100427556D01*
X143307178Y-100288778D01*
X143474128Y-100121828D01*
X143612906Y-99930816D01*
X143720015Y-99720602D01*
X143767990Y-99669807D01*
X143835811Y-99653012D01*
X143901946Y-99675549D01*
X143945397Y-99730265D01*
X143954500Y-99776898D01*
X143954500Y-129959547D01*
X143934815Y-130026586D01*
X143918181Y-130047228D01*
X142857229Y-131108181D01*
X142795906Y-131141666D01*
X142769548Y-131144500D01*
X124768389Y-131144500D01*
X124707971Y-131156518D01*
X124670259Y-131164019D01*
X124647550Y-131168536D01*
X124647548Y-131168537D01*
X124614207Y-131182347D01*
X124533719Y-131215684D01*
X124533705Y-131215692D01*
X124431272Y-131284138D01*
X124431264Y-131284144D01*
X120804143Y-134911265D01*
X120804142Y-134911267D01*
X120797341Y-134921444D01*
X120797334Y-134921455D01*
X120794506Y-134925689D01*
X120735688Y-135013714D01*
X120707707Y-135081267D01*
X120705001Y-135087798D01*
X120704998Y-135087805D01*
X120688538Y-135127544D01*
X120688535Y-135127556D01*
X120664500Y-135248389D01*
X120664500Y-135828669D01*
X120644815Y-135895708D01*
X120596796Y-135939153D01*
X120503569Y-135986655D01*
X120436404Y-136035454D01*
X120312490Y-136125483D01*
X120312488Y-136125485D01*
X120312487Y-136125485D01*
X120145484Y-136292488D01*
X120120318Y-136327127D01*
X120064987Y-136369792D01*
X119995374Y-136375771D01*
X119933579Y-136343165D01*
X119919682Y-136327127D01*
X119917265Y-136323800D01*
X119894517Y-136292490D01*
X119727510Y-136125483D01*
X119536433Y-135986657D01*
X119536429Y-135986655D01*
X119325996Y-135879433D01*
X119101368Y-135806446D01*
X118868097Y-135769500D01*
X118868092Y-135769500D01*
X118631908Y-135769500D01*
X118631903Y-135769500D01*
X118398631Y-135806446D01*
X118174003Y-135879433D01*
X117963566Y-135986657D01*
X117896404Y-136035454D01*
X117772490Y-136125483D01*
X117772488Y-136125485D01*
X117772487Y-136125485D01*
X117605482Y-136292490D01*
X117562451Y-136351717D01*
X117507120Y-136394382D01*
X117452405Y-136402448D01*
X117432658Y-136400893D01*
X116692962Y-137140590D01*
X116675925Y-137077007D01*
X116610099Y-136962993D01*
X116517007Y-136869901D01*
X116402993Y-136804075D01*
X116339408Y-136787037D01*
X117079105Y-136047340D01*
X117079104Y-136047338D01*
X116996174Y-135987087D01*
X116785802Y-135879897D01*
X116561247Y-135806934D01*
X116561248Y-135806934D01*
X116328052Y-135770000D01*
X116091948Y-135770000D01*
X115858752Y-135806934D01*
X115634197Y-135879897D01*
X115423829Y-135987084D01*
X115300021Y-136077036D01*
X115234214Y-136100515D01*
X115166161Y-136084689D01*
X115118220Y-136035359D01*
X115118047Y-136035454D01*
X115117706Y-136034830D01*
X115117466Y-136034583D01*
X115116987Y-136033513D01*
X115113793Y-136027664D01*
X115027547Y-135912455D01*
X115027544Y-135912452D01*
X114912335Y-135826206D01*
X114912328Y-135826202D01*
X114777482Y-135775908D01*
X114777483Y-135775908D01*
X114717883Y-135769501D01*
X114717881Y-135769500D01*
X114717873Y-135769500D01*
X114717865Y-135769500D01*
X114419500Y-135769500D01*
X114410814Y-135766949D01*
X114401853Y-135768238D01*
X114377812Y-135757259D01*
X114352461Y-135749815D01*
X114346533Y-135742974D01*
X114338297Y-135739213D01*
X114324007Y-135716978D01*
X114306706Y-135697011D01*
X114304418Y-135686496D01*
X114300523Y-135680435D01*
X114295500Y-135645500D01*
X114295500Y-135472350D01*
X114315185Y-135405311D01*
X114316398Y-135403459D01*
X114369284Y-135324309D01*
X114379394Y-135309179D01*
X114439737Y-135163497D01*
X114470500Y-135008842D01*
X114470500Y-134851158D01*
X114470500Y-134851155D01*
X114470499Y-134851153D01*
X114465126Y-134824142D01*
X114439737Y-134696503D01*
X114439735Y-134696498D01*
X114379397Y-134550827D01*
X114379390Y-134550814D01*
X114291789Y-134419711D01*
X114291786Y-134419707D01*
X114180292Y-134308213D01*
X114180288Y-134308210D01*
X114049185Y-134220609D01*
X114049172Y-134220602D01*
X113903501Y-134160264D01*
X113903489Y-134160261D01*
X113748845Y-134129500D01*
X113748842Y-134129500D01*
X113591158Y-134129500D01*
X113591155Y-134129500D01*
X113436510Y-134160261D01*
X113436498Y-134160264D01*
X113290827Y-134220602D01*
X113290814Y-134220609D01*
X113159711Y-134308210D01*
X113159707Y-134308213D01*
X113048213Y-134419707D01*
X113048210Y-134419711D01*
X112960609Y-134550814D01*
X112960602Y-134550827D01*
X112900264Y-134696498D01*
X112900261Y-134696510D01*
X112869500Y-134851153D01*
X112869500Y-135008846D01*
X112900261Y-135163489D01*
X112900264Y-135163501D01*
X112960602Y-135309172D01*
X112960609Y-135309184D01*
X113023602Y-135403459D01*
X113029252Y-135421505D01*
X113039477Y-135437415D01*
X113043928Y-135468374D01*
X113044480Y-135470136D01*
X113044500Y-135472350D01*
X113044500Y-135645500D01*
X113024815Y-135712539D01*
X112972011Y-135758294D01*
X112920500Y-135769500D01*
X112622130Y-135769500D01*
X112622123Y-135769501D01*
X112562516Y-135775908D01*
X112427671Y-135826202D01*
X112427664Y-135826206D01*
X112312455Y-135912452D01*
X112312452Y-135912455D01*
X112226206Y-136027664D01*
X112226202Y-136027671D01*
X112175908Y-136162517D01*
X112169501Y-136222116D01*
X112169500Y-136222135D01*
X112169500Y-138317870D01*
X112169501Y-138317876D01*
X112175908Y-138377483D01*
X112226202Y-138512328D01*
X112226206Y-138512335D01*
X112312452Y-138627544D01*
X112312455Y-138627547D01*
X112427664Y-138713793D01*
X112427671Y-138713797D01*
X112562517Y-138764091D01*
X112562516Y-138764091D01*
X112569444Y-138764835D01*
X112622127Y-138770500D01*
X114717872Y-138770499D01*
X114777483Y-138764091D01*
X114912331Y-138713796D01*
X115027546Y-138627546D01*
X115113796Y-138512331D01*
X115113797Y-138512326D01*
X115118047Y-138504546D01*
X115121200Y-138506267D01*
X115152814Y-138464025D01*
X115218275Y-138439599D01*
X115286550Y-138454442D01*
X115300023Y-138462964D01*
X115423828Y-138552914D01*
X115634197Y-138660102D01*
X115858752Y-138733065D01*
X115858751Y-138733065D01*
X116091948Y-138770000D01*
X116328052Y-138770000D01*
X116561247Y-138733065D01*
X116785802Y-138660102D01*
X116996163Y-138552918D01*
X116996169Y-138552914D01*
X117079104Y-138492658D01*
X117079105Y-138492658D01*
X116339409Y-137752962D01*
X116402993Y-137735925D01*
X116517007Y-137670099D01*
X116610099Y-137577007D01*
X116675925Y-137462993D01*
X116692962Y-137399409D01*
X117432657Y-138139104D01*
X117452404Y-138137550D01*
X117520781Y-138151914D01*
X117562451Y-138188282D01*
X117605483Y-138247510D01*
X117772490Y-138414517D01*
X117963567Y-138553343D01*
X118062991Y-138604002D01*
X118174003Y-138660566D01*
X118174005Y-138660566D01*
X118174008Y-138660568D01*
X118294412Y-138699689D01*
X118398631Y-138733553D01*
X118631903Y-138770500D01*
X118631908Y-138770500D01*
X118868097Y-138770500D01*
X119101368Y-138733553D01*
X119102870Y-138733065D01*
X119325992Y-138660568D01*
X119536433Y-138553343D01*
X119727510Y-138414517D01*
X119894517Y-138247510D01*
X119919682Y-138212872D01*
X119975011Y-138170207D01*
X120044625Y-138164228D01*
X120106420Y-138196833D01*
X120120315Y-138212870D01*
X120145483Y-138247510D01*
X120312490Y-138414517D01*
X120503567Y-138553343D01*
X120602991Y-138604002D01*
X120714003Y-138660566D01*
X120714005Y-138660566D01*
X120714008Y-138660568D01*
X120834412Y-138699689D01*
X120938631Y-138733553D01*
X121171903Y-138770500D01*
X121171908Y-138770500D01*
X121408097Y-138770500D01*
X121641368Y-138733553D01*
X121642870Y-138733065D01*
X121865992Y-138660568D01*
X122076433Y-138553343D01*
X122267510Y-138414517D01*
X122434517Y-138247510D01*
X122459682Y-138212872D01*
X122515011Y-138170207D01*
X122584625Y-138164228D01*
X122646420Y-138196833D01*
X122660315Y-138212870D01*
X122685483Y-138247510D01*
X122852490Y-138414517D01*
X123043567Y-138553343D01*
X123142991Y-138604002D01*
X123254003Y-138660566D01*
X123254005Y-138660566D01*
X123254008Y-138660568D01*
X123374412Y-138699689D01*
X123478631Y-138733553D01*
X123711903Y-138770500D01*
X123711908Y-138770500D01*
X123948097Y-138770500D01*
X124181368Y-138733553D01*
X124182870Y-138733065D01*
X124405992Y-138660568D01*
X124616433Y-138553343D01*
X124807510Y-138414517D01*
X124974517Y-138247510D01*
X124999682Y-138212872D01*
X125055011Y-138170207D01*
X125124625Y-138164228D01*
X125186420Y-138196833D01*
X125200315Y-138212870D01*
X125225483Y-138247510D01*
X125392490Y-138414517D01*
X125583567Y-138553343D01*
X125682991Y-138604002D01*
X125794003Y-138660566D01*
X125794005Y-138660566D01*
X125794008Y-138660568D01*
X125914412Y-138699689D01*
X126018631Y-138733553D01*
X126251903Y-138770500D01*
X126251908Y-138770500D01*
X126488097Y-138770500D01*
X126721368Y-138733553D01*
X126722870Y-138733065D01*
X126945992Y-138660568D01*
X127156433Y-138553343D01*
X127347510Y-138414517D01*
X127514517Y-138247510D01*
X127539682Y-138212872D01*
X127595011Y-138170207D01*
X127664625Y-138164228D01*
X127726420Y-138196833D01*
X127740315Y-138212870D01*
X127765483Y-138247510D01*
X127932490Y-138414517D01*
X128123567Y-138553343D01*
X128222991Y-138604002D01*
X128334003Y-138660566D01*
X128334005Y-138660566D01*
X128334008Y-138660568D01*
X128454412Y-138699689D01*
X128558631Y-138733553D01*
X128791903Y-138770500D01*
X128791908Y-138770500D01*
X129028097Y-138770500D01*
X129261368Y-138733553D01*
X129262870Y-138733065D01*
X129485992Y-138660568D01*
X129696433Y-138553343D01*
X129887510Y-138414517D01*
X130054517Y-138247510D01*
X130079682Y-138212872D01*
X130135011Y-138170207D01*
X130204625Y-138164228D01*
X130266420Y-138196833D01*
X130280315Y-138212870D01*
X130305483Y-138247510D01*
X130472490Y-138414517D01*
X130663567Y-138553343D01*
X130762991Y-138604002D01*
X130874003Y-138660566D01*
X130874005Y-138660566D01*
X130874008Y-138660568D01*
X130994412Y-138699689D01*
X131098631Y-138733553D01*
X131331903Y-138770500D01*
X131331908Y-138770500D01*
X131568097Y-138770500D01*
X131801368Y-138733553D01*
X131802870Y-138733065D01*
X132025992Y-138660568D01*
X132236433Y-138553343D01*
X132427510Y-138414517D01*
X132594517Y-138247510D01*
X132619682Y-138212872D01*
X132675011Y-138170207D01*
X132744625Y-138164228D01*
X132806420Y-138196833D01*
X132820315Y-138212870D01*
X132845483Y-138247510D01*
X133012490Y-138414517D01*
X133203567Y-138553343D01*
X133302991Y-138604002D01*
X133414003Y-138660566D01*
X133414005Y-138660566D01*
X133414008Y-138660568D01*
X133534412Y-138699689D01*
X133638631Y-138733553D01*
X133871903Y-138770500D01*
X133871908Y-138770500D01*
X134108097Y-138770500D01*
X134341368Y-138733553D01*
X134342870Y-138733065D01*
X134565992Y-138660568D01*
X134776433Y-138553343D01*
X134967510Y-138414517D01*
X135134517Y-138247510D01*
X135273343Y-138056433D01*
X135380568Y-137845992D01*
X135453553Y-137621368D01*
X135460579Y-137577007D01*
X135490500Y-137388097D01*
X135490500Y-137151902D01*
X135453553Y-136918631D01*
X135380566Y-136694003D01*
X135273342Y-136483566D01*
X135261862Y-136467765D01*
X135134517Y-136292490D01*
X134967510Y-136125483D01*
X134776433Y-135986657D01*
X134776429Y-135986655D01*
X134565996Y-135879433D01*
X134341368Y-135806446D01*
X134108097Y-135769500D01*
X134108092Y-135769500D01*
X133871908Y-135769500D01*
X133871903Y-135769500D01*
X133638631Y-135806446D01*
X133414003Y-135879433D01*
X133203566Y-135986657D01*
X133136404Y-136035454D01*
X133012490Y-136125483D01*
X133012488Y-136125485D01*
X133012487Y-136125485D01*
X132845484Y-136292488D01*
X132820318Y-136327127D01*
X132764987Y-136369792D01*
X132695374Y-136375771D01*
X132633579Y-136343165D01*
X132619682Y-136327127D01*
X132617265Y-136323800D01*
X132594517Y-136292490D01*
X132427510Y-136125483D01*
X132236433Y-135986657D01*
X132236429Y-135986655D01*
X132025996Y-135879433D01*
X131801368Y-135806446D01*
X131568097Y-135769500D01*
X131568092Y-135769500D01*
X131331908Y-135769500D01*
X131331903Y-135769500D01*
X131098631Y-135806446D01*
X130874003Y-135879433D01*
X130663566Y-135986657D01*
X130596404Y-136035454D01*
X130472490Y-136125483D01*
X130472488Y-136125485D01*
X130472487Y-136125485D01*
X130305484Y-136292488D01*
X130280318Y-136327127D01*
X130224987Y-136369792D01*
X130155374Y-136375771D01*
X130093579Y-136343165D01*
X130079682Y-136327127D01*
X130077265Y-136323800D01*
X130054517Y-136292490D01*
X129887510Y-136125483D01*
X129696433Y-135986657D01*
X129696429Y-135986655D01*
X129485996Y-135879433D01*
X129261368Y-135806446D01*
X129028097Y-135769500D01*
X129028092Y-135769500D01*
X128791908Y-135769500D01*
X128791903Y-135769500D01*
X128558631Y-135806446D01*
X128334003Y-135879433D01*
X128123566Y-135986657D01*
X128056404Y-136035454D01*
X127932490Y-136125483D01*
X127932488Y-136125485D01*
X127932487Y-136125485D01*
X127765484Y-136292488D01*
X127740318Y-136327127D01*
X127684987Y-136369792D01*
X127615374Y-136375771D01*
X127553579Y-136343165D01*
X127539682Y-136327127D01*
X127537265Y-136323800D01*
X127514517Y-136292490D01*
X127347510Y-136125483D01*
X127156433Y-135986657D01*
X127156432Y-135986656D01*
X127156430Y-135986655D01*
X127063204Y-135939153D01*
X127052141Y-135928704D01*
X127038297Y-135922382D01*
X127027254Y-135905199D01*
X127012409Y-135891178D01*
X127008168Y-135875499D01*
X127000523Y-135863604D01*
X126995500Y-135828669D01*
X126995500Y-135790452D01*
X127015185Y-135723413D01*
X127031819Y-135702771D01*
X127302772Y-135431819D01*
X127364095Y-135398334D01*
X127390453Y-135395500D01*
X142641607Y-135395500D01*
X142702029Y-135383481D01*
X142762452Y-135371463D01*
X142795792Y-135357652D01*
X142876286Y-135324312D01*
X142927509Y-135290084D01*
X142978733Y-135255858D01*
X143065858Y-135168733D01*
X143065858Y-135168731D01*
X143076066Y-135158524D01*
X143076067Y-135158521D01*
X146485857Y-131748734D01*
X146512812Y-131708394D01*
X146554311Y-131646286D01*
X146601463Y-131532452D01*
X146625500Y-131411606D01*
X146625500Y-131411602D01*
X146626294Y-131407611D01*
X146658679Y-131345700D01*
X146719395Y-131311126D01*
X146789164Y-131314865D01*
X146845837Y-131355731D01*
X146871418Y-131420749D01*
X146871899Y-131430013D01*
X146948856Y-136762949D01*
X146930141Y-136830265D01*
X146878003Y-136876777D01*
X146808995Y-136887718D01*
X146745027Y-136859613D01*
X146737188Y-136852419D01*
X146569256Y-136684487D01*
X146297001Y-136467372D01*
X146296999Y-136467371D01*
X146002130Y-136282092D01*
X145688382Y-136130999D01*
X145359692Y-136015985D01*
X145359684Y-136015982D01*
X145105048Y-135957863D01*
X145020171Y-135938491D01*
X145020167Y-135938490D01*
X145020158Y-135938489D01*
X144674124Y-135899500D01*
X144674120Y-135899500D01*
X144325880Y-135899500D01*
X144325875Y-135899500D01*
X143979841Y-135938489D01*
X143979829Y-135938491D01*
X143640315Y-136015982D01*
X143640307Y-136015985D01*
X143311617Y-136130999D01*
X142997869Y-136282092D01*
X142703000Y-136467371D01*
X142702998Y-136467372D01*
X142430743Y-136684487D01*
X142184487Y-136930743D01*
X141967372Y-137202998D01*
X141967371Y-137203000D01*
X141782092Y-137497869D01*
X141630999Y-137811617D01*
X141515985Y-138140307D01*
X141515982Y-138140315D01*
X141438491Y-138479829D01*
X141438489Y-138479841D01*
X141399500Y-138825875D01*
X141399500Y-139174124D01*
X141438489Y-139520158D01*
X141438491Y-139520170D01*
X141515982Y-139859684D01*
X141515985Y-139859692D01*
X141630999Y-140188382D01*
X141782092Y-140502130D01*
X141782094Y-140502133D01*
X141967370Y-140796997D01*
X141968717Y-140798687D01*
X141968919Y-140799181D01*
X141969380Y-140799830D01*
X141969228Y-140799937D01*
X141995126Y-140863372D01*
X141982372Y-140932067D01*
X141934502Y-140982962D01*
X141871771Y-141000000D01*
X105628229Y-141000000D01*
X105561190Y-140980315D01*
X105515435Y-140927511D01*
X105505491Y-140858353D01*
X105530748Y-140799921D01*
X105530620Y-140799830D01*
X105531050Y-140799224D01*
X105531281Y-140798687D01*
X105532630Y-140796997D01*
X105717906Y-140502133D01*
X105869002Y-140188379D01*
X105984018Y-139859681D01*
X106061509Y-139520171D01*
X106100500Y-139174120D01*
X106100500Y-138825880D01*
X106061509Y-138479829D01*
X105984018Y-138140319D01*
X105869002Y-137811621D01*
X105717906Y-137497867D01*
X105532630Y-137203003D01*
X105532628Y-137203000D01*
X105532627Y-137202998D01*
X105315512Y-136930743D01*
X105069256Y-136684487D01*
X104797001Y-136467372D01*
X104796999Y-136467371D01*
X104680838Y-136394382D01*
X104502133Y-136282094D01*
X104502130Y-136282092D01*
X104188382Y-136130999D01*
X103859692Y-136015985D01*
X103859684Y-136015982D01*
X103605048Y-135957863D01*
X103520171Y-135938491D01*
X103520167Y-135938490D01*
X103520158Y-135938489D01*
X103174124Y-135899500D01*
X103174120Y-135899500D01*
X102825880Y-135899500D01*
X102825875Y-135899500D01*
X102479841Y-135938489D01*
X102479829Y-135938491D01*
X102140315Y-136015982D01*
X102140307Y-136015985D01*
X101811617Y-136130999D01*
X101497869Y-136282092D01*
X101200057Y-136469221D01*
X101199142Y-136467765D01*
X101139388Y-136488170D01*
X101071556Y-136471417D01*
X101023550Y-136420651D01*
X101010000Y-136364287D01*
X101010000Y-75635712D01*
X101029685Y-75568673D01*
X101082489Y-75522918D01*
X101151647Y-75512974D01*
X101199215Y-75532118D01*
X101200057Y-75530779D01*
X101203000Y-75532628D01*
X101203003Y-75532630D01*
X101497867Y-75717906D01*
X101811621Y-75869002D01*
X102058488Y-75955384D01*
X102140307Y-75984014D01*
X102140315Y-75984017D01*
X102140318Y-75984017D01*
X102140319Y-75984018D01*
X102479829Y-76061509D01*
X102825876Y-76100499D01*
X102825877Y-76100500D01*
X102825880Y-76100500D01*
X103174123Y-76100500D01*
X103174123Y-76100499D01*
X103520171Y-76061509D01*
X103859681Y-75984018D01*
X104188379Y-75869002D01*
X104502133Y-75717906D01*
X104796997Y-75532630D01*
X104809176Y-75522918D01*
X105069256Y-75315512D01*
X105069258Y-75315509D01*
X105069263Y-75315506D01*
X105315506Y-75069263D01*
X105394666Y-74970000D01*
X105532627Y-74797001D01*
X105532628Y-74796999D01*
X105532630Y-74796997D01*
X105717906Y-74502133D01*
X105869002Y-74188379D01*
X105984018Y-73859681D01*
X106061509Y-73520171D01*
X106100500Y-73174120D01*
X106100500Y-72825880D01*
X106061509Y-72479829D01*
X105984018Y-72140319D01*
X105869002Y-71811621D01*
X105717906Y-71497867D01*
X105662497Y-71409684D01*
X105532635Y-71203010D01*
X105532632Y-71203006D01*
X105532630Y-71203003D01*
X105524937Y-71193357D01*
X105498532Y-71128673D01*
X105511290Y-71059978D01*
X105559161Y-71009085D01*
X105621938Y-70992050D01*
X141865649Y-71008162D01*
G37*
%TD.AperFunction*%
%TA.AperFunction,Conductor*%
G36*
X120305804Y-85400830D02*
G01*
X120324725Y-85401172D01*
X120352903Y-85414660D01*
X120354689Y-85415185D01*
X120356560Y-85416411D01*
X120357308Y-85416911D01*
X120402103Y-85470531D01*
X120410798Y-85539858D01*
X120380631Y-85602880D01*
X120357308Y-85623089D01*
X120356560Y-85623589D01*
X120337337Y-85629611D01*
X120321181Y-85639588D01*
X120306352Y-85639320D01*
X120289886Y-85644480D01*
X120287650Y-85644500D01*
X120018389Y-85644500D01*
X119967535Y-85654615D01*
X119967530Y-85654616D01*
X119957971Y-85656518D01*
X119897548Y-85668537D01*
X119850397Y-85688067D01*
X119783715Y-85715688D01*
X119783714Y-85715689D01*
X119761347Y-85730633D01*
X119761344Y-85730635D01*
X119681268Y-85784140D01*
X119637705Y-85827703D01*
X119594142Y-85871267D01*
X116219145Y-89246264D01*
X116219139Y-89246272D01*
X116150688Y-89348712D01*
X116150686Y-89348715D01*
X116142358Y-89368819D01*
X116135213Y-89383313D01*
X116133253Y-89386711D01*
X116133228Y-89386755D01*
X116106825Y-89432485D01*
X116080423Y-89478214D01*
X116080423Y-89478215D01*
X116039499Y-89630943D01*
X116039499Y-89630945D01*
X116039499Y-89799046D01*
X116039500Y-89799059D01*
X116039500Y-125540397D01*
X116019815Y-125607436D01*
X115971800Y-125650879D01*
X115958389Y-125657712D01*
X115792786Y-125778028D01*
X115648028Y-125922786D01*
X115527713Y-126088388D01*
X115480203Y-126181630D01*
X115432228Y-126232426D01*
X115364407Y-126249220D01*
X115298272Y-126226682D01*
X115259234Y-126181628D01*
X115211861Y-126088652D01*
X115179474Y-126044077D01*
X115179474Y-126044076D01*
X114582962Y-126640589D01*
X114565925Y-126577007D01*
X114500099Y-126462993D01*
X114407007Y-126369901D01*
X114292993Y-126304075D01*
X114229408Y-126287037D01*
X114825922Y-125690524D01*
X114825921Y-125690523D01*
X114781359Y-125658147D01*
X114781350Y-125658141D01*
X114599031Y-125565244D01*
X114404417Y-125502009D01*
X114202317Y-125470000D01*
X113997683Y-125470000D01*
X113795582Y-125502009D01*
X113600968Y-125565244D01*
X113418644Y-125658143D01*
X113374077Y-125690523D01*
X113374077Y-125690524D01*
X113970591Y-126287037D01*
X113907007Y-126304075D01*
X113792993Y-126369901D01*
X113699901Y-126462993D01*
X113634075Y-126577007D01*
X113617037Y-126640590D01*
X113020524Y-126044077D01*
X113020523Y-126044077D01*
X112988143Y-126088644D01*
X112940765Y-126181630D01*
X112892790Y-126232426D01*
X112824969Y-126249221D01*
X112758834Y-126226683D01*
X112719795Y-126181630D01*
X112672284Y-126088385D01*
X112551971Y-125922786D01*
X112407213Y-125778028D01*
X112241613Y-125657715D01*
X112241612Y-125657714D01*
X112241610Y-125657713D01*
X112169408Y-125620924D01*
X112059223Y-125564781D01*
X111864534Y-125501522D01*
X111689995Y-125473878D01*
X111662352Y-125469500D01*
X111457648Y-125469500D01*
X111433329Y-125473351D01*
X111255465Y-125501522D01*
X111060776Y-125564781D01*
X110878386Y-125657715D01*
X110712786Y-125778028D01*
X110568028Y-125922786D01*
X110447715Y-126088386D01*
X110400485Y-126181080D01*
X110352510Y-126231876D01*
X110284689Y-126248671D01*
X110218554Y-126226134D01*
X110179515Y-126181080D01*
X110132420Y-126088652D01*
X110132287Y-126088390D01*
X110100092Y-126044077D01*
X110011971Y-125922786D01*
X109867213Y-125778028D01*
X109697669Y-125654849D01*
X109698884Y-125653176D01*
X109657831Y-125607792D01*
X109645500Y-125553885D01*
X109645500Y-90390452D01*
X109665185Y-90323413D01*
X109681819Y-90302771D01*
X114552771Y-85431819D01*
X114614094Y-85398334D01*
X114640452Y-85395500D01*
X120287650Y-85395500D01*
X120305804Y-85400830D01*
G37*
%TD.AperFunction*%
%TA.AperFunction,Conductor*%
G36*
X124163351Y-104218594D02*
G01*
X124200078Y-104278033D01*
X124204500Y-104310853D01*
X124204500Y-115081606D01*
X124220192Y-115160500D01*
X124228537Y-115202451D01*
X124275688Y-115316286D01*
X124309915Y-115367509D01*
X124344142Y-115418733D01*
X124431267Y-115505858D01*
X124431270Y-115505860D01*
X124438554Y-115513144D01*
X125821016Y-116895606D01*
X125821045Y-116895637D01*
X125911264Y-116985856D01*
X125911267Y-116985858D01*
X125962490Y-117020084D01*
X126013714Y-117054312D01*
X126094207Y-117087652D01*
X126127548Y-117101463D01*
X126187971Y-117113481D01*
X126248393Y-117125500D01*
X126248394Y-117125500D01*
X126537372Y-117125500D01*
X126604411Y-117145185D01*
X126637687Y-117176611D01*
X126714310Y-117282073D01*
X126847927Y-117415690D01*
X127000801Y-117526760D01*
X127169168Y-117612547D01*
X127291612Y-117652331D01*
X127349287Y-117691769D01*
X127376485Y-117756127D01*
X127364570Y-117824974D01*
X127317326Y-117876449D01*
X127291612Y-117888193D01*
X127169361Y-117927915D01*
X127001060Y-118013669D01*
X126975670Y-118032116D01*
X126975669Y-118032116D01*
X127583554Y-118640000D01*
X127577339Y-118640000D01*
X127475606Y-118667259D01*
X127384394Y-118719920D01*
X127309920Y-118794394D01*
X127257259Y-118885606D01*
X127230000Y-118987339D01*
X127230000Y-118993553D01*
X126622116Y-118385669D01*
X126622116Y-118385670D01*
X126603669Y-118411060D01*
X126517914Y-118579362D01*
X126459548Y-118758997D01*
X126430000Y-118945552D01*
X126430000Y-119134447D01*
X126459548Y-119321002D01*
X126517914Y-119500637D01*
X126603666Y-119668933D01*
X126622116Y-119694328D01*
X127230000Y-119086445D01*
X127230000Y-119092661D01*
X127257259Y-119194394D01*
X127309920Y-119285606D01*
X127384394Y-119360080D01*
X127475606Y-119412741D01*
X127577339Y-119440000D01*
X127583554Y-119440000D01*
X126975669Y-120047882D01*
X126975670Y-120047883D01*
X127001059Y-120066329D01*
X127169362Y-120152085D01*
X127291611Y-120191806D01*
X127349286Y-120231243D01*
X127376485Y-120295602D01*
X127364571Y-120364448D01*
X127317327Y-120415924D01*
X127291612Y-120427668D01*
X127169163Y-120467454D01*
X127000800Y-120553240D01*
X126913579Y-120616610D01*
X126847927Y-120664310D01*
X126847925Y-120664312D01*
X126847924Y-120664312D01*
X126714312Y-120797924D01*
X126714310Y-120797927D01*
X126637688Y-120903387D01*
X126582360Y-120946051D01*
X126537372Y-120954500D01*
X125450453Y-120954500D01*
X125383414Y-120934815D01*
X125362772Y-120918181D01*
X123991819Y-119547228D01*
X123958334Y-119485905D01*
X123955500Y-119459547D01*
X123955500Y-104312350D01*
X123960825Y-104294212D01*
X123961161Y-104275312D01*
X123974668Y-104247068D01*
X123975185Y-104245311D01*
X123976389Y-104243472D01*
X123977390Y-104241973D01*
X124030996Y-104197163D01*
X124100320Y-104188447D01*
X124163351Y-104218594D01*
G37*
%TD.AperFunction*%
%TD*%
M02*
