M48
; DRILL file {KiCad 9.0.0} date 2025-03-07T17:14:54+0900
; FORMAT={-:-/ absolute / metric / decimal}
; #@! TF.CreationDate,2025-03-07T17:14:54+09:00
; #@! TF.GenerationSoftware,Kicad,Pcbnew,9.0.0
; #@! TF.FileFunction,MixedPlating,1,2
FMAT,2
METRIC
; #@! TA.AperFunction,Plated,PTH,ViaDrill
T1C0.300
; #@! TA.AperFunction,Plated,PTH,ComponentDrill
T2C0.800
; #@! TA.AperFunction,Plated,PTH,ComponentDrill
T3C0.950
; #@! TA.AperFunction,Plated,PTH,ComponentDrill
T4C1.000
; #@! TA.AperFunction,NonPlated,NPTH,ComponentDrill
T5C3.200
%
G90
G05
T1
X113.67Y-134.93
X116.33Y-132.27
X120.33Y-114.02
X120.83Y-84.77
X120.83Y-86.27
X121.83Y-107.77
X123.33Y-81.52
X123.33Y-103.77
X124.08Y-84.77
X124.08Y-86.27
X126.33Y-102.77
X127.08Y-78.02
X127.08Y-80.27
X133.33Y-78.02
X139.79Y-96.52
X142.33Y-96.52
T2
X127.63Y-106.34
X127.63Y-108.88
X127.63Y-111.42
X127.63Y-113.96
X127.63Y-116.5
X127.63Y-119.04
X127.63Y-121.58
X127.63Y-124.12
X127.63Y-126.66
X127.63Y-129.2
X140.33Y-108.88
X140.33Y-126.66
T3
X120.08Y-74.72
X122.58Y-74.72
X125.08Y-74.72
X127.58Y-74.72
T4
X106.48Y-126.77
X109.02Y-126.77
X111.56Y-126.77
X113.67Y-137.27
X114.1Y-126.77
X116.21Y-137.27
X116.64Y-126.77
X118.75Y-137.27
X119.18Y-126.77
X121.29Y-137.27
X123.83Y-137.27
X126.37Y-137.27
X128.91Y-137.27
X131.45Y-137.27
X133.99Y-137.27
T5
X103.0Y-73.0
X103.0Y-139.0
X144.5Y-73.0
X144.5Y-139.0
M30
